<svg id="Layer_1" data-name="Layer 1" xmlns="http://www.w3.org/2000/svg" viewBox="0 0 500 500"><defs><style>.cls-1{fill:#7c7c7c;}.cls-2{fill:#1d1d1b;}</style></defs><title>Artboard 1 copy 16</title><path class="cls-1" d="M267.8,18.1l-1.49.07A5.8,5.8,0,0,1,267.8,18.1Z"/><path class="cls-2" d="M482.86,254.77c-23.93-13.4-55.24,3.63-68.32,24-15.35,23.84-17.61,50.08-24.15,77.42-3.14,13.16-10.79,29.52-22.19,39.41a146.46,146.46,0,0,0-6.2-29.91c-3.13-9.82-8-17.11-13.35-21.33-4.57-17.25-10.5-33.94-16.12-48.9A56.61,56.61,0,0,0,348.3,297c16.81-1,41.28-6.88,54.55-17.17,20.1-15.58,19.94-35.87-8.25-30.31A140.21,140.21,0,0,0,379,253.82c-.75-9.42-11.15-14.19-14.93-21.85,7.53.54,16.52,0,23.46,2.28-2.49-9.11-9-16.45-16.72-21.21,6.79-.28,13.56-3.95,20.08-.34-4.12-9-15.27-13.79-19.29-23.08-4.83-11.12-4.13-25.87-5.08-38.19A318.16,318.16,0,0,0,362,114.7l1.06-3.19c7.51-22.59,5.5-51.4-6.13-88.09l-.71-2.24L353.85,21c-8.65-.69-16.66,3.13-24.41,6.82a98.21,98.21,0,0,1-9.92,4.29l-2.63.9c-6.08,2-13.34,4.51-19.61,8.1L291,39.5A146,146,0,0,0,266,35.09a507.76,507.76,0,0,0,2.78,69.16,110.56,110.56,0,0,1,.1,17.64c-.33,7.1-.68,14.45.72,21.56,2.55,12.94,15.13,18.48,27.3,23.85a96.11,96.11,0,0,1,13.89,7c20.63,13.63,28.86,28.05,27.53,48.23a38.8,38.8,0,0,1-13.79,27.66c1.83-.17,3.65-.29,5.48-.35q3.06-.12,6.1,0c13.06.62,29.16.28,41.25,4.5-10.37,3.38-20.78,7-31.41,7.46-7.55.33-19.42-2-27.17,1.46-1.31-2.38-2.76-4.85-4.35-7.34-2,1.1-4.12,2.12-6.32,3.06,2,3,3.7,6,5.21,8.85a14.78,14.78,0,0,0-2.06,6.37c-1,8.88,4.91,14.71,12.64,18.27,5.35,14.07,11.42,30.59,16.3,47.83-9.28-1.6-18.06,6.27-20.31,26.18-3.34,29.64,5.45,48.78-15.19,73.56-5.72,6.86-20.61,16.93-16.39,26.89a172.39,172.39,0,0,1-46.33-.29c3.81-9.86-10.85-19.81-16.51-26.6-20.65-24.78-11.85-43.92-15.2-73.56-1.89-16.83-8.47-25.06-16.06-26.23,4.59-12.68,9.27-23.31,12.15-29.85,2.67-6.06,5.12-13.42,7.72-21.22,1.06-3.16,2.13-6.38,3.25-9.6l6.09-15c-.22.21-.46.4-.69.6.17-.41.33-.81.5-1.21-2.43-.56-4.72-1.16-6.83-1.81-1.32,3.13-2.53,6.35-3.71,9.58-14.05,6.79-31,6.84-46.77,6-10.85-.59-38.7-9.42-37.42,6.2,1.82,22.2,48.95,28.87,70.25,26.36-4.16,9.56-8.48,20.08-12.34,31-7.16,3.06-14.15,11.54-18.22,24.28-4.82,15.17-8.57,35.84-5.6,51.77,3.89,20.79,25.93,40.38,44.45,48.88,6.79,3.12,20.26,10.1,28.92,6.54a189.39,189.39,0,0,0,31.22,2.64,152.88,152.88,0,0,0,27.67-2.4c8.67,3,21.65-3.74,28.28-6.78,13.51-6.21,28.9-18.32,37.74-32.49a41.45,41.45,0,0,0,10.41-4C389,419.3,403.24,398.33,410,379.21c9.29-26.44,16.32-73.36,42.55-88,11.71-6.54,24.05-.55,34.08-6.85C498.87,276.61,494.05,261,482.86,254.77ZM325.46,142.53a5.11,5.11,0,0,1-5.39,0c-2.45-1.48-3.36-3.88-3.66-6.7a6.53,6.53,0,0,1,.21-2.15l0-.13,0-.42c.25-2.95,2.14-5.43,5.11-5.43s4.74,2.34,5.07,5.18a10.81,10.81,0,0,1,.5,1.27,11,11,0,0,1,.5,1.28,12.76,12.76,0,0,1,.24,2.2A5.65,5.65,0,0,1,325.46,142.53Zm33.2-41.72c-4.56-15.73-11.75-30.37-23.6-42.19-8.09-8.08-17.35-11.9-27.37-14.79,4-1.67,8-3,11.44-4.2.93-.31,1.82-.61,2.67-.91a105.49,105.49,0,0,0,10.65-4.59c6.13-2.92,12.46-5.93,18.53-6.2C360.11,57.51,362.64,81.49,358.66,100.81Z"/><path class="cls-2" d="M148.58,228.55c-5.65,4.19-17.35,10.58-15.83,19.51,7-3.15,19-6.46,26.78-3.14-6.41,6.45-15,12.2-18.39,21.18,9.46.1,21.09-4.85,31.12-5.86,10.47-1,20.5-.45,30.46.48,3,.28,5.95.59,8.93.89-14.23-5.4-24.76-14.66-29.86-26.36-5-11.54-4.33-24.8,2-38.35,6.87-14.68,21.79-23.6,35-31.46,2.19-1.31,4.36-2.61,6.46-3.91,6-3.7,6.39-9,7-16.42.12-1.51.24-3.07.42-4.71,1.52-14.06.76-28.5,0-42.48-.43-8.1-.87-16.47-.86-24.68,0-3.61,0-7.23,0-10.84,0-8.08.05-16.43,0-24.65l-.33.09c-5.56,1.47-11,3.14-16.39,5-8.47-4.89-20.18-5.83-29.33-6.56L183,36.09a96.85,96.85,0,0,1-10.57-1.75c-8.35-1.69-17-3.44-25.24-.65l-2.17.74-.2,2.27c-2.69,30.64-.53,54.94,6.59,73.75-.6,3.39-1.12,6.84-1.66,10.38-2.39,15.75,1.64,29.19,2.36,44.61.54,11.43-3.57,22.88-6.82,33.6S125.39,223.09,126,233.63C133.28,234,140.57,227.55,148.58,228.55Zm49.64-82.71c-1.29,3.22-6.62,3.18-7.92,0a12.77,12.77,0,0,1-1.06-5.6,17.26,17.26,0,0,0,.09-1.9v-.25a1.55,1.55,0,0,1,0-.15,4.66,4.66,0,0,1,3-5.6c2-.58,3.69.41,4.83,2.09a13.49,13.49,0,0,1,1.82,4.41A11.57,11.57,0,0,1,198.22,145.84ZM151.55,39.74c6-1.26,12.82.12,19.45,1.46a103.81,103.81,0,0,0,11.36,1.87l2.8.23c6.07.48,14,1.12,20.6,3.21-17.13,7.35-32.41,17.9-43.61,34.24a58.79,58.79,0,0,0-7.65,16.19C150.69,81.42,149.73,62.48,151.55,39.74Z"/><path class="cls-2" d="M215.89,262l.54.16s0-.07,0-.11Z"/><path class="cls-2" d="M252.69,202.82a16.85,16.85,0,0,0,1.92-3.19,17.6,17.6,0,0,0,3.78,4.05,11.57,11.57,0,0,0,9.43,2.22c1.8-.31,7.27-3.46,4.64-6.14-1.75-1.79-3.36-.92-5.5-.64s-3.68-1.07-4.8-2.86a23.89,23.89,0,0,1-2.7-6.49c-.37-1.39-.54-2.78-.77-4.15a5.28,5.28,0,0,0,2-2.22,11.41,11.41,0,0,0,.84-3.32c.34-2.92-2.15-5.52-4.53-6.32-3.69-1.25-8.43-.54-10.44,3.2a4.85,4.85,0,0,0,0,5.4,7.75,7.75,0,0,0,3.06,2.95c.15,1.8.61,3.64.61,5.43a15.66,15.66,0,0,1-1.57,6.75c-2.59,5.33-7.33,2.78-11.58,4.59a1,1,0,0,0-.62,1.17C239.21,210.74,249,207.6,252.69,202.82Z"/></svg>