<svg id="Layer_1" data-name="Layer 1" xmlns="http://www.w3.org/2000/svg" viewBox="0 0 500 500"><defs><style>.cls-1{fill:#ebcda2;}.cls-2{fill:#92321f;}.cls-3{fill:#ede0d8;}.cls-4{fill:#1d1c1a;}</style></defs><title>Artboard 1 copy 10</title><path class="cls-1" d="M337.18,428.52A168.31,168.31,0,0,0,381.36,407l.5-.35c28.87-20,56.12-51.47,69.49-87.3-3.52-1-6.87-2.09-9.86-3.06-13.19-4.3-25.89-9.54-38.79-14.42-3.22-1.22-3.44-6.23-.31-7.79,13.63-6.79,26.93-4.82,41.27-1.09,4.27,1.12,9.16,2.18,14.11,3.52a121.91,121.91,0,0,0,2.09-18.69c-5.16-.37-10.32-.63-15.48-1-14.48-1-28.93-1.81-43.39-3-3.74-.31-3.66-5.71-.29-6.7,15.1-4.44,30.27-8.84,45.94-10,3.68-.27,7.74-.62,11.93-.83a111,111,0,0,0-2.89-13.18c-7.26-25.49-21.86-47.95-40.55-65.93-21.49-20.67-48.39-35.43-75.79-42q-6-1.42-12.07-2.6l-.61-.12c0,.31,0,.61,0,.92.47,9-4.59,12.73-9.91,16.24-4.41,2.91-9,5.7-10.76,11.28-3.73,11.83,14.15,24.75,12.64,39.12-1.64,15.8-15.38,28.88-31.25,26.52-15.2-2.24-21.36-18.51-29.87-29.72-10.5-13.8-14.48-18.12-31.34-12.13-13.92,5-23.8,20.44-36.43,7.92-15.14-15-1.6-28.32.55-43,1.31-9-1.43-15.69-3.26-21.79q-5.64.33-11.3.82c-30.87,2.7-61.52,9.58-85.6,28a103.6,103.6,0,0,0-26,29.34c-9.69,16.16-15.86,34.69-18.72,54,2.7-.07,5.33-.1,7.82-.14a126.82,126.82,0,0,1,26.25,2c8.11,1.6,13.64,4.57,20.43,9.19,3.17,2.16,1,7.26-2.44,7.08-15-.74-30.57-1.44-45.69-.85-2.57.1-5.27.32-8.06.57a176.79,176.79,0,0,0,.84,25.82l4.35-.9c13.28-2.64,27.55-7.43,40.94-3.78,2.54.69,3,4.71,1,6.33C80.15,294.1,65,297.77,52.11,301.32c-1.36.37-2.87.82-4.48,1.3,7.42,33.95,24.94,65,51.92,84.37,20.14,14.45,42.73,29.08,66.45,37.31.45.16.89.33,1.35.48.83.28,1.66.52,2.5.79a124.14,124.14,0,0,0,14.1,3.62c21.69,4.14,44.14,7.5,66.61,8.72,23.95,1.31,47.91.17,70.95-5.1ZM166.34,217.68A23.5,23.5,0,0,1,161.8,224c-3.51,3.84-11.05,3.21-13.87-1.16-3-4.56-4.81-9.57-3.7-15.27,1.05-5.41,2.23-10.44,6.37-14.21a9.22,9.22,0,0,1,13.45,1.12c3.1,4,4.49,9.93,3.93,15.07C167.68,212.31,167.48,215.16,166.34,217.68Zm199,.34c-1,5.85-2.93,13.67-9,15.88-3.12,1.15-5.87,1.75-9.09.5a12.14,12.14,0,0,1-6.49-6.28c-2.79-5.69-.55-11.62,2-16.77-.5,1-1,2-1.49,3a48.73,48.73,0,0,1,3.33-6.27,12.9,12.9,0,0,1,4.48-4.51c3.24-2.07,8.12-2.47,11,.27,2.45,2.37,4.4,4.36,4.95,8.19A19.5,19.5,0,0,1,365.3,218Zm-137,29.39c2.92-10.06,11.69-12.86,21.27-12.76A25.53,25.53,0,0,1,265,240a12.71,12.71,0,0,1,5.76,9.44,70.48,70.48,0,0,1,36.16,25.73c21.55,29.71-3.54,66.11-33.87,77-25.75,9.23-84.27,5.1-93.75-29.93C168.42,282,195.23,254.56,228.28,247.41Z"/><path class="cls-2" d="M306,160.91c1.76-5.58,6.35-8.37,10.76-11.28,5.32-3.51,10.38-7.22,9.91-16.24,0-.31,0-.61,0-.92-27.66-5.29-56.54-6.59-84.41-6-17.16.36-36.05.22-55.17,1.32,1.83,6.1,4.57,12.78,3.26,21.79-2.15,14.72-15.69,28-.55,43,12.63,12.52,22.51-3,36.43-7.92,16.86-6,20.84-1.67,31.34,12.13,8.51,11.21,14.67,27.48,29.87,29.72C303.3,228.91,317,215.83,318.68,200,320.19,185.66,302.31,172.74,306,160.91Z"/><path class="cls-3" d="M273.07,352.16c30.33-10.88,55.42-47.28,33.87-77a70.48,70.48,0,0,0-36.16-25.73,9.8,9.8,0,0,1-3.76,9.05c2.27-1.74-1.95,2.06-2.65,2.63a19.18,19.18,0,0,1-5.47,3.1,34.33,34.33,0,0,1-6.32,1.95,19.7,19.7,0,0,0-.3,3.59,27.17,27.17,0,0,0,3,11.51c3.29,6.21,9.1,9.77,15.89,7.77,3-.9,4.94,3.77,2.55,5.75-2.66,2.2-4,3.86-7.49,4.36a13.84,13.84,0,0,1-7.17-.84,24.5,24.5,0,0,1-11.31-10.12,36.51,36.51,0,0,1-2.62-5.37c-5.84,12-15.72,21.11-27.43,15.15a3.1,3.1,0,0,1,1.25-5.91c9.12-.35,15.07-2.84,18.67-12.54,1.59-4.26,2-8.63,2.33-13a15.11,15.11,0,0,1-6.18-2.66c-3.73-2.78-7-8.57-6.13-13.66a24.15,24.15,0,0,1,.64-2.78c-33.05,7.15-59.86,34.59-49,74.82C188.8,357.26,247.32,361.39,273.07,352.16Z"/><path class="cls-4" d="M134.36,81.41c-14.79-9.84-17.52-9.46-26.07,7-10.66,20.49-17.47,44.71-18.11,68.27,24.08-18.47,54.73-25.35,85.6-28C166.44,110.8,149.32,91.36,134.36,81.41Z"/><path class="cls-4" d="M398.52,119.78c-5-16.49-9.14-34.23-24.27-30.58-11.83,2.84-33,23.92-47,43.39q6.08,1.17,12.07,2.6c27.4,6.59,54.3,21.35,75.79,42C410.93,157.51,403.86,137.44,398.52,119.78Z"/><path class="cls-4" d="M271.17,289c-6.79,2-12.6-1.56-15.89-7.77a27.17,27.17,0,0,1-3-11.51,19.7,19.7,0,0,1,.3-3.59,34.33,34.33,0,0,0,6.32-1.95,19.18,19.18,0,0,0,5.47-3.1c.7-.57,4.92-4.37,2.65-2.63a9.8,9.8,0,0,0,3.76-9.05A12.71,12.71,0,0,0,265,240a25.53,25.53,0,0,0-15.47-5.35c-9.58-.1-18.35,2.7-21.27,12.76a24.15,24.15,0,0,0-.64,2.78c-.83,5.09,2.4,10.88,6.13,13.66a15.11,15.11,0,0,0,6.18,2.66c-.35,4.38-.74,8.75-2.33,13-3.6,9.7-9.55,12.19-18.67,12.54A3.1,3.1,0,0,0,217.7,298c11.71,6,21.59-3.16,27.43-15.15a36.51,36.51,0,0,0,2.62,5.37,24.5,24.5,0,0,0,11.31,10.12,13.84,13.84,0,0,0,7.17.84c3.48-.5,4.83-2.16,7.49-4.36C276.11,292.81,274.2,288.14,271.17,289Z"/><path class="cls-4" d="M360.07,203.84c-2.86-2.74-7.74-2.34-11-.27a12.9,12.9,0,0,0-4.48,4.51,48.73,48.73,0,0,0-3.33,6.27c.49-1,1-2,1.49-3-2.57,5.15-4.81,11.08-2,16.77a12.14,12.14,0,0,0,6.49,6.28c3.22,1.25,6,.65,9.09-.5,6-2.21,8-10,9-15.88a19.5,19.5,0,0,0-.28-6C364.47,208.2,362.52,206.21,360.07,203.84Z"/><path class="cls-4" d="M150.6,193.38c-4.14,3.77-5.32,8.8-6.37,14.21-1.11,5.7.75,10.71,3.7,15.27,2.82,4.37,10.36,5,13.87,1.16a23.5,23.5,0,0,0,4.54-6.34c1.14-2.52,1.34-5.37,1.64-8.11.56-5.14-.83-11.11-3.93-15.07A9.22,9.22,0,0,0,150.6,193.38Z"/><path class="cls-4" d="M491.48,262.6c-8.73-6.35-21.35-6.86-32.91-6.28-4.19.21-8.25.56-11.93.83-15.67,1.15-30.84,5.55-45.94,10-3.37,1-3.45,6.39.29,6.7,14.46,1.2,28.91,2.06,43.39,3,5.16.34,10.32.6,15.48,1q3.31.24,6.61.55c7.16.71,14.57,2.54,21.63.43C494.87,276.79,497.89,267.27,491.48,262.6Z"/><path class="cls-4" d="M457.77,296.51c-4.95-1.34-9.84-2.4-14.11-3.52-14.34-3.73-27.64-5.7-41.27,1.09-3.13,1.56-2.91,6.57.31,7.79,12.9,4.88,25.6,10.12,38.79,14.42,3,1,6.34,2.08,9.86,3.06,10.59,2.95,22.67,4.67,31.16-2.24a5.35,5.35,0,0,0,.59-7.17C477.22,302.76,467.39,299.11,457.77,296.51Z"/><path class="cls-4" d="M99.92,251c-6.79-4.62-12.32-7.59-20.43-9.19a126.82,126.82,0,0,0-26.25-2c-2.49,0-5.12.07-7.82.14-13.11.36-28.06,1.69-38.51,9.12-2.6,1.84-1.31,6,1.13,7,10.39,4.44,23.79,2.73,35.69,1.64,2.79-.25,5.49-.47,8.06-.57,15.12-.59,30.64.11,45.69.85C101,258.25,103.09,253.15,99.92,251Z"/><path class="cls-4" d="M89.86,278.93c-13.39-3.65-27.66,1.14-40.94,3.78l-4.35.9c-5.93,1.26-11.84,2.6-17.84,3.58-6.17,1-11.3,2.48-15.47,7.53-2.16,2.61-.78,6.34,1.31,8.25,8.24,7.54,24,2.91,35.06-.35,1.61-.48,3.12-.93,4.48-1.3,12.92-3.55,28-7.22,38.77-16.06C92.85,283.64,92.4,279.62,89.86,278.93Z"/></svg>