<svg id="Layer_1" data-name="Layer 1" xmlns="http://www.w3.org/2000/svg" viewBox="0 0 500 500"><defs><style>.cls-1{fill:#f39b56;}.cls-2{fill:#221e20;}.cls-3{fill:#73481d;}.cls-4{fill:#c65f3d;}.cls-5{fill:#ef804e;}</style></defs><title>Artboard 1 copy 13</title><g id="_Group_" data-name="&lt;Group&gt;"><path id="_Path_" data-name="&lt;Path&gt;" class="cls-1" d="M471,178c3-19.26,5.94-38.52,6.66-58,.5-13.65,1-29.08-6.05-41.32-7.39-12.8-20.15-18.53-33.39-11.73A30.43,30.43,0,0,0,422,93.09c-24.72-.45-48.72,1.67-73.2.11-26.17-1.67-54.19,0-80.52.19-51.57.45-103.09,3.47-154.67,3.25a3.67,3.67,0,0,1-2-.38,3.88,3.88,0,0,1-1.28-2A40.86,40.86,0,0,0,98,77.45c-18.69-15-35.81,4.34-39.78,22-14.41,64-14,127.93,1.59,191.92,7.42,30.36,18.75,64.29,41.68,86.93,26.88,26.53,54.39,39.59,91,47.16,38.19,7.91,73.25,6.17,110.84-1.64a206,206,0,0,0,75-31.76C450.81,342,458.42,259.18,471,178Z"/><path id="_Path_2" data-name="&lt;Path&gt;" class="cls-2" d="M252.57,264.94c6.33-.23,12.83-2.49,16.94-7.29,10.12-11.84,3.81-32.47-11.79-35.56-13.27-2.62-26.87,5.89-27.65,19.65A21.58,21.58,0,0,0,252.57,264.94Z"/><path id="_Path_3" data-name="&lt;Path&gt;" class="cls-3" d="M170.59,95.85c.41,11,3.57,22.26,8.49,29.76a33.28,33.28,0,0,0,6,7,25.88,25.88,0,0,0,15,6.2,16.92,16.92,0,0,0,10.71-2.47c6.7-4.61,7.24-14.13,7.1-22.26-.1-5.62.92-12.61,1.5-19.66C203.12,94.88,186.86,95.42,170.59,95.85Z"/><path id="_Path_4" data-name="&lt;Path&gt;" class="cls-3" d="M231.06,94.09A206,206,0,0,0,237,121.27c1.57,5.68,3.64,11.47,7.8,15.65s10.92,6.29,16.13,3.52c4.19-2.22,6.4-6.91,7.92-11.41a97.06,97.06,0,0,0,4.38-35.71c-1.62,0-3.26.06-4.87.07C255.89,93.5,243.47,93.76,231.06,94.09Z"/><path id="_Path_5" data-name="&lt;Path&gt;" class="cls-3" d="M298.55,92.79c.49,11.07,4.84,23.64,7.86,30.77,2.38,5.65,5.56,11.22,10.56,14.77s12.18,4.59,17.24,1.13c4.68-3.2,6.45-9.2,7.46-14.78,1.59-8.8,1.84-21.19-1-31.88C326.87,92.26,312.67,92.46,298.55,92.79Z"/><path id="_Path_6" data-name="&lt;Path&gt;" class="cls-2" d="M294.49,358.22a2.78,2.78,0,0,0-3.23-1.44,22.68,22.68,0,0,1-17.37-3.1c-15.66-10.05-14.58-27.11-15.2-41.27q-.68-15.24-1.34-30.47-1-22.67-2-45.34c0-1.13-1.31-1.9-2.73-2s-2.6,1-2.54,2.11q.78,17.93,1.58,35.84.71,16.14,1.42,32.28c.34,7.79-.52,16.21.45,23.91-1.51,13.17-15.82,21.1-30.88,23.26-1.43.21-2.38,1.27-2.11,2.38a2.66,2.66,0,0,0,3.07,1.64c15.64-2.24,27.1-9,32.27-18.11,2.8,7.3,7.78,14.49,14.63,18.89a28.57,28.57,0,0,0,15.61,4.59,31.75,31.75,0,0,0,6.51-.69C294,360.43,294.87,359.31,294.49,358.22Z"/><path id="_Path_7" data-name="&lt;Path&gt;" class="cls-4" d="M218.14,247.23c.31-4.82-4.95-6.72-8.6-3.73s-1,7.72,2.81,8.24A5.24,5.24,0,0,0,218.14,247.23Z"/><path id="_Path_8" data-name="&lt;Path&gt;" class="cls-4" d="M198.34,282c.32-4.82-4.94-6.72-8.59-3.73s-1.06,7.72,2.8,8.24A5.23,5.23,0,0,0,198.34,282Z"/><path id="_Path_9" data-name="&lt;Path&gt;" class="cls-4" d="M218.14,314.53c.31-4.82-4.95-6.72-8.6-3.73s-1,7.72,2.81,8.24A5.24,5.24,0,0,0,218.14,314.53Z"/><path id="_Path_10" data-name="&lt;Path&gt;" class="cls-4" d="M289.2,246.35c-.31-4.82,4.95-6.72,8.6-3.73s1.05,7.72-2.81,8.24A5.24,5.24,0,0,1,289.2,246.35Z"/><path id="_Path_11" data-name="&lt;Path&gt;" class="cls-4" d="M309,281.1c-.32-4.82,4.94-6.72,8.59-3.73s1.06,7.72-2.8,8.24A5.23,5.23,0,0,1,309,281.1Z"/><path id="_Path_12" data-name="&lt;Path&gt;" class="cls-4" d="M289.2,313.65c-.31-4.82,4.95-6.72,8.6-3.73s1.05,7.72-2.81,8.24A5.24,5.24,0,0,1,289.2,313.65Z"/><path id="_Path_13" data-name="&lt;Path&gt;" class="cls-5" d="M132.56,256.54c-3.5,13.48-32.49,13-42.88,10.1-16.55-4.68-19.44-22.46-3.17-29.91,14.08-6.44,41.77-6.55,46,13.39A13.89,13.89,0,0,1,132.56,256.54Z"/><path id="_Path_14" data-name="&lt;Path&gt;" class="cls-5" d="M376.92,255.66c3.5,13.48,32.49,13,42.88,10.1,16.55-4.68,19.44-22.46,3.17-29.91-14.08-6.44-41.77-6.55-46,13.39A13.89,13.89,0,0,0,376.92,255.66Z"/><path class="cls-2" d="M296.71,247.9a2.64,2.64,0,0,1-.75-5.17l5.93-1.71c5.3-1.53,10.78-3.1,16.06-4.88,10.25-3.45,20.88-5.43,31.16-7.36q3.66-.67,7.33-1.39a362.67,362.67,0,0,1,41.67-6,2.67,2.67,0,0,1,2.83,2.42,2.64,2.64,0,0,1-2.42,2.84,357.36,357.36,0,0,0-41.07,6q-3.69.72-7.38,1.39c-10.09,1.89-20.53,3.84-30.43,7.17-5.4,1.82-10.94,3.41-16.29,5l-5.9,1.7A2.42,2.42,0,0,1,296.71,247.9Z"/><path class="cls-2" d="M408.84,287.17l-.38,0c-10.84-1.6-21.92-1.91-32.63-2.21-4.6-.14-9.2-.26-13.81-.49-3.83-.19-7.66-.42-11.5-.66-12-.74-24.39-1.51-36.52-.7a2.64,2.64,0,1,1-.35-5.26c12.46-.84,25-.06,37.2.69,3.81.23,7.62.47,11.43.66,4.57.22,9.14.35,13.7.48,10.87.3,22.1.62,33.24,2.26a2.64,2.64,0,0,1-.38,5.26Z"/><path class="cls-2" d="M354.23,345.35a2.64,2.64,0,0,1-1.15-.26c-20.26-9.77-40.67-19.83-60.65-29.88a2.64,2.64,0,0,1-1.17-3.54,2.61,2.61,0,0,1,3.54-1.17c20,10,40.34,20.07,60.58,29.84a2.64,2.64,0,0,1-1.15,5Z"/><path class="cls-2" d="M212.1,249a2.76,2.76,0,0,1-.92-.17L190,241c-11.14-4.14-23-6.61-34.44-9-9.38-2-19.09-4-28.48-6.9a2.64,2.64,0,0,1,1.58-5c9.14,2.86,18.71,4.85,28,6.78,11.64,2.41,23.69,4.92,35.2,9.2L213,243.92a2.64,2.64,0,0,1-.92,5.12Z"/><path class="cls-2" d="M102,289.91a2.64,2.64,0,0,1-.62-5.2c14.52-3.52,26.82-6.32,41.74-7.54a235.46,235.46,0,0,1,49,1.1,2.64,2.64,0,0,1,2.28,3,2.6,2.6,0,0,1-3,2.29,229.65,229.65,0,0,0-47.91-1.08c-14.55,1.19-26.64,3.94-40.93,7.41A2.7,2.7,0,0,1,102,289.91Z"/><path class="cls-2" d="M141.09,335.89a2.64,2.64,0,0,1-1-5.1c14.93-5.75,30.62-9.41,45.8-12.94,8.19-1.9,16.66-3.88,24.85-6.15a2.64,2.64,0,1,1,1.41,5.09c-8.29,2.29-16.82,4.28-25.07,6.2-15,3.49-30.51,7.1-45.08,12.73A2.69,2.69,0,0,1,141.09,335.89Z"/><path id="_Path_15" data-name="&lt;Path&gt;" class="cls-1" d="M101.19,260.67c-.4-2.54-5.88-20.53-9.45-16.9-3,3-.13,9.44,1.18,12.48s3.53,6.24,6.83,6.54a1.6,1.6,0,0,0,.92-.13C101.31,262.3,101.3,261.39,101.19,260.67Z"/><path id="_Path_16" data-name="&lt;Path&gt;" class="cls-1" d="M113.08,257.59c-.27-2.54-4-20.53-6.37-16.9-2,3-.09,9.44.8,12.48s2.38,6.24,4.6,6.54a.8.8,0,0,0,.63-.13C113.17,259.22,113.16,258.32,113.08,257.59Z"/><path id="_Path_17" data-name="&lt;Path&gt;" class="cls-1" d="M403.7,258.18c.64-4.92-4.1-17.67-10-17.2C391.16,241.18,402.4,268,403.7,258.18Z"/><path id="_Path_18" data-name="&lt;Path&gt;" class="cls-1" d="M417.34,259.19c.22-5.07-5.32-14-7.62-18.69-.47-.95-1.24-2.06-2.28-1.87s-1.38,1.71-1.24,2.85a45.48,45.48,0,0,0,2.34,9.27c1.39,3.89,3.23,8.17,7.07,9.67a1.42,1.42,0,0,0,1.08.1A1.43,1.43,0,0,0,417.34,259.19Z"/><path class="cls-2" d="M393.23,185c.54-1.42,1.09-2.84,1.64-4.26,1.43-3.72-4.16-6.85-6.7-3.9a16.31,16.31,0,0,0-.27,21.35c1.37,1.7,4.26,1.4,5.67,0a18.15,18.15,0,0,0,2.6-22.54,4.06,4.06,0,0,0-6.93,0c-2.27,3.93-5.44,11.77-.67,15.13s9.71-3,6.18-7.28c-3.31-4-8.95,1.72-5.67,5.67l.31.37c-.34-1.3-.69-2.6-1-3.9l.39-.84,2.84-1.18H391l2.84,1.18c.79.79.55-.85.84-1.83a14.38,14.38,0,0,1,1.49-3.27h-6.93a10,10,0,0,1-1.34,12.82h5.67a8,8,0,0,1,.27-10l-6.7-3.91c-.55,1.43-1.1,2.85-1.64,4.27-1.86,4.82,5.89,6.91,7.73,2.13Z"/><path class="cls-2" d="M131.35,179.08a18.74,18.74,0,0,0,2.57,13.62,4.05,4.05,0,0,0,6.29.81,15.82,15.82,0,0,0,0-22c-1.38-1.4-4.35-1.7-5.67,0a17.9,17.9,0,0,0-2,19.82c1.27,2.44,4.44,2.41,6.29.82,4.78-4.11,4.73-11.27.66-15.8a3.9,3.9,0,0,0-3.9-1c-7,2.59-9.92,12.81-3.49,17.8,1.34,1,3.29,1.71,4.86.63,4.8-3.3,5.83-10.13,1.46-14.3-3.74-3.56-9.41,2.1-5.67,5.67.4.39.8,1.27.17,1.71l4.85.62c-1.17-.91-2-3.67-.05-4.4l-3.9-1c1.32,1.47.68,3.31-.66,4.46l6.3.81a9.53,9.53,0,0,1,.71-10.11h-5.67a7.66,7.66,0,0,1-.05,10.71l6.3.81a10.34,10.34,0,0,1-1.76-7.44c.83-5-6.9-7.22-7.73-2.13Z"/></g></svg>