<svg id="Layer_1" data-name="Layer 1" xmlns="http://www.w3.org/2000/svg" viewBox="0 0 500 500"><defs><style>.cls-1{fill:none;}.cls-2{fill:#e32c2a;}.cls-3{fill:#e9e236;}.cls-4{fill:#ba8f2e;}.cls-5{fill:#e8b497;}.cls-6{fill:#ebcda2;}.cls-7{fill:#92321f;}.cls-8{fill:#ede0d8;}.cls-9{fill:#1d1c1a;}</style></defs><title>Artboard 1 copy</title><path class="cls-1" d="M368.67,256.19c-1.12,1.06-2.24,2.13-3.37,3.18l-.7.66-3.69,3.42-.25.23c-6.07,5.6-12.17,11.08-18.26,16.6l-1.67,1.51-2.17,2-2.62,2.4-1.53,1.4-1,.92c.38.67.76,1.33,1.13,2,12.45,22.81,18.5,51.13,17.52,78.89l.35.12c1,.34,2,.73,3,1.17h0c.44.19.87.39,1.31.61a388.55,388.55,0,0,1,10-98.1c1.64-7,3.52-13.89,5.71-20.65-1,.93-1.92,1.87-2.89,2.79Z"/><path class="cls-2" d="M241.27,249.28a328.91,328.91,0,0,1-44.18-2.06,82.27,82.27,0,0,1-9.25-1.55c-.61-.14-1.23-.27-1.84-.42l-.91-.24c.15.34.31.67.47,1s.38.75.59,1.13a40.73,40.73,0,0,0,8,9.91,56,56,0,0,0,5.66,4.61c5.18-6.49,17.43-7.26,23.45-1.9,3.66,3.26,4.82,7.43,3.84,11.34a58.67,58.67,0,0,0,15.06-1.26,113.89,113.89,0,0,0,14-3.87c11.19-3.93,22.05-10.14,29.63-20.44a8.94,8.94,0,0,0,1.38-3.44C272.43,246.76,256.91,248.82,241.27,249.28Z"/><path class="cls-3" d="M200.13,276.68c3.56,4.25,10.05,5.71,15.66,4.56a15.09,15.09,0,0,0,6.27-2.78,13.67,13.67,0,0,0,5-7.36,51.27,51.27,0,0,1-15.51-3.17,46.47,46.47,0,0,0-2.53,4.72c-.53,1.15-1.47,3.33-3,3.44a.91.91,0,0,1-.91-.3c-.57-.82.72-3,1-3.54a34.22,34.22,0,0,1,2-3.26c.38-.6.73-1.3,1.1-2a52,52,0,0,1-9.51-5.35,11.74,11.74,0,0,0-1.45,2.38A12.36,12.36,0,0,0,200.13,276.68Z"/><path class="cls-3" d="M211.17,264.55c-2.75-1.49-.2-5.4,2.36-4.93,1.53.28,3.34,1.7,3.28,3.46a2.78,2.78,0,0,1-3,2.88c-.38,0-.83-.11-1-.46a12.44,12.44,0,0,1-1,1.93l-.3.5a51.27,51.27,0,0,0,15.51,3.17c1-3.91-.18-8.08-3.84-11.34-6-5.36-18.27-4.59-23.45,1.9A52,52,0,0,0,209.3,267,7.12,7.12,0,0,1,211.17,264.55Z"/><path class="cls-4" d="M213.53,259.62c-2.56-.47-5.11,3.44-2.36,4.93A7.12,7.12,0,0,0,209.3,267c-.37.68-.72,1.38-1.1,2a34.22,34.22,0,0,0-2,3.26c-.28.55-1.57,2.72-1,3.54a.91.91,0,0,0,.91.3c1.5-.11,2.44-2.29,3-3.44a46.47,46.47,0,0,1,2.53-4.72l.3-.5a12.44,12.44,0,0,0,1-1.93c.15.35.6.43,1,.46a2.78,2.78,0,0,0,3-2.88C216.87,261.32,215.06,259.9,213.53,259.62Z"/><path class="cls-5" d="M150.85,422.76c-6.69-18.32-7.92-38.48-5.94-58.54-6.66,4.28-12.6,13.58-15.31,20.43-7.84,19.8-2.95,41.91,6.1,59.79,3.76,7.43,8.59,14,13.54,20.26-4.17-1.12-8.46-2.25-12.69-1.47-6.42,1.18-13.63,9.25-5.83,15.4,2.85,2.25,6.37,2.7,9.75,3,11.14,1.13,22.33,1.78,33.51,1.86,7.79.06,17.55,2.59,22.5-6.8.32-.61.6-1.25.86-1.89C161.31,456.69,150.85,422.76,150.85,422.76Z"/><path class="cls-5" d="M473.17,195c-2.47-7.36-7-11.85-12.66-14.24-16.95-7.19-43.86,4.51-54.52,14.37a95.65,95.65,0,0,0-10.33,11.3,17.41,17.41,0,0,0-8.76-4.14,22.05,22.05,0,0,0-4.25-.31,28.87,28.87,0,0,0-4.47.43,40.06,40.06,0,0,0-4.6,1.07c-1.3.38-2.61.82-3.92,1.31s-2.62,1-3.93,1.63-2.61,1.23-3.91,1.89-2.58,1.37-3.84,2.09c-2.54,1.45-5,3-7.37,4.55-1.17.77-2.32,1.56-3.43,2.33s-2.19,1.55-3.23,2.31-2,1.49-3,2.21q-2.09,1.58-4.14,3.21l-1.18,1c-1,.79-1.94,1.58-2.9,2.38l-1.35,1.17c-.89.76-1.77,1.52-2.65,2.3-.48.42-.94.85-1.41,1.28q-1.28,1.14-2.52,2.31c-.49.45-1,.9-1.44,1.36L321,239.05l-1.47,1.46-2.28,2.32-1.5,1.57q-1.08,1.14-2.16,2.31c-.51.55-1,1.1-1.52,1.66-.7.77-1.39,1.56-2.08,2.34l-.86,1-.18.21c-4.51,5.21-9.09,10.36-13.21,16a84.16,84.16,0,0,0-6.07,9.32c-1.14,2.07-4.08,5.73-4.42,8-.64,4.16,1.48,2.22,3.47-.31l0,0c1.43-1.81,2.79-3.91,3-4.26q4.39-6.46,9.24-12.54,5.22-6.54,10.92-12.53,4.57-4.82,9.41-9.27c7.5-6.88,15.23-12,23.42-17.5,9.14-6.1,19-14.23,28.77-18.32,4.71-2,13.1-1.46,17.5,2.42,2.6,2.29,3.8,5.76,2,10.61-1.68,4.55-5.46,7.81-9,10.77-2.59,2.16-5,4.45-7.44,6.79-5.72,5.56-11.16,11.42-17.43,16.56-9.25,7.57-17.23,16.9-25.8,25.35l-2,1.94c-8,7.62-16.36,14.73-23.2,23.72-.28.37-.57.73-.84,1.1a3.37,3.37,0,0,0-.81,1.77c-.16,4.53,5.93-2,6.67-2.79,2.93-3,5.69-6.23,8.67-9.15l0,0,0,0c1.35-1.33,2.72-2.64,4.08-3.94.47-.46.95-.9,1.43-1.35.92-.87,1.83-1.75,2.76-2.61l1.47-1.37,1.77-1.65,1-.92,1.53-1.4,2.62-2.4.51-.47,1.66-1.51,1.67-1.51c6.09-5.53,12.21-11,18.26-16.6l.25-.23L364.6,260l.7-.66c1.13-1.05,2.25-2.12,3.37-3.18l.89-.85c1-.92,1.93-1.86,2.89-2.79l1.21-1.16-1.21,1.16c-2.19,6.76-4.07,13.68-5.71,20.65a388.55,388.55,0,0,0-10,98.1,36.59,36.59,0,0,1,5.05,3.07,36.52,36.52,0,0,0-5.05-3.06c-.44-.21-.87-.43-1.31-.62h0l-1.34-.56-.83-.32-.81-.29-.35-.12-1.24-.39c-.8-.23-1.6-.42-2.4-.6l-.76-.16c-.33-.07-.67-.12-1-.18-.72-.12-1.43-.24-2.14-.32h0l-1.15-.12h0c-.66-.06-1.33-.11-2-.13l-1.15,0c-.67,0-1.35,0-2,0h0c-.35,0-.69,0-1,.05h0c-.78,0-1.55.13-2.32.23h0l-.68.08h0l-.82.14c-.51.09-1,.18-1.52.29l-1.23.28c-.47.11-.93.23-1.39.36l-1,.3h0l-.24.08-.39.13c-.76.25-1.52.52-2.27.82h0l-.73.3h0c-.73.3-1.44.62-2.15,1h0l-.66.33h0c-.77.38-1.53.79-2.27,1.22l-.21.12-.23.13h0c-.63.37-1.24.76-1.85,1.15l-.31.21c-.58.38-1.15.78-1.71,1.19l-.39.29c-.55.41-1.1.83-1.64,1.27l-.34.28c-.56.46-1.12.93-1.67,1.42h0l-.1.09h0c-.79.7-1.55,1.43-2.3,2.19h0l-.12.13-.14.13c-.71.73-1.41,1.48-2.09,2.25h0a2.62,2.62,0,0,0-.22.25h0c-.73.84-1.45,1.71-2.15,2.61l-.68.87h0l-.18.25-.41.56c-.82,1.13-1.61,2.29-2.36,3.48l-.19.29c-.26.41-.51.84-.76,1.26l-.51.87c-.35.62-.69,1.23-1,1.86l0,.07-.08.15-.18.35,0,.07a73.73,73.73,0,0,0-3.94,9l0,.05,0,.11,0,.06h0c-.25.71-.49,1.43-.72,2.15l-.15.43c-.23.73-.45,1.46-.66,2.2a1.05,1.05,0,0,0-.05.19.42.42,0,0,1,0,.1v.05h0c-.44,1.58-.85,3.19-1.2,4.84a.31.31,0,0,0,0,.08h0c-.13.58-.23,1.16-.34,1.75-.06.3-.12.59-.17.9-.12.71-.24,1.43-.35,2.14h0l-.12.81v.13h0q-.15,1.06-.27,2.13c-.1.89-.19,1.78-.26,2.68-.1,1.3-.15,2.61-.18,3.92h0c0,.51,0,1,0,1.55h0q0,1,0,2h0c0,.9.06,1.82.11,2.75h0c0,.65.08,1.29.14,1.94s.1,1.24.17,1.85h0c.12,1.11.26,2.22.42,3.31l.06.4s0,.09,0,.13c.2,1.11,1.42,6.41,2.72,10.5a28.25,28.25,0,0,0,1.71,3.58l.14.25c.2.35.41.68.63,1h0s.07,0,.1,0l-.07,0c.26.39.52.77.79,1.13-.42.15-.9.35-1.42.55l-.21.09-1.64.69-.29.13c-.59.26-1.21.54-1.86.85a1.92,1.92,0,0,0-.25.12c-1.38.65-2.86,1.39-4.38,2.22l-.23.12c-.73.4-1.47.83-2.22,1.26l-.33.2c-.74.44-1.48.91-2.22,1.38l-.26.18c-.77.51-1.53,1-2.27,1.56-.48.36-1,.72-1.44,1.1l-.3.24-.13.11c-3.28,2.68-6.82,6.61-8.28,11.2a12.77,12.77,0,0,0-.38,1.38c0,.23,0,.47-.06.7s0,.34,0,.51,0,.44,0,.67,0,.4,0,.6,0,.41.07.61a10,10,0,0,0,.25,1.16,3.1,3.1,0,0,0,.13.4,9.37,9.37,0,0,0,.31.89c.06.16.13.32.2.48s.27.59.43.88l.23.43c.24.42.51.85.81,1.28l0,0a5.49,5.49,0,0,0,.61.73c.12.14.25.27.38.4a1.41,1.41,0,0,0,.47-.35c.66-.81.53-2.12.46-3.26a17.86,17.86,0,0,1,1.9-9.11,14.19,14.19,0,0,1,2.67-3.7,15.26,15.26,0,0,1,3.25-2.37c3.91-2.19,7.86-4.27,11.79-6.37,2.87-1.53,7.88-2.26,9.73-5.9,1.22-2.39-3-9.84-3.76-12.21a72.72,72.72,0,0,1-2.7-14.23c-1.09-11,.13-22.46,4.32-32.33,3.85-9,9.42-18,16.81-23.08,9.54-6.51,20.67-10.15,31.63-9a28,28,0,0,1,9,2.48,36.57,36.57,0,0,1,15.34,13.79,47.18,47.18,0,0,1,6.42,16.18q-.09-.92-.21-1.83h0c-.19-1.17-.37-2.31-.57-3.43h0c-.19-.91-.4-1.8-.64-2.69l0-.1c-.24-.91-.52-1.81-.82-2.69v0c-.26-.74-.54-1.47-.83-2.19-.1-.24-.21-.47-.31-.7q-.3-.72-.63-1.41l-.41-.82c-.21-.41-.42-.82-.64-1.22s-.31-.56-.48-.84-.42-.72-.63-1.07c1.73-23.63,2.13-47.45,5.56-70.8,2.44-16.67,6.64-33.24,14.69-47.22s18.19-19.6,30.3-26.73c13.12-7.72,27.46-2.13,40.57-9.48C474.93,225.09,478.16,209.82,473.17,195ZM400.64,215a15.85,15.85,0,0,1,.31,3.52A15.85,15.85,0,0,0,400.64,215Z"/><path class="cls-5" d="M183.26,250.11c-30.87-14.48-61.43-25.36-91.92-15.44-6.85,2.23-13.92,5.91-16.36,13.49-2.64,8.22,1.89,17.67,8.14,23.56,7.26,6.84,10.84,2.81,18.62,1.9a70,70,0,0,1,21.12.94c14.29,3,27.71,9.68,41.15,16.46A379.09,379.09,0,0,1,183.26,250.11Z"/><path class="cls-6" d="M243.65,485.81c-.7,0-1.39,0-2.09,0C242.26,485.8,243,485.81,243.65,485.81Z"/><path class="cls-6" d="M241.56,485.78c-.86,0-1.72-.07-2.57-.12C239.84,485.71,240.7,485.75,241.56,485.78Z"/><path class="cls-6" d="M239,485.66l-1.09-.06Z"/><path class="cls-6" d="M245.5,485.84h0Z"/><path class="cls-6" d="M245.41,485.83c-.59,0-1.17,0-1.76,0C244.24,485.82,244.82,485.84,245.41,485.83Z"/><path class="cls-6" d="M229.13,484.66a102.89,102.89,0,0,1-31.75-9.91c-35.9-18.17-46.32-52-46.32-52-6.7-18.36-7.93-38.58-5.93-58.68,2.58-25.92,10.53-51.65,19.05-73L164,291c-8.55,21.38-16.53,47.2-19.1,73.2-2,20.06-.75,40.22,5.94,58.54,0,0,10.46,33.93,46.49,52.08a103.31,103.31,0,0,0,31.58,9.82l2.35.32c2.21.28,4.42.47,6.63.62-2.14-.15-4.28-.35-6.42-.62Z"/><path class="cls-6" d="M340.73,281.79l-1.66,1.51-.51.47Z"/><path class="cls-6" d="M341,221.75l1.45-1.09L341,221.75q-2.09,1.58-4.14,3.21Q338.9,223.33,341,221.75Z"/><path class="cls-6" d="M360.66,263.68c-6.05,5.58-12.17,11.07-18.26,16.6C348.49,274.76,354.59,269.28,360.66,263.68Z"/><path class="cls-6" d="M400.64,215a15.85,15.85,0,0,1,.31,3.52A15.85,15.85,0,0,0,400.64,215Z"/><path class="cls-6" d="M391,212.8c-4.4-3.88-12.79-4.38-17.5-2.42-9.79,4.09-19.63,12.22-28.77,18.32-8.19,5.47-15.92,10.62-23.42,17.5q-4.83,4.44-9.41,9.27-5.69,6-10.92,12.53-4.85,6.06-9.24,12.54c-.24.35-1.6,2.45-3,4.26l0,0c-2,2.53-4.11,4.47-3.47.31.34-2.23,3.28-5.89,4.42-8a84.16,84.16,0,0,1,6.07-9.32c4.12-5.61,8.7-10.76,13.21-16l.18-.21L307.88,250a78.81,78.81,0,0,0-10.76-11.61A110.46,110.46,0,0,0,324.81,222l.31-.26c18.13-14.92,34.51-37.58,41-62.28-2.14-.26-4.19-.58-6-.87-9-1.39-17.75-3.44-26.61-5.24a2.86,2.86,0,0,1-1-5c8.1-5.84,16.91-6,26.58-5.06,3,.28,6.34.46,9.78.82a79.25,79.25,0,0,0,0-13.43c-3.17.25-6.35.56-9.53.81-9.47.78-18.92,1.61-28.42,2.21-2.45.16-2.91-3.35-.83-4.31,9.37-4.33,18.78-8.64,28.83-10.89,2.3-.51,4.83-1.11,7.46-1.64q-.84-3-2-5.94C358.28,94.64,347.52,80.76,334.34,70a109.94,109.94,0,0,0-51.8-23.31q-4-.6-8-1l-.41,0c0,.21.06.4.09.6.79,5.87-2.31,8.57-5.59,11.15-2.73,2.14-5.57,4.21-6.41,8-1.79,7.94,10.59,15.39,10.39,24.87-.22,10.4-8.48,19.7-19,19-10.05-.64-15-10.93-21.13-17.78-7.61-8.44-10.44-11-21.13-6.22-8.82,4-14.43,14.65-23.36,7.17-10.71-9-2.59-18.41-2-28.15.36-6-1.79-10.17-3.32-14-2.44.35-4.89.73-7.33,1.15-20,3.44-39.66,9.61-54.38,23a67.87,67.87,0,0,0-15.41,20.58,94,94,0,0,0-8.71,30c2,.16,4,.36,5.89.54a82.75,82.75,0,0,1,17,3.16c5.17,1.62,8.56,3.95,12.65,7.45,1.91,1.64.16,4.8-2.1,4.44-9.75-1.57-19.81-3.14-29.7-3.84-1.43-.1-2.93-.15-4.48-.18a113.6,113.6,0,0,0,1,17c1.33-.14,2.67-.27,4-.39,8.85-.76,18.48-2.86,26.94.48,1.61.63,1.62,3.28.22,4.2-7.63,5-17.74,6.29-26.41,7.68l-2.41.41c6,24.26,19.8,46.24,40.23,58.46,13.94,8.33,29.49,16.66,45.43,20.74l.91.24c.61.15,1.23.28,1.84.42a82.27,82.27,0,0,0,9.25,1.55,328.91,328.91,0,0,0,44.18,2.06c15.64-.46,31.16-2.52,45.86-7.19a8.94,8.94,0,0,1-1.38,3.44c-7.58,10.3-18.44,16.51-29.63,20.44,8.24,12.64,13.83,28.16,18.05,43.66a367.79,367.79,0,0,1,12.56,84.93c.51,16.27,0,32.84-4.24,48.28-6,22.06-20.18,36.33-37,43a101.45,101.45,0,0,0,22.54-2.68,12.16,12.16,0,0,0-.25,1.34,13.26,13.26,0,0,1,.38-1.37c1.46-4.59,5-8.52,8.28-11.2l.13-.11.1-.08.34-.27,1.12-.85.22-.16c.73-.53,1.48-1,2.23-1.54l.24-.16,0,0c.73-.47,1.47-.93,2.2-1.37l.33-.2c.73-.43,1.46-.84,2.18-1.24l.11-.06.16-.08c1.52-.83,3-1.57,4.38-2.22l.25-.12h0c.65-.31,1.27-.59,1.86-.85l.29-.13,1.64-.69.21-.09c.52-.2,1-.4,1.42-.55-.27-.36-.53-.74-.79-1.13l.07,0s-.07,0-.1,0h0c-.22-.33-.43-.66-.63-1l-.14-.25c-.3-.51-.57-1.05-.84-1.61-.09-.19-.18-.4-.27-.6-.17-.38-.34-.76-.5-1.15,0-.12-.09-.25-.14-.37-1.29-4.07-2.48-9.25-2.68-10.35h0s0-.09,0-.13c-.19-1.23-.35-2.47-.48-3.71h0c-.13-1.27-.24-2.54-.31-3.79h0c-.05-.93-.09-1.85-.11-2.75h0q0-1,0-2h0c0-.52,0-1,0-1.55h0c0-1.31.08-2.62.18-3.92.07-.9.16-1.79.26-2.68q.12-1.06.27-2.13h0v0c0-.31.08-.62.13-.92h0c.11-.72.22-1.43.35-2.14.05-.31.11-.6.17-.9.11-.59.21-1.17.34-1.75h0a.31.31,0,0,1,0-.08c.35-1.65.76-3.26,1.2-4.84h0v-.05a.42.42,0,0,0,0-.1c.22-.81.46-1.6.71-2.39l.15-.43c.23-.72.47-1.44.72-2.15h0l0-.06,0-.11c.12-.34.25-.67.38-1q1.11-2.94,2.44-5.73l.06-.13c.18-.37.37-.74.55-1.12l.57-1.12.18-.35.08-.15c.35-.65.7-1.29,1.07-1.93l.51-.87c.55-.91,1.11-1.8,1.69-2.68l.2-.3q.88-1.33,1.83-2.61l.18-.25h0c.28-.37.57-.72.86-1.08.64-.82,1.3-1.62,2-2.4h0a2.62,2.62,0,0,1,.22-.25h0c.72-.82,1.47-1.61,2.23-2.38l.12-.13h0c.75-.76,1.51-1.49,2.3-2.19h0l.1-.09h0c.55-.49,1.11-1,1.67-1.42l.34-.28c.54-.44,1.09-.86,1.64-1.27l.39-.29c.57-.41,1.13-.81,1.71-1.19l.31-.21c.61-.39,1.22-.78,1.85-1.15h0l.23-.13c.81-.48,1.64-.92,2.48-1.34h0l.66-.33h0c.71-.34,1.42-.66,2.15-1h0l.73-.3h0c.88-.35,1.77-.67,2.66-.95l.24-.08h0l1-.3c.46-.13.92-.25,1.39-.36l1.23-.28c.51-.11,1-.2,1.52-.29l.82-.14h0l.68-.08h0c.77-.1,1.54-.18,2.32-.23h0c.35,0,.69,0,1-.05h0c.85,0,1.7,0,2.55,0h0c.86,0,1.71.07,2.57.15h0l1.15.12h0c.71.08,1.42.2,2.14.32l.26.05c.5.09,1,.18,1.5.29.8.18,1.6.37,2.4.6l1.24.39c1-27.76-5.07-56.08-17.52-78.89-.37-.68-.75-1.34-1.13-2l-1.77,1.65-1.47,1.37-2.76,2.61L326,295.47c-1.37,1.3-2.73,2.62-4.08,3.94l0,0,0,0c-3,2.92-5.74,6.16-8.67,9.15-.74.76-6.83,7.32-6.67,2.79a3.37,3.37,0,0,1,.81-1.77c.27-.37.56-.73.84-1.1,6.84-9,15.25-16.1,23.2-23.72l2-1.94c8.57-8.45,16.55-17.78,25.8-25.35,6.27-5.14,11.71-11,17.43-16.56,2.4-2.34,4.85-4.63,7.44-6.79,3.56-3,7.34-6.22,9-10.77C394.82,218.56,393.62,215.09,391,212.8ZM304.31,111.38a1.37,1.37,0,0,1-2.72-.4c.51-3.49.33-8.39-1.21-11.49s-6.2-4.36-9.5-3.43c-5.68,1.6-7.42,9.67-7.19,14.38a1.38,1.38,0,0,1-1.31,1.44h-.17a1.37,1.37,0,0,1-1.27-1.31c-.29-5.77,1.93-15.11,9.19-17.16,4.34-1.22,10.43.28,12.71,4.85C304.78,102.14,304.84,107.75,304.31,111.38Zm-88.19,14.7c1.36-6.73,6.94-9,13.2-9.49a16.74,16.74,0,0,1,10.4,2.64,8.34,8.34,0,0,1,4.27,5.86,46.13,46.13,0,0,1,25,14.83c15.7,18.23,1.3,43.37-17.92,52.13-16.31,7.44-54.76,7.93-62.87-14.43C178.92,151.93,194.93,132.55,216.12,126.08Zm-34.18-9.48a1.38,1.38,0,0,1-1.56-1.17c-.68-4.94-2.82-9.06-5.88-11.32a11,11,0,0,0-8.64-1.85,9.51,9.51,0,0,0-6.33,4,15.79,15.79,0,0,0-2.3,11.56,1.37,1.37,0,0,1-1.1,1.6,2.11,2.11,0,0,1-.35,0,1.38,1.38,0,0,1-1.25-1.13,18.59,18.59,0,0,1,2.75-13.63,12.25,12.25,0,0,1,8.14-5.19,13.86,13.86,0,0,1,10.72,2.36c3.65,2.69,6.19,7.49,7,13.15A1.37,1.37,0,0,1,181.94,116.6Z"/><path class="cls-6" d="M372.45,252.55c-1,.93-1.92,1.87-2.89,2.79,1-.92,1.93-1.86,2.89-2.79l1.21-1.16Z"/><path class="cls-6" d="M378.35,402.93c-.15-1.15-.34-2.3-.57-3.43C378,400.62,378.16,401.76,378.35,402.93Z"/><path class="cls-6" d="M268.22,489.15a.88.88,0,0,1-.05-.15c.08.27.17.54.28.81A5.75,5.75,0,0,1,268.22,489.15Z"/><path class="cls-6" d="M268.73,490.52c-.05-.1-.09-.2-.13-.29.15.34.31.69.49,1Q268.9,490.9,268.73,490.52Z"/><path class="cls-6" d="M269.39,491.83l-.17-.32.29.52Z"/><path class="cls-6" d="M267.77,487c0-.19,0-.38,0-.57,0,.27,0,.55.07.82Z"/><path class="cls-6" d="M267.87,487.72c0,.24.09.48.15.71C268,488.2,267.91,488,267.87,487.72Z"/><path class="cls-6" d="M267.87,487.72c0-.16-.05-.33-.07-.49,0,.12,0,.24,0,.36Z"/><path class="cls-6" d="M267.73,486.41a1.93,1.93,0,0,1,0-.24,1.48,1.48,0,0,0,0,.21Z"/><path class="cls-6" d="M267.72,486.17c0-.15,0-.31,0-.46s0-.34,0-.51,0-.28,0-.41A10.62,10.62,0,0,0,267.72,486.17Z"/><path class="cls-6" d="M267.78,484.79c0-.1,0-.2,0-.3h0A2.83,2.83,0,0,0,267.78,484.79Z"/><path class="cls-6" d="M268.6,490.23l-.15-.42a.9.9,0,0,0,.08.23Z"/><path class="cls-6" d="M269.22,491.51c-.05-.08-.08-.16-.13-.24a.83.83,0,0,1,.07.13Z"/><path class="cls-6" d="M268.17,489c-.06-.19-.1-.38-.15-.57,0,.11,0,.21.07.32A2.41,2.41,0,0,0,268.17,489Z"/><path class="cls-6" d="M269.51,492q.32.54.69,1.08C270,492.75,269.73,492.39,269.51,492Z"/><path class="cls-6" d="M355.4,370.69c.44.19.87.41,1.31.62a36.52,36.52,0,0,1,5.05,3.06,36.59,36.59,0,0,0-5.05-3.07C356.27,371.08,355.84,370.88,355.4,370.69Z"/><path class="cls-6" d="M372.14,388.58a36.57,36.57,0,0,0-15.34-13.79,28,28,0,0,0-9-2.48c-11-1.11-22.09,2.53-31.63,9-7.39,5.06-13,14-16.81,23.08-4.19,9.87-5.41,21.37-4.32,32.33a72.72,72.72,0,0,0,2.7,14.23c.73,2.37,5,9.82,3.76,12.21-1.85,3.64-6.86,4.37-9.73,5.9-3.93,2.1-7.88,4.18-11.79,6.37a15.26,15.26,0,0,0-3.25,2.37,14.19,14.19,0,0,0-2.67,3.7,17.86,17.86,0,0,0-1.9,9.11c.07,1.14.2,2.45-.46,3.26a1.22,1.22,0,0,1-.45.34c4.26,4,12.15,2.2,17.82,1,1.13-.24,2.17-.45,3.08-.58,12.39-1.81,24.8-3.19,37.27-3.91,8.13-.46,36,7.85,29.23-12.86-2.31-7.09-6.95-13-12.65-16.14a61.13,61.13,0,0,0,26.83-26.65,57.13,57.13,0,0,0,5.73-30.47A47.34,47.34,0,0,0,372.14,388.58Z"/><path class="cls-6" d="M378.35,402.93c.07.57.13,1.15.19,1.72a.43.43,0,0,1,0,.11Q378.47,403.85,378.35,402.93Z"/><path class="cls-6" d="M271.21,494.26h0c-.13-.13-.28-.25-.4-.39C271,494,271.08,494.13,271.21,494.26Z"/><path class="cls-6" d="M355.4,370.68q-.84-.37-1.68-.69l.34.13Z"/><path class="cls-6" d="M353.23,369.8l-.81-.29c.43.15.87.31,1.3.48Z"/><path class="cls-7" d="M262.2,65.34c.84-3.74,3.68-5.81,6.41-8,3.28-2.58,6.38-5.28,5.59-11.15,0-.2-.05-.39-.09-.6-18.35-1.94-37.28-1.22-55.46.69-11.19,1.17-23.53,2.11-36,3.87,1.53,3.88,3.68,8.1,3.32,14-.6,9.74-8.72,19.17,2,28.15,8.93,7.48,14.54-3.18,23.36-7.17,10.69-4.83,13.52-2.22,21.13,6.22,6.17,6.85,11.08,17.14,21.13,17.78,10.49.68,18.75-8.62,19-19C272.79,80.73,260.41,73.28,262.2,65.34Z"/><path class="cls-8" d="M286.73,394.56a367.79,367.79,0,0,0-12.56-84.93c-4.22-15.5-9.81-31-18.05-43.66a113.89,113.89,0,0,1-14,3.87,58.67,58.67,0,0,1-15.06,1.26,13.67,13.67,0,0,1-5,7.36,15.09,15.09,0,0,1-6.27,2.78c-5.61,1.15-12.1-.31-15.66-4.56A12.36,12.36,0,0,1,198.34,264a11.74,11.74,0,0,1,1.45-2.38,56,56,0,0,1-5.66-4.61,40.73,40.73,0,0,1-8-9.91c-.21-.38-.4-.75-.59-1.13q-1,1.83-2.3,4.1A379.09,379.09,0,0,0,164,291l.17.09c-8.52,21.32-16.47,47.05-19.05,73-2,20.1-.77,40.32,5.93,58.68,0,0,10.42,33.82,46.32,52a102.89,102.89,0,0,0,31.75,9.91l2.35.32a106.29,106.29,0,0,0,14,.86c16.8-6.66,31-20.94,37-43C286.69,427.4,287.24,410.83,286.73,394.56Z"/><path class="cls-8" d="M251.09,192.05c19.22-8.76,33.62-33.9,17.92-52.13a46.13,46.13,0,0,0-25-14.83,6.41,6.41,0,0,1-2,6.11c1.39-1.25-1.16,1.46-1.58,1.87a12.72,12.72,0,0,1-3.41,2.32,22.4,22.4,0,0,1-4,1.62,12.4,12.4,0,0,0,0,2.36,17.79,17.79,0,0,0,2.59,7.35c2.49,3.88,6.47,5.89,10.8,4.21,1.93-.75,3.43,2.19,2,3.62-1.62,1.58-2.41,2.74-4.66,3.25a9.15,9.15,0,0,1-4.73-.15,16.13,16.13,0,0,1-7.94-6,23.41,23.41,0,0,1-2-3.36c-3.16,8.14-9.12,14.64-17.09,11.39a2,2,0,0,1,.5-3.93c5.93-.73,9.68-2.67,11.51-9.21a31.1,31.1,0,0,0,.81-8.62,10.06,10.06,0,0,1-4.19-1.4c-2.58-1.62-5-5.22-4.74-8.59a16.82,16.82,0,0,1,.26-1.85c-21.19,6.47-37.2,25.85-27.9,51.54C196.33,200,234.78,199.49,251.09,192.05Z"/><path class="cls-9" d="M175.36,51.35c-7.08-11.13-19.31-22.89-29.63-28.57s-12-5.23-16.65,6A105.37,105.37,0,0,0,121,74.34C135.7,61,155.34,54.79,175.36,51.35Z"/><path class="cls-9" d="M334.34,70c-3.82-12.63-9.53-25.36-14-36.61-4.15-10.49-7.84-21.85-17.52-18.65-7.58,2.51-20.23,17.43-28.32,30.91q4,.44,8,1A109.94,109.94,0,0,1,334.34,70Z"/><path class="cls-9" d="M388.5,117.7c-6.32-3.31-14.64-2.38-22.13-.87-2.63.53-5.16,1.13-7.46,1.64-10.05,2.25-19.46,6.56-28.83,10.89-2.08,1-1.62,4.47.83,4.31,9.5-.6,18.95-1.43,28.42-2.21,3.18-.25,6.36-.56,9.53-.81,1.65-.12,3.29-.24,4.94-.32,4.71-.23,9.69.24,14.07-1.8C392.06,126.58,393.11,120.11,388.5,117.7Z"/><path class="cls-9" d="M368.84,144.08c-3.44-.36-6.82-.54-9.78-.82-9.67-.9-18.48-.78-26.58,5.06a2.86,2.86,0,0,0,1,5c8.86,1.8,17.62,3.85,26.61,5.24,1.85.29,3.9.61,6,.87,7.32.87,15.67.87,20.58-4.66a3.51,3.51,0,0,0-.37-4.7C381.86,146.1,375.25,144.76,368.84,144.08Z"/><path class="cls-9" d="M119.71,128.59a82.75,82.75,0,0,0-17-3.16c-1.87-.18-3.85-.38-5.89-.54-8.38-.65-17.84-.72-25,3.24-1.82,1-1.28,3.82.24,4.68,6.67,3.76,15.91,3.47,23.94,3.65,1.55,0,3,.08,4.48.18,9.89.7,20,2.27,29.7,3.84,2.26.36,4-2.8,2.1-4.44C128.27,132.54,124.88,130.21,119.71,128.59Z"/><path class="cls-9" d="M128,153.52c-8.46-3.34-18.09-1.24-26.94-.48-1.34.12-2.68.25-4,.39-3.59.36-7.16.75-10.76.94-4.1.21-7.55.8-10.62,3.8-1.6,1.54-1,4.07.26,5.46,5,5.66,16.05,3.52,23.47,2.18l2.41-.41c8.67-1.39,18.78-2.7,26.41-7.68C129.65,156.8,129.64,154.15,128,153.52Z"/><path class="cls-9" d="M176.14,101.9a13.86,13.86,0,0,0-10.72-2.36,12.25,12.25,0,0,0-8.14,5.19,18.59,18.59,0,0,0-2.75,13.63,1.38,1.38,0,0,0,1.25,1.13,2.11,2.11,0,0,0,.35,0,1.37,1.37,0,0,0,1.1-1.6,15.79,15.79,0,0,1,2.3-11.56,9.51,9.51,0,0,1,6.33-4,11,11,0,0,1,8.64,1.85c3.06,2.26,5.2,6.38,5.88,11.32a1.38,1.38,0,0,0,2.73-.38C182.33,109.39,179.79,104.59,176.14,101.9Z"/><path class="cls-9" d="M290.13,93.41c-7.26,2-9.48,11.39-9.19,17.16a1.37,1.37,0,0,0,1.27,1.31h.17a1.38,1.38,0,0,0,1.31-1.44c-.23-4.71,1.51-12.78,7.19-14.38,3.3-.93,7.9.23,9.5,3.43s1.72,8,1.21,11.49a1.37,1.37,0,0,0,2.72.4c.53-3.63.47-9.24-1.47-13.12C300.56,93.69,294.47,92.19,290.13,93.41Z"/><path class="cls-9" d="M246.41,150.93c-4.33,1.68-8.31-.33-10.8-4.21a17.79,17.79,0,0,1-2.59-7.35,12.4,12.4,0,0,1,0-2.36,22.4,22.4,0,0,0,4-1.62,12.72,12.72,0,0,0,3.41-2.32c.42-.41,3-3.12,1.58-1.87a6.41,6.41,0,0,0,2-6.11,8.34,8.34,0,0,0-4.27-5.86,16.74,16.74,0,0,0-10.4-2.64c-6.26.46-11.84,2.76-13.2,9.49a16.82,16.82,0,0,0-.26,1.85c-.27,3.37,2.16,7,4.74,8.59a10.06,10.06,0,0,0,4.19,1.4,31.1,31.1,0,0,1-.81,8.62c-1.83,6.54-5.58,8.48-11.51,9.21a2,2,0,0,0-.5,3.93c8,3.25,13.93-3.25,17.09-11.39a23.41,23.41,0,0,0,2,3.36,16.13,16.13,0,0,0,7.94,6,9.15,9.15,0,0,0,4.73.15c2.25-.51,3-1.67,4.66-3.25C249.84,153.12,248.34,150.18,246.41,150.93Z"/></svg>