<svg id="Layer_1" data-name="Layer 1" xmlns="http://www.w3.org/2000/svg" viewBox="0 0 500 500"><defs><style>.cls-1{fill:#e32c2a;}.cls-2{fill:#e9e236;}.cls-3{fill:#ba8f2e;}.cls-4{fill:#e8b497;}.cls-5{fill:#ebcda2;}.cls-6{fill:#92321f;}.cls-7{fill:#ede0d8;}.cls-8{fill:#1d1c1a;}</style></defs><title>Artboard 1</title><path class="cls-1" d="M241.06,249.29a330.77,330.77,0,0,1-44-2.07,80.54,80.54,0,0,1-9.42-1.59c-.55-.13-1.11-.24-1.67-.38l-.91-.24c.15.34.31.67.47,1s.34.66.52,1a40.26,40.26,0,0,0,8,10.05,56,56,0,0,0,5.66,4.61c5.18-6.49,17.43-7.26,23.45-1.9,3.66,3.26,4.82,7.43,3.84,11.34a58.67,58.67,0,0,0,15.06-1.26A114.61,114.61,0,0,0,256,266c11.24-3.93,22.18-10.15,29.8-20.5a8.94,8.94,0,0,0,1.38-3.44C272.36,246.78,256.78,248.83,241.06,249.29Z"/><path class="cls-2" d="M223.24,259.76c-6-5.36-18.27-4.59-23.45,1.9a11.74,11.74,0,0,0-1.45,2.38,11.51,11.51,0,0,0-.69,2.13,12.39,12.39,0,0,0,2.48,10.51c3.56,4.25,10.05,5.71,15.66,4.56l.17,0a15,15,0,0,0,6.1-2.74,13.67,13.67,0,0,0,5-7.36C228.06,267.19,226.9,263,223.24,259.76ZM209,272.65c-.46,1-1.23,2.77-2.41,3.3a1.49,1.49,0,0,1-.56.14.91.91,0,0,1-.91-.3,1.46,1.46,0,0,1-.06-1.11,11.46,11.46,0,0,1,1.06-2.43,34.22,34.22,0,0,1,2-3.26c.38-.6.73-1.3,1.1-2a7.12,7.12,0,0,1,1.87-2.46c-2.75-1.49-.2-5.4,2.36-4.93,1.53.28,3.34,1.7,3.28,3.46a2.78,2.78,0,0,1-3,2.88c-.38,0-.83-.11-1-.46a12.44,12.44,0,0,1-1,1.93l-.3.5A46.47,46.47,0,0,0,209,272.65Z"/><path class="cls-3" d="M213.53,259.62c-2.56-.47-5.11,3.44-2.36,4.93A7.12,7.12,0,0,0,209.3,267c-.37.68-.72,1.38-1.1,2a34.22,34.22,0,0,0-2,3.26,11.46,11.46,0,0,0-1.06,2.43,1.46,1.46,0,0,0,.06,1.11.91.91,0,0,0,.91.3,1.49,1.49,0,0,0,.56-.14c1.18-.53,2-2.3,2.41-3.3a46.47,46.47,0,0,1,2.53-4.72l.3-.5a12.44,12.44,0,0,0,1-1.93c.15.35.6.43,1,.46a2.78,2.78,0,0,0,3-2.88C216.87,261.32,215.06,259.9,213.53,259.62Z"/><path class="cls-4" d="M192.58,472.28A94.5,94.5,0,0,1,172.81,457q-.67-.67-1.32-1.35a99.9,99.9,0,0,1-8.86-10.7c-1.54-2.17-2.92-4.27-4.12-6.26q-1.09-1.79-2-3.45l-.59-1.09c-.38-.71-.74-1.4-1.07-2.06-.5-1-1-1.93-1.35-2.8-.27-.58-.51-1.12-.73-1.63s-.43-1-.61-1.44-.34-.84-.48-1.21c-.57-1.46-.82-2.28-.82-2.28-.4-1.09-.77-2.19-1.13-3.29l-.33-1.05c-.24-.76-.47-1.53-.7-2.3-.11-.4-.23-.8-.34-1.21-.2-.74-.4-1.49-.59-2.24l-.3-1.17c-.2-.86-.4-1.73-.59-2.6-.05-.27-.12-.53-.18-.8-.23-1.14-.45-2.29-.66-3.44l-.12-.76c-.16-.9-.31-1.8-.44-2.71-.06-.39-.11-.78-.16-1.17-.11-.79-.21-1.58-.31-2.37-.05-.4-.09-.81-.14-1.21q-.13-1.24-.24-2.49c0-.35-.07-.7-.1-1.05q-.28-3.54-.4-7.11c0-.32,0-.64,0-1,0-.87,0-1.74,0-2.62,0-.39,0-.78,0-1.16,0-.84,0-1.69,0-2.53,0-.37,0-.74,0-1.11,0-1,.06-1.93.1-2.9,0-.23,0-.45,0-.68.06-1.22.12-2.45.21-3.67l0-.47c.07-1.05.15-2.09.24-3.14,0-.34.07-.68.1-1s.07-.86.11-1.29c-6.65,4.27-12.59,13.58-15.3,20.42-7.84,19.8-2.95,41.91,6.1,59.79,3.76,7.43,8.59,14,13.54,20.26-4.17-1.12-8.46-2.25-12.69-1.47-6.42,1.18-13.63,9.25-5.83,15.4,2.85,2.25,6.37,2.7,9.75,3,11.14,1.13,22.33,1.78,33.51,1.86,7.79.06,17.55,2.59,22.5-6.8.32-.61.6-1.25.86-1.89l-.7-.35Q194.56,473.42,192.58,472.28Z"/><path class="cls-4" d="M473.17,195c-2.47-7.36-7-11.85-12.66-14.24-16.95-7.19-43.86,4.51-54.52,14.37-20.58,19.06-32.22,48.13-39.25,78.12a388.55,388.55,0,0,0-10,98.1,36.59,36.59,0,0,1,5.05,3.07,36.52,36.52,0,0,0-5.05-3.06c-.44-.21-.87-.43-1.31-.62h0l-1.34-.56-.83-.32-.81-.29-.35-.12-1.24-.39c-.8-.23-1.6-.42-2.4-.6l-.76-.16c-.33-.07-.67-.12-1-.18-.72-.12-1.43-.24-2.14-.32h0l-1.15-.12h0c-.66-.06-1.33-.11-2-.13l-1.15,0c-.67,0-1.35,0-2,0h0c-.35,0-.69,0-1,.05h0c-.78,0-1.55.13-2.32.23h0l-.68.08h0l-.82.14c-.51.09-1,.18-1.52.29l-1.23.28c-.47.11-.93.23-1.39.36l-1,.3h0l-.24.08-.39.13c-.76.25-1.52.52-2.27.82h0l-.73.3h0c-.73.3-1.44.62-2.15,1h0l-.66.33h0c-.77.38-1.53.79-2.27,1.22l-.21.12-.23.13h0c-.63.37-1.24.76-1.85,1.15l-.31.21c-.58.38-1.15.78-1.71,1.19l-.39.29c-.55.41-1.1.83-1.64,1.27l-.34.28c-.56.46-1.12.93-1.67,1.42h0l-.1.09h0c-.79.7-1.55,1.43-2.3,2.19h0l-.12.13-.14.13c-.71.73-1.41,1.48-2.09,2.25h0a2.62,2.62,0,0,0-.22.25h0c-.73.84-1.45,1.71-2.15,2.61l-.68.87h0l-.18.25-.41.56c-.82,1.13-1.61,2.29-2.36,3.48l-.19.29c-.26.41-.51.84-.76,1.26l-.51.87c-.35.62-.69,1.23-1,1.86l0,.07-.08.15-.18.35,0,.07a73.73,73.73,0,0,0-3.94,9l0,.05,0,.11,0,.06h0c-.25.71-.49,1.43-.72,2.15l-.15.43c-.23.73-.45,1.46-.66,2.2a1.05,1.05,0,0,0-.05.19.42.42,0,0,1,0,.1v.05h0c-.44,1.58-.85,3.19-1.2,4.84a.31.31,0,0,0,0,.08h0c-.13.58-.23,1.16-.34,1.75-.06.3-.12.59-.17.9-.12.71-.24,1.43-.35,2.14h0l-.12.81v.13h0q-.15,1.06-.27,2.13c-.1.89-.19,1.78-.26,2.68-.1,1.3-.15,2.61-.18,3.92h0c0,.51,0,1,0,1.55h0q0,1,0,2h0c0,.9.06,1.82.11,2.75h0c0,.65.08,1.29.14,1.94s.1,1.24.17,1.85h0c.12,1.11.26,2.22.42,3.31l.06.4s0,.09,0,.13c.2,1.11,1.42,6.41,2.72,10.5a28.25,28.25,0,0,0,1.71,3.58l.14.25c.2.35.41.68.63,1h0s.07,0,.1,0l-.07,0c.26.39.52.77.79,1.13-.42.15-.9.35-1.42.55l-.21.09-1.64.69-.29.13c-.59.26-1.21.54-1.86.85a1.92,1.92,0,0,0-.25.12c-1.38.65-2.86,1.39-4.38,2.22l-.23.12c-.73.4-1.47.83-2.22,1.26l-.33.2c-.74.44-1.48.91-2.22,1.38l-.26.18c-.77.51-1.53,1-2.27,1.56-.48.36-1,.72-1.44,1.1l-.3.24-.13.11c-3.28,2.68-6.82,6.61-8.28,11.2a12.77,12.77,0,0,0-.38,1.38c0,.23,0,.47-.06.7s0,.34,0,.51,0,.44,0,.67,0,.4,0,.6,0,.41.07.61a10,10,0,0,0,.25,1.16,3.1,3.1,0,0,0,.13.4,9.37,9.37,0,0,0,.31.89c.06.16.13.32.2.48s.27.59.43.88l.23.43c.24.42.51.85.81,1.28l0,0a5.49,5.49,0,0,0,.61.73c.12.14.25.27.38.4a1.41,1.41,0,0,0,.47-.35c.66-.81.53-2.12.46-3.26a17.86,17.86,0,0,1,1.9-9.11,14.19,14.19,0,0,1,2.67-3.7,15.26,15.26,0,0,1,3.25-2.37c3.91-2.19,7.86-4.27,11.79-6.37,2.87-1.53,7.88-2.26,9.73-5.9,1.22-2.39-3-9.84-3.76-12.21a72.72,72.72,0,0,1-2.7-14.23c-1.09-11,.13-22.46,4.32-32.33,3.85-9,9.42-18,16.81-23.08,9.54-6.51,20.67-10.15,31.63-9a28,28,0,0,1,9,2.48,36.57,36.57,0,0,1,15.34,13.79,47.18,47.18,0,0,1,6.42,16.18q-.09-.92-.21-1.83h0c-.19-1.17-.37-2.31-.57-3.43h0c-.19-.91-.4-1.8-.64-2.69l0-.1c-.24-.91-.52-1.81-.82-2.69v0c-.26-.74-.54-1.47-.83-2.19-.1-.24-.21-.47-.31-.7q-.3-.72-.63-1.41l-.41-.82c-.21-.41-.42-.82-.64-1.22s-.31-.56-.48-.84-.42-.72-.63-1.07c1.73-23.63,2.13-47.45,5.56-70.8,2.44-16.67,6.64-33.24,14.69-47.22s18.19-19.6,30.3-26.73c13.12-7.72,27.46-2.13,40.57-9.48C474.93,225.09,478.16,209.82,473.17,195Z"/><path class="cls-4" d="M137.88,326.09a70,70,0,0,1,16.22-13.57c.85-.5,1.72-1,2.59-1.46.08-.23.15-.46.23-.69l.27-.81,1-2.82.15-.44q1.14-3.29,2.32-6.48l.27-.74c.3-.8.6-1.6.91-2.39.1-.29.21-.57.32-.85l.9-2.34c.1-.24.2-.49.29-.74l1.17-2.94v0l1.22-3,.27-.64c.31-.74.61-1.48.92-2.21.13-.29.26-.59.38-.88.28-.66.56-1.3.84-1.94.12-.3.25-.6.38-.89l.87-2,.33-.72c.39-.88.77-1.75,1.16-2.6l.24-.51c.3-.67.61-1.34.92-2,.14-.32.29-.64.44-1,.24-.5.47-1,.71-1.51.16-.34.31-.67.47-1l.67-1.41c.16-.33.32-.65.47-1l.68-1.4c.23-.47.46-.93.68-1.39s.51-1,.76-1.52.38-.75.56-1.13.32-.63.48-.93.39-.79.59-1.17.27-.54.41-.8.41-.79.61-1.18l.33-.63c.43-.84.86-1.65,1.28-2.44-32.17,10.12-61.62,22.76-77.26,50.39-3.54,6.27-6.27,13.76-2.94,21,3.6,7.85,13.32,11.76,21.91,11.89C132.83,337.41,132.76,332,137.88,326.09Z"/><path class="cls-4" d="M272.47,402.26a96.38,96.38,0,0,0,9.38-12c1.49-2.2,2.88-4.41,4.17-6.55,1.53-2.54,2.92-5,4.16-7.25.83-1.52,1.65-3.07,2.45-4.63.23-.45.45-.91.68-1.37.56-1.11,1.12-2.23,1.66-3.35.26-.54.51-1.08.76-1.62.5-1.06,1-2.12,1.47-3.19.26-.58.51-1.16.77-1.75.45-1,.91-2.08,1.35-3.13l.75-1.84c.42-1,.83-2.06,1.24-3.09.25-.65.5-1.3.74-1.95.38-1,.76-2,1.13-3.05l.73-2,1-3c.23-.72.47-1.43.7-2.14.32-1,.63-2,.94-3,.15-.5.32-1,.47-1.49,2-6.6,4-13.18,5.49-20a85.91,85.91,0,0,0,1.71-11c.19-2.36,1.36-6.9.76-9.07-1.12-4.06-2.25-1.42-3,1.7v.05c-.56,2.24-.94,4.7-1,5.12q-1.35,7.71-3.28,15.23a193.18,193.18,0,0,1-9.59,28.22c-3.74,8.71-8.29,16.15-13.12,23.88-.35.57-.7,1.13-1.06,1.69-5.83,9.32-11.47,20.77-18.72,28.51-5.55,5.92-22.17,10-23.14-3.87-.34-4.84,1.77-9.36,3.8-13.53,5-10.21,8-21.18,13.1-31.49,5.33-10.71,8.77-22.49,13.13-33.71q1.18-3,2.43-6c3.76-9,7.76-18,10-27.73.11-.45.22-.89.31-1.35a3.41,3.41,0,0,0,0-1.95c-1.72-4.19-4.58,4.29-4.94,5.29-1.45,3.93-2.63,8-4.16,11.9v0l0,.05c-.69,1.76-1.4,3.52-2.1,5.26l-.77,1.86c0,.09-.07.17-.11.26-.43,1.07-.87,2.14-1.32,3.2-.26.63-.52,1.26-.79,1.89-.48,1.15-1,2.3-1.45,3.44-.28.65-.56,1.29-.83,1.94l-1.4,3.24-.27.64-.88,2-.93,2.15c-3.28,7.52-6.6,15-9.83,22.58a3.09,3.09,0,0,1-.14.32c-.65,1.55-1.31,3.09-2,4.64l-.36.88q-.9,2.15-1.78,4.31c-.15.37-.3.74-.46,1.11-.7,1.75-1.41,3.51-2.1,5.27a.42.42,0,0,1,0,.1c-.27.68-.55,1.37-.84,2.05-.87,2-1.84,4.07-2.84,6.1-2,4.08-4.09,8.17-5.77,12.42-.56,1.42-1.07,2.85-1.51,4.31a42,42,0,0,0-1.12,4.45,35.13,35.13,0,0,0-.58,4.62,15.61,15.61,0,0,0,1.27,7.13,17.55,17.55,0,0,0,.88,1.73,15.72,15.72,0,0,0,1.56,2.27,14,14,0,0,0,1.16,1.27c.36.35.73.69,1.12,1a15,15,0,0,0,1.58,1.11l.65.37c.22.11.43.22.66.32a18.3,18.3,0,0,0,3.54,1.21,17.51,17.51,0,0,0,3.5.42,18.24,18.24,0,0,0,2-.09A24.17,24.17,0,0,0,264.82,409c.54-.38,1.06-.77,1.59-1.17A54.33,54.33,0,0,0,272.47,402.26Z"/><path class="cls-5" d="M181.16,254c-.42.79-.85,1.6-1.28,2.44.44-.84.86-1.65,1.28-2.44.61-1.15,1.21-2.25,1.77-3.29Z"/><path class="cls-5" d="M241.78,485.8c-2.23-.07-4.45-.2-6.68-.4C237.33,485.6,239.55,485.73,241.78,485.8Z"/><path class="cls-5" d="M245.23,485.83c-1.15,0-2.29,0-3.44,0C242.94,485.83,244.08,485.84,245.23,485.83Z"/><path class="cls-5" d="M245.29,485.84h0Z"/><path class="cls-5" d="M179.34,463c-1.57-1.31-3.05-2.64-4.47-4C176.29,460.39,177.77,461.72,179.34,463Z"/><path class="cls-5" d="M265.78,321.6l.88-2,.27-.64C266.55,319.84,266.17,320.72,265.78,321.6Z"/><path class="cls-5" d="M241.51,410.32a15,15,0,0,0,1.58,1.11A15,15,0,0,1,241.51,410.32Z"/><path class="cls-5" d="M253.4,413.66a18.24,18.24,0,0,1-2,.09A18.24,18.24,0,0,0,253.4,413.66Z"/><path class="cls-5" d="M255,346.33c3.23-7.56,6.55-15.06,9.83-22.58C261.57,331.27,258.25,338.75,255,346.33Z"/><path class="cls-5" d="M352.42,369.51c.43.15.87.31,1.3.48l-.49-.19Z"/><path class="cls-5" d="M355.4,370.68q-.84-.37-1.68-.69l.34.13Z"/><path class="cls-5" d="M356.71,371.31a36.52,36.52,0,0,1,5.05,3.06,36.59,36.59,0,0,0-5.05-3.07c-.44-.22-.87-.42-1.31-.61C355.84,370.88,356.27,371.1,356.71,371.31Z"/><path class="cls-5" d="M377.78,399.5c.2,1.12.38,2.26.57,3.43C378.2,401.78,378,400.63,377.78,399.5Z"/><path class="cls-5" d="M268.53,490l.07.19-.15-.42A.9.9,0,0,0,268.53,490Z"/><path class="cls-5" d="M268.09,488.75a2.41,2.41,0,0,0,.08.25c-.06-.19-.1-.38-.15-.57C268,488.54,268.06,488.64,268.09,488.75Z"/><path class="cls-5" d="M268,488.43c-.06-.23-.11-.47-.15-.71C267.91,488,268,488.2,268,488.43Z"/><path class="cls-5" d="M269.16,491.4l.06.11c-.05-.08-.08-.16-.13-.24A.83.83,0,0,1,269.16,491.4Z"/><path class="cls-5" d="M268.6,490.23c.15.34.31.69.49,1q-.19-.37-.36-.75C268.68,490.42,268.64,490.32,268.6,490.23Z"/><path class="cls-5" d="M269.51,492q.32.54.69,1.08C270,492.75,269.73,492.39,269.51,492Z"/><path class="cls-5" d="M269.39,491.83l-.17-.32.29.52Z"/><path class="cls-5" d="M267.8,484.5a2.83,2.83,0,0,0,0,.29c0-.1,0-.2,0-.3Z"/><path class="cls-5" d="M268.17,489c.08.27.17.54.28.81a5.75,5.75,0,0,1-.23-.66A.88.88,0,0,1,268.17,489Z"/><path class="cls-5" d="M267.73,486.41c0,.27,0,.55.07.82l0-.25C267.75,486.79,267.74,486.6,267.73,486.41Z"/><path class="cls-5" d="M267.74,485.2c0-.14,0-.28,0-.41a10.62,10.62,0,0,0-.06,1.38c0-.15,0-.31,0-.46S267.73,485.37,267.74,485.2Z"/><path class="cls-5" d="M267.73,486.38v0a1.93,1.93,0,0,1,0-.24A1.48,1.48,0,0,0,267.73,486.38Z"/><path class="cls-5" d="M267.84,487.59l0,.13c0-.16-.05-.33-.07-.49C267.81,487.35,267.82,487.47,267.84,487.59Z"/><path class="cls-5" d="M378.35,402.93c.07.57.13,1.15.19,1.72a.43.43,0,0,1,0,.11Q378.47,403.85,378.35,402.93Z"/><path class="cls-5" d="M378.54,404.65a47.34,47.34,0,0,0-6.4-16.07,36.57,36.57,0,0,0-15.34-13.79,28,28,0,0,0-9-2.48c-11-1.11-22.09,2.53-31.63,9-7.39,5.06-13,14-16.81,23.08-4.19,9.87-5.41,21.37-4.32,32.33a72.72,72.72,0,0,0,2.7,14.23c.73,2.37,5,9.82,3.76,12.21-1.85,3.64-6.86,4.37-9.73,5.9-3.93,2.1-7.88,4.18-11.79,6.37a15.26,15.26,0,0,0-3.25,2.37,14.19,14.19,0,0,0-2.67,3.7,17.86,17.86,0,0,0-1.9,9.11c.07,1.14.2,2.45-.46,3.26a1.22,1.22,0,0,1-.45.34c4.26,4,12.15,2.2,17.82,1,1.13-.24,2.17-.45,3.08-.58,12.39-1.81,24.8-3.19,37.27-3.91,8.13-.46,36,7.85,29.23-12.86-2.31-7.09-6.95-13-12.65-16.14a61.13,61.13,0,0,0,26.83-26.65A57.13,57.13,0,0,0,378.54,404.65Z"/><path class="cls-5" d="M271.21,494.26h0c-.13-.13-.28-.25-.4-.39C271,494,271.08,494.13,271.21,494.26Z"/><path class="cls-5" d="M276.46,471.92l.13-.11.1-.08.34-.27,1.12-.85.22-.16c.73-.53,1.48-1,2.23-1.54l.24-.16,0,0c.73-.47,1.47-.93,2.2-1.37l.33-.2c.73-.43,1.46-.84,2.18-1.24l.11-.06.16-.08c1.52-.83,3-1.57,4.38-2.22l.25-.12h0c.65-.31,1.27-.59,1.86-.85l.29-.13,1.64-.69.21-.09c.52-.2,1-.4,1.42-.55-.27-.36-.53-.74-.79-1.13l.07,0s-.07,0-.1,0h0c-.22-.33-.43-.66-.63-1l-.14-.25c-.3-.51-.57-1.05-.84-1.61-.09-.19-.18-.4-.27-.6-.17-.38-.34-.76-.5-1.15,0-.12-.09-.25-.14-.37-1.29-4.07-2.48-9.25-2.68-10.35h0s0-.09,0-.13c-.19-1.23-.35-2.47-.48-3.71h0c-.13-1.27-.24-2.54-.31-3.79h0c-.05-.93-.09-1.85-.11-2.75h0q0-1,0-2h0c0-.52,0-1,0-1.55h0c0-1.31.08-2.62.18-3.92.07-.9.16-1.79.26-2.68q.12-1.06.27-2.13h0v0c0-.31.08-.62.13-.92h0c.11-.72.22-1.43.35-2.14.05-.31.11-.6.17-.9.11-.59.21-1.17.34-1.75h0a.31.31,0,0,1,0-.08c.35-1.65.76-3.26,1.2-4.84h0v-.05a.42.42,0,0,0,0-.1c.22-.81.46-1.6.71-2.39l.15-.43c.23-.72.47-1.44.72-2.15h0l0-.06,0-.11c.12-.34.25-.67.38-1q1.11-2.94,2.44-5.73l.06-.13c.18-.37.37-.74.55-1.12l.57-1.12.18-.35.08-.15c.35-.65.7-1.29,1.07-1.93l.51-.87c.55-.91,1.11-1.8,1.69-2.68l.2-.3q.88-1.33,1.83-2.61l.18-.25h0c.28-.37.57-.72.86-1.08.64-.82,1.3-1.62,2-2.4h0a2.62,2.62,0,0,1,.22-.25h0c.72-.82,1.47-1.61,2.23-2.38l.12-.13h0c.75-.76,1.51-1.49,2.3-2.19h0l.1-.09h0c.55-.49,1.11-1,1.67-1.42l.34-.28c.54-.44,1.09-.86,1.64-1.27l.39-.29c.57-.41,1.13-.81,1.71-1.19l.31-.21c.61-.39,1.22-.78,1.85-1.15h0l.23-.13c.81-.48,1.64-.92,2.48-1.34h0l.66-.33h0c.71-.34,1.42-.66,2.15-1h0l.73-.3h0c.88-.35,1.77-.67,2.66-.95l.24-.08h0l1-.3c.46-.13.92-.25,1.39-.36l1.23-.28c.51-.11,1-.2,1.52-.29l.82-.14h0l.68-.08h0c.77-.1,1.54-.18,2.32-.23h0c.35,0,.69,0,1-.05h0c.85,0,1.7,0,2.55,0h0c.86,0,1.71.07,2.57.15h0l1.15.12h0c.71.08,1.42.2,2.14.32l.26.05c.5.09,1,.18,1.5.29.8.18,1.6.37,2.4.6l1.24.39c1-27.76-5.07-56.08-17.52-78.89A327,327,0,0,0,307.88,250a78.81,78.81,0,0,0-10.76-11.61A110.46,110.46,0,0,0,324.81,222l.31-.26C342.88,207.08,359,185,365.74,160.9c-2.35-.44-4.6-1-6.61-1.46-8.85-2.08-17.43-4.82-26.12-7.3a2.87,2.87,0,0,1-.62-5.07c8.53-5.18,17.32-4.62,26.89-3,2.85.49,6.11.92,9.41,1.52a80.28,80.28,0,0,0,.35-12.31c-3.39,0-6.78.15-10.17.21-9.51.16-19,.39-28.5.39-2.46,0-2.7-3.53-.56-4.36,9.63-3.72,19.29-7.42,29.47-9,2.39-.37,5-.82,7.74-1.19a72,72,0,0,0-2.61-8.45C358.28,94.64,347.52,80.76,334.34,70a109.94,109.94,0,0,0-51.8-23.31q-4-.6-8-1l-.41,0c0,.21.06.4.09.6.79,5.87-2.31,8.57-5.59,11.15-2.73,2.14-5.57,4.21-6.41,8-1.79,7.94,10.59,15.39,10.39,24.87-.22,10.4-8.48,19.7-19,19-10.05-.64-15-10.93-21.13-17.78-7.61-8.44-10.44-11-21.13-6.22-8.82,4-14.43,14.65-23.36,7.17-10.71-9-2.59-18.41-2-28.15.36-6-1.79-10.17-3.32-14-2.44.35-4.89.73-7.33,1.15-20,3.44-39.66,9.61-54.38,23a67.87,67.87,0,0,0-15.41,20.58,96.09,96.09,0,0,0-9.28,36.28c1.76-.19,3.47-.36,5.1-.52a82.88,82.88,0,0,1,17.25-.15c5.38.6,9.15,2.24,13.84,4.89,2.19,1.24,1.08,4.68-1.21,4.76-9.86.33-20,.72-29.88,1.93-1.67.2-3.43.49-5.24.81a116,116,0,0,0,2,16.82l2.79-.83c8.53-2.44,17.59-6.35,26.53-4.7,1.7.32,2.22,2.92,1,4.08-6.53,6.36-16.21,9.58-24.45,12.61-.87.32-1.83.69-2.85,1.09,6.69,21.77,19.83,41.1,38.51,52.28,13.94,8.33,29.49,16.66,45.43,20.74l.91.24c.56.14,1.12.25,1.67.38a80.54,80.54,0,0,0,9.42,1.59,330.77,330.77,0,0,0,44,2.07c15.72-.46,31.3-2.51,46.07-7.2a8.94,8.94,0,0,1-1.38,3.44c-7.62,10.35-18.56,16.57-29.8,20.5,7.44,11.44,12.71,25.22,16.77,39.21,0-.09.08-.17.11-.26l.77-1.86q1.06-2.62,2.1-5.26l0-.05v0c1.53-3.89,2.71-8,4.16-11.9.36-1,3.22-9.48,4.94-5.29a3.41,3.41,0,0,1,0,1.95c-.09.46-.2.9-.31,1.35-2.26,9.77-6.26,18.7-10,27.73q-1.25,3-2.43,6c-4.36,11.22-7.8,23-13.13,33.71-5.13,10.31-8.11,21.28-13.1,31.49-2,4.17-4.14,8.69-3.8,13.53,1,13.87,17.59,9.79,23.14,3.87,7.25-7.74,12.89-19.19,18.72-28.51.36-.56.71-1.12,1.06-1.69,4.83-7.73,9.38-15.17,13.12-23.88a193.18,193.18,0,0,0,9.59-28.22q1.94-7.51,3.28-15.23c.08-.42.46-2.88,1-5.12v-.05c.79-3.12,1.92-5.76,3-1.7.6,2.17-.57,6.71-.76,9.07a85.91,85.91,0,0,1-1.71,11c-1.46,6.8-3.52,13.38-5.49,20-.15.5-.32,1-.47,1.49-.31,1-.62,2-.94,3-.23.71-.47,1.42-.7,2.14l-1,3-.73,2c-.37,1-.75,2-1.13,3.05-.24.65-.49,1.3-.74,1.95-.41,1-.82,2.06-1.24,3.09l-.75,1.84c-.44,1.05-.9,2.09-1.35,3.13-.26.59-.51,1.17-.77,1.75-.48,1.07-1,2.13-1.47,3.19-.25.54-.5,1.08-.76,1.62-.54,1.12-1.1,2.24-1.66,3.35-.23.46-.45.92-.68,1.37-.8,1.56-1.62,3.11-2.45,4.63-1.24,2.25-2.63,4.71-4.16,7.25-1.29,2.14-2.68,4.35-4.17,6.55,1.49-2.2,2.88-4.41,4.17-6.55.22,3.6.38,7.2.5,10.81.51,16.27,0,32.84-4.24,48.28-6,22.06-20.19,36.34-37,43a101.54,101.54,0,0,0,22.75-2.68,12.16,12.16,0,0,0-.25,1.34,13.26,13.26,0,0,1,.38-1.37C269.64,478.53,273.18,474.6,276.46,471.92ZM174.05,110a15.41,15.41,0,0,1-2.62,4.39c-2.09,2.7-7,2.7-9.12,0s-3.67-6-3.25-9.78c.39-3.59.89-6.93,3.38-9.62a6,6,0,0,1,8.85,0,14.26,14.26,0,0,1,3.39,9.62A17.7,17.7,0,0,1,174.05,110ZM304,99.42c-.34,3.87-1.17,9.08-5,10.86-2,.91-3.74,1.45-5.91.82a8,8,0,0,1-4.58-3.75c-2.13-3.57-1-7.56.4-11.07l-.81,2A32.32,32.32,0,0,1,290,94.05a8.42,8.42,0,0,1,2.68-3.19c2-1.53,5.17-2.06,7.18-.42,1.74,1.41,3.11,2.6,3.69,5.07A12.69,12.69,0,0,1,304,99.42Zm-87.89,26.66c1.36-6.73,6.94-9,13.2-9.49a16.74,16.74,0,0,1,10.4,2.64,8.34,8.34,0,0,1,4.27,5.86,46.13,46.13,0,0,1,25,14.83c15.7,18.23,1.3,43.37-17.92,52.13-16.31,7.44-54.76,7.93-62.87-14.43C178.92,151.93,194.93,132.55,216.12,126.08Z"/><path class="cls-6" d="M262.2,65.34c.84-3.74,3.68-5.81,6.41-8,3.28-2.58,6.38-5.28,5.59-11.15,0-.2-.05-.39-.09-.6-18.35-1.94-37.28-1.22-55.46.69-11.19,1.17-23.53,2.11-36,3.87,1.53,3.88,3.68,8.1,3.32,14-.6,9.74-8.72,19.17,2,28.15,8.93,7.48,14.54-3.18,23.36-7.17,10.69-4.83,13.52-2.22,21.13,6.22,6.17,6.85,11.08,17.14,21.13,17.78,10.49.68,18.75-8.62,19-19C272.79,80.73,260.41,73.28,262.2,65.34Z"/><path class="cls-7" d="M286.52,394.56c-.12-3.61-.28-7.21-.5-10.81-1.29,2.14-2.68,4.35-4.17,6.55a96.38,96.38,0,0,1-9.38,12,54.33,54.33,0,0,1-6.06,5.6c-.53.4-1.05.79-1.59,1.17a24.17,24.17,0,0,1-11.42,4.63,18.24,18.24,0,0,1-2,.09,17.51,17.51,0,0,1-3.5-.42,18.3,18.3,0,0,1-3.54-1.21,13.65,13.65,0,0,1-1.31-.69,15,15,0,0,1-1.58-1.11c-.39-.32-.76-.66-1.12-1a14,14,0,0,1-1.16-1.27,15.72,15.72,0,0,1-1.56-2.27,17.55,17.55,0,0,1-.88-1.73,15.61,15.61,0,0,1-1.27-7.13,35.13,35.13,0,0,1,.58-4.62,42,42,0,0,1,1.12-4.45c.44-1.46.95-2.89,1.51-4.31,1.68-4.25,3.78-8.34,5.77-12.42,1.33-2.71,2.61-5.41,3.68-8.15a.42.42,0,0,0,0-.1l2.1-5.27c.16-.37.31-.74.46-1.11q.89-2.16,1.78-4.31l.36-.88c.65-1.55,1.31-3.09,2-4.64a3.09,3.09,0,0,0,.14-.32c3.23-7.58,6.55-15.06,9.83-22.58l.93-2.15c.39-.88.77-1.76,1.15-2.65l1.4-3.24c.27-.65.55-1.29.83-1.94.48-1.14,1-2.29,1.45-3.44.27-.63.53-1.26.79-1.89.45-1.06.89-2.13,1.32-3.2-4.06-14-9.33-27.77-16.77-39.21a114.61,114.61,0,0,1-13.81,3.81,58.67,58.67,0,0,1-15.06,1.26,13.67,13.67,0,0,1-5,7.36,15,15,0,0,1-6.1,2.74l-.17,0c-5.61,1.15-12.1-.31-15.66-4.56a12.39,12.39,0,0,1-2.48-10.51,11.51,11.51,0,0,1,.69-2.13,11.74,11.74,0,0,1,1.45-2.38,56,56,0,0,1-5.66-4.61,40.26,40.26,0,0,1-8-10.05c-.18-.33-.35-.66-.52-1q-.84,1.47-1.8,3.21h0l0,0-.71,1.28-.1.18c-.56,1-1.16,2.14-1.77,3.29-.42.79-.84,1.6-1.28,2.44l-.33.63c-.2.39-.41.78-.61,1.18s-.27.53-.41.8-.39.77-.59,1.17-.32.62-.48.93-.37.75-.56,1.13-.5,1-.76,1.52-.45.92-.68,1.39l-.68,1.4c-.15.32-.31.64-.47,1l-.67,1.41c-.15.33-.31.66-.47,1-.24.5-.47,1-.71,1.51-.15.32-.3.64-.44,1-.31.66-.62,1.33-.92,2l-.24.51c-.39.85-.77,1.72-1.16,2.6l-.33.72-.87,2c-.13.29-.26.59-.38.89-.28.64-.56,1.28-.84,1.94-.12.29-.25.59-.38.88-.31.73-.61,1.47-.92,2.21l-.27.64-1.22,3v0l-1.17,2.94c-.09.25-.19.5-.29.74l-.9,2.34c-.11.28-.22.56-.32.85-.31.79-.61,1.59-.91,2.39l-.27.74q-1.19,3.19-2.32,6.48l-.15.44-1,2.82-.27.81c-.08.23-.15.46-.23.69l-.61,1.87-.27.84c-.3.93-.59,1.87-.88,2.81-.06.18-.11.36-.17.54q-1,3.44-2,6.94c-.07.24-.13.48-.2.71l-.75,2.75-.24.92c-.24.9-.47,1.81-.7,2.72-.07.27-.14.54-.2.81-.29,1.13-.56,2.27-.83,3.41l0,.09c-.29,1.22-.57,2.44-.83,3.67,0,.16-.07.31-.1.47-.23,1-.44,2.05-.65,3.08-.06.3-.12.61-.19.91-.18.91-.35,1.81-.52,2.71l-.18,1c-.18,1-.34,1.92-.51,2.88l-.12.72q-.6,3.64-1.08,7.29c0,.29-.07.59-.11.88l-.33,2.74c0,.36-.07.72-.11,1.08l-.15,1.35c0,.43-.07.86-.11,1.29s-.07.68-.1,1c-.09,1-.17,2.09-.24,3.14l0,.47c-.09,1.22-.15,2.45-.21,3.67,0,.23,0,.45,0,.68,0,1-.07,1.94-.1,2.9,0,.37,0,.74,0,1.11,0,.84,0,1.69,0,2.53,0,.38,0,.77,0,1.16,0,.88,0,1.75,0,2.62,0,.33,0,.65,0,1q.12,3.57.4,7.11c0,.35.07.7.1,1.05q.1,1.24.24,2.49c0,.4.09.81.14,1.21.1.79.2,1.59.31,2.37.05.39.1.78.16,1.17.13.91.28,1.81.44,2.71l.12.76c.21,1.15.43,2.3.66,3.44.06.27.13.53.18.8.19.87.39,1.74.59,2.6l.3,1.17c.19.75.39,1.5.59,2.24.11.41.23.81.34,1.21.23.77.46,1.54.7,2.3l.33,1.05c.36,1.1.73,2.2,1.13,3.29,0,0,.25.82.82,2.28.14.37.3.77.48,1.21s.38.92.61,1.44.46,1.05.73,1.63c.4.87.85,1.8,1.35,2.8.33.66.69,1.35,1.07,2.06l.59,1.09q.92,1.67,2,3.45c1.2,2,2.58,4.09,4.12,6.26a99.9,99.9,0,0,0,8.86,10.7q.64.68,1.32,1.35a94.24,94.24,0,0,0,19.77,15.25q2,1.14,4.06,2.21l.7.35c2.58,1.3,5.28,2.52,8.12,3.64.78.3,1.56.6,2.36.89q2.38.87,4.89,1.64t5.15,1.45c.87.22,1.76.43,2.66.63q2.7.62,5.54,1.11c.94.16,1.89.32,2.86.46l2.35.32c1.06.14,2.12.25,3.18.35l.65.07c2.23.2,4.45.33,6.68.4h0c1.17,0,2.34,0,3.5,0,16.8-6.66,31-20.94,37-43C286.48,427.4,287,410.83,286.52,394.56Z"/><path class="cls-7" d="M251.09,192.05c19.22-8.76,33.62-33.9,17.92-52.13a46.13,46.13,0,0,0-25-14.83,6.41,6.41,0,0,1-2,6.11c1.39-1.25-1.16,1.46-1.58,1.87a12.72,12.72,0,0,1-3.41,2.32,22.4,22.4,0,0,1-4,1.62,12.4,12.4,0,0,0,0,2.36,17.79,17.79,0,0,0,2.59,7.35c2.49,3.88,6.47,5.89,10.8,4.21,1.93-.75,3.43,2.19,2,3.62-1.62,1.58-2.41,2.74-4.66,3.25a9.15,9.15,0,0,1-4.73-.15,16.13,16.13,0,0,1-7.94-6,23.41,23.41,0,0,1-2-3.36c-3.16,8.14-9.12,14.64-17.09,11.39a2,2,0,0,1,.5-3.93c5.93-.73,9.68-2.67,11.51-9.21a31.1,31.1,0,0,0,.81-8.62,10.06,10.06,0,0,1-4.19-1.4c-2.58-1.62-5-5.22-4.74-8.59a16.82,16.82,0,0,1,.26-1.85c-21.19,6.47-37.2,25.85-27.9,51.54C196.33,200,234.78,199.49,251.09,192.05Z"/><path class="cls-8" d="M145.73,22.78c-10.2-5.62-12-5.23-16.65,6A105.37,105.37,0,0,0,121,74.34c14.72-13.38,34.36-19.55,54.38-23C168.28,40.22,156.05,28.46,145.73,22.78Z"/><path class="cls-8" d="M320.36,33.43c-4.15-10.49-7.84-21.85-17.52-18.65-7.58,2.51-20.23,17.43-28.32,30.91q4,.44,8,1A109.94,109.94,0,0,1,334.34,70C330.52,57.41,324.81,44.68,320.36,33.43Z"/><path class="cls-8" d="M246.41,150.93c-4.33,1.68-8.31-.33-10.8-4.21a17.79,17.79,0,0,1-2.59-7.35,12.4,12.4,0,0,1,0-2.36,22.4,22.4,0,0,0,4-1.62,12.72,12.72,0,0,0,3.41-2.32c.42-.41,3-3.12,1.58-1.87a6.41,6.41,0,0,0,2-6.11,8.34,8.34,0,0,0-4.27-5.86,16.74,16.74,0,0,0-10.4-2.64c-6.26.46-11.84,2.76-13.2,9.49a16.82,16.82,0,0,0-.26,1.85c-.27,3.37,2.16,7,4.74,8.59a10.06,10.06,0,0,0,4.19,1.4,31.1,31.1,0,0,1-.81,8.62c-1.83,6.54-5.58,8.48-11.51,9.21a2,2,0,0,0-.5,3.93c8,3.25,13.93-3.25,17.09-11.39a23.41,23.41,0,0,0,2,3.36,16.13,16.13,0,0,0,7.94,6,9.15,9.15,0,0,0,4.73.15c2.25-.51,3-1.67,4.66-3.25C249.84,153.12,248.34,150.18,246.41,150.93Z"/><path class="cls-8" d="M299.82,90.44c-2-1.64-5.18-1.11-7.18.42A8.42,8.42,0,0,0,290,94.05a32.32,32.32,0,0,0-1.84,4.27l.81-2c-1.39,3.51-2.53,7.5-.4,11.07a8,8,0,0,0,4.58,3.75c2.17.63,3.93.09,5.91-.82,3.82-1.78,4.65-7,5-10.86a12.69,12.69,0,0,0-.5-3.91C302.93,93,301.56,91.85,299.82,90.44Z"/><path class="cls-8" d="M162.44,95c-2.49,2.69-3,6-3.38,9.62-.42,3.79,1.07,7,3.25,9.78s7,2.7,9.12,0a15.41,15.41,0,0,0,2.62-4.39,17.7,17.7,0,0,0,.63-5.39A14.26,14.26,0,0,0,171.29,95,6,6,0,0,0,162.44,95Z"/><path class="cls-8" d="M388.86,121.65c-6.05-3.67-14.32-3.32-21.84-2.31-2.72.37-5.35.82-7.74,1.19-10.18,1.61-19.84,5.31-29.47,9-2.14.83-1.9,4.36.56,4.36,9.51,0,19-.23,28.5-.39,3.39-.06,6.78-.17,10.17-.21,1.45,0,2.89,0,4.34,0,4.72.07,9.66.87,14.16-.89C391.84,130.73,393.3,124.35,388.86,121.65Z"/><path class="cls-8" d="M368.69,145.63c-3.3-.6-6.56-1-9.41-1.52-9.57-1.66-18.36-2.22-26.89,3a2.87,2.87,0,0,0,.62,5.07c8.69,2.48,17.27,5.22,26.12,7.3,2,.47,4.26,1,6.61,1.46,7.08,1.35,15.06,1.82,20.23-3.16a3.5,3.5,0,0,0,0-4.71C381.74,148.66,375.11,146.81,368.69,145.63Z"/><path class="cls-8" d="M132.48,135.42c-4.69-2.65-8.46-4.29-13.84-4.89a82.88,82.88,0,0,0-17.25.15c-1.63.16-3.34.33-5.1.52-8.55.94-18.24,2.63-24.66,8.05-1.59,1.35-.53,4,1.13,4.55,7,2.33,15.68.48,23.39-.88,1.81-.32,3.57-.61,5.24-.81,9.84-1.21,20-1.6,29.88-1.93C133.56,140.1,134.67,136.66,132.48,135.42Z"/><path class="cls-8" d="M127.43,154.21c-8.94-1.65-18,2.26-26.53,4.7l-2.79.83c-3.81,1.14-7.59,2.35-11.46,3.31s-7.24,2.24-9.69,5.76c-1.27,1.83-.16,4.18,1.31,5.32,5.79,4.48,15.86.59,22.88-2.14,1-.4,2-.77,2.85-1.09,8.24-3,17.92-6.25,24.45-12.61C129.65,157.13,129.13,154.53,127.43,154.21Z"/></svg>