<svg id="Layer_1" data-name="Layer 1" xmlns="http://www.w3.org/2000/svg" viewBox="0 0 500 500"><defs><style>.cls-1{fill:#9caab9;}.cls-2{fill:#4f6a80;}.cls-3{fill:#221e20;}.cls-4{fill:#f9c18b;}.cls-5{fill:#ee7d75;}.cls-6{fill:#1d1d1d;}.cls-7{fill:#85919f;}.cls-8{fill:#1d1c1a;}</style></defs><title>Artboard 1 copy 11</title><g id="_Group_" data-name="&lt;Group&gt;"><path id="_Path_" data-name="&lt;Path&gt;" class="cls-1" d="M365.08,140.42c-2,2.05,82,100.37,82,100.37,13.14-13.33,22.06-32.29,26.73-50.15,5.73-21.89,11.55-86.95-22.41-92.62a57.43,57.43,0,0,0-20.12.71C405.24,103.77,383,121.87,365.08,140.42Z"/><path id="_Path_2" data-name="&lt;Path&gt;" class="cls-2" d="M388.53,151l51.26,51.89c7.21-8.9,11.82-20.62,14.52-31.61,3.12-12.67,8.18-35.35.5-47.32-7.53-11.73-32.26-.81-40.68,4.5C411.93,129.82,385.48,147.88,388.53,151Z"/><path id="_Path_3" data-name="&lt;Path&gt;" class="cls-1" d="M63.18,226.3c-21.4-30.54-23-66.75-15.65-101.87,2-9.39,5-18.28,10.83-26,15.12-20,37.43-12.78,54.46-.16a119.4,119.4,0,0,1,18.69,17.54c2.08,2.38,20.32,24.74,18.8,26.21Z"/><path id="_Path_4" data-name="&lt;Path&gt;" class="cls-2" d="M82.05,196.68A85.23,85.23,0,0,1,70.2,142.8c.92-8.15,1.53-20.9,8.52-26.59,7.19-5.84,19.49-2.24,26.65,2,7.36,4.39,13.22,10.86,19,17.22,2.71,3,9,7.42,7.65,11.61-.83,2.59-6.95,5.83-8.91,7.66-6,5.57-11.46,11.73-17.17,17.56Q94,184.48,82.05,196.68Z"/><path id="_Path_5" data-name="&lt;Path&gt;" class="cls-1" d="M279.67,437c31.88-4.14,68.37-11,96.78-26.14,40.19-21.45,73.93-55.69,81.85-102,12.08-70.7-24.05-146.47-85.32-183.61C341.44,106.15,305.1,94.9,268.53,91c-44.06-4.74-98.77,1.13-137.89,22.91C74.86,145,43.46,208.73,40.48,271.06c-1.39,29.1,2.17,63.31,17.93,88.46,25.54,40.75,70.9,62.73,116.51,72.85a302.28,302.28,0,0,0,103.31,4.84Z"/><path class="cls-3" d="M119.41,311.71a2.37,2.37,0,0,1-2.14-2c-1.44-8.23.45-17.23,4.93-23.47a21,21,0,0,1,14.1-8.83c7-1.09,13.34.37,18.46,4.2,6.25,4.7,10.57,13,11.85,22.77a2.38,2.38,0,0,1-4.71.62c-1.11-8.52-4.75-15.66-10-19.59-4.13-3.09-9.14-4.22-14.88-3.31a16.44,16.44,0,0,0-11,6.9c-3.76,5.25-5.34,12.87-4.12,19.9a2.36,2.36,0,0,1-1.93,2.74A2,2,0,0,1,119.41,311.71Z"/><path class="cls-3" d="M337.56,300.26a2.38,2.38,0,0,1-2.18-2.27c-.42-10,3.52-26,16.09-29.47,7.49-2,18,.62,21.84,8.52,3.29,6.73,3.34,16.41,2.37,22.65A2.37,2.37,0,1,1,371,299c.93-6,.69-14.46-1.94-19.83-2.71-5.54-10.63-7.59-16.33-6-9.82,2.68-12.93,16.57-12.6,24.69a2.37,2.37,0,0,1-2.27,2.48Z"/><g id="_Group_2" data-name="&lt;Group&gt;"><path id="_Path_6" data-name="&lt;Path&gt;" class="cls-4" d="M309.5,333.42a34.12,34.12,0,0,0-19.15-16.61c-19.61-6.56-42.94-6.39-62.35.75a48.68,48.68,0,0,0-17.2,10.19c-9.28,8.9-14.08,21.13-10.58,33.58,3.1,11.07,10.67,18.25,21.76,20.61,10.62,2.25,23.9,3.45,29.54-7.48,7.35-14.24,5.25-32.78,2.26-47.91-.2,5.34,1.12,10.61,2.42,15.8,3.08,12.19,5.34,30.92,20.64,33.61,10.17,1.79,22.67,2,30.09-6.16C315.57,360.26,315.25,344.32,309.5,333.42Z"/><path id="_Path_7" data-name="&lt;Path&gt;" class="cls-5" d="M281.68,330.83a3.29,3.29,0,1,0,1.2.5Z"/><path id="_Path_8" data-name="&lt;Path&gt;" class="cls-5" d="M222.85,332a3.28,3.28,0,1,0,1.19.5Z"/><path id="_Path_9" data-name="&lt;Path&gt;" class="cls-5" d="M296.76,342.17a3.26,3.26,0,0,0-1.18-.07c-3.67.44-3.46,4.74,0,5.38A2.72,2.72,0,1,0,296.76,342.17Z"/><path id="_Path_10" data-name="&lt;Path&gt;" class="cls-5" d="M214.06,347.33a3.27,3.27,0,0,0-1.18-.07c-3.67.44-3.47,4.74,0,5.38A2.73,2.73,0,1,0,214.06,347.33Z"/><path id="_Path_11" data-name="&lt;Path&gt;" class="cls-5" d="M289.68,359a3.24,3.24,0,0,0-1.18-.07c-3.67.44-3.46,4.74,0,5.38A2.72,2.72,0,1,0,289.68,359Z"/><path id="_Path_12" data-name="&lt;Path&gt;" class="cls-5" d="M221.65,363.52a3.06,3.06,0,0,0-1.18-.06c-3.67.43-3.46,4.73,0,5.38A2.73,2.73,0,1,0,221.65,363.52Z"/></g><path id="_Path_13" data-name="&lt;Path&gt;" class="cls-6" d="M266.5,335c8.74-5,10.59-16.25,4.68-24.55-8-11.23-31.61-10.55-37.93,2.34-9.25,18.87,13.42,30.11,29.3,24.06A28,28,0,0,0,266.5,335Z"/><path class="cls-3" d="M282.19,335.78a2.37,2.37,0,0,1-1.4-4.13A78.28,78.28,0,0,1,348,313.52a2.38,2.38,0,1,1-1,4.65,73.39,73.39,0,0,0-63,17A2.31,2.31,0,0,1,282.19,335.78Z"/><path class="cls-3" d="M361.55,360.88a2.31,2.31,0,0,1-1.39-.61,66.71,66.71,0,0,0-63.48-13.86,2.37,2.37,0,1,1-1.41-4.53,71.56,71.56,0,0,1,68.07,14.87,2.37,2.37,0,0,1,.17,3.35A2.4,2.4,0,0,1,361.55,360.88Z"/><path class="cls-3" d="M337.36,378.62a2.37,2.37,0,0,1-1.54-.74A50.48,50.48,0,0,0,290.1,363.3a2.37,2.37,0,0,1-.93-4.65,55.29,55.29,0,0,1,50.11,16,2.37,2.37,0,0,1-1.92,4Z"/><path class="cls-3" d="M157.18,363.45a2.37,2.37,0,0,1-1.58-3.93c13.44-15.25,34-19.69,57.76-12.49a2.37,2.37,0,1,1-1.38,4.54c-15.51-4.68-37.26-6.56-52.82,11.09A2.39,2.39,0,0,1,157.18,363.45Z"/><path class="cls-3" d="M183.58,393.19a2.43,2.43,0,0,1-.81-.21,2.38,2.38,0,0,1-1.14-3.16,50,50,0,0,1,15.84-19.25c7.52-5.49,18.29-6.72,22.58-7a2.37,2.37,0,0,1,.31,4.73c-3.87.26-13.58,1.35-20.09,6.11a45.28,45.28,0,0,0-14.34,17.42A2.36,2.36,0,0,1,183.58,393.19Z"/><path class="cls-3" d="M221.67,337.79a2.38,2.38,0,0,1-1.52-.73c-1.11-1.16-2.22-2.32-3.4-3.41-12.12-11.23-30.9-13.91-47.86-6.83a2.37,2.37,0,1,1-1.83-4.38c18.67-7.79,39.44-4.76,52.91,7.72,1.25,1.16,2.43,2.39,3.61,3.62a2.38,2.38,0,0,1-1.91,4Z"/><path id="_Path_14" data-name="&lt;Path&gt;" class="cls-7" d="M377.33,318.37c-9.44,5.38-7.22,15.57,3.55,17.81,4.76,1,9.68,1.76,14.45.88,9.8-1.81,15.22-10,7.38-17.12-6-5.46-17.8-5.61-24.93-1.81Z"/><path id="_Path_15" data-name="&lt;Path&gt;" class="cls-7" d="M97.35,329.5c-8.29,7-4.21,16.65,6.79,16.84,4.86.09,9.83-.07,14.36-1.82,9.3-3.6,13.1-12.63,4.07-18.19-6.9-4.25-18.53-2.21-24.83,2.85Z"/><path id="_Path_16" data-name="&lt;Path&gt;" class="cls-1" d="M101.35,341.86a.74.74,0,0,0,.58.24c.32,0,.51-.37.63-.66,1.3-2.91,1.49-6.23,2-9.35.13-.78.09-1.85-.68-2s-1.21.49-1.51,1.1C101.39,333.15,99.3,340,101.35,341.86Z"/><path id="_Path_17" data-name="&lt;Path&gt;" class="cls-1" d="M110.54,339.29a.88.88,0,0,0,.58.21.8.8,0,0,0,.62-.53c1.2-2.39,1.29-5.16,1.71-7.75.11-.65,0-1.54-.73-1.73a1.43,1.43,0,0,0-1.48.87C110.33,332,108.45,337.67,110.54,339.29Z"/><path id="_Path_18" data-name="&lt;Path&gt;" class="cls-1" d="M379.66,328.18c-.24,4.22,3.32.86,3.94-1.2.41-1.39,1.55-6,.67-7.06a1.15,1.15,0,0,0-1.4,0C380.72,321.17,379.79,325.89,379.66,328.18Z"/><path id="_Path_19" data-name="&lt;Path&gt;" class="cls-1" d="M390.66,326.77c-.15,3.85,3.49.86,4.09-1,.4-1.25,1.48-5.46.53-6.43a1.33,1.33,0,0,0-1.46-.05C391.6,320.39,390.74,324.68,390.66,326.77Z"/></g><g id="_Group_3" data-name="&lt;Group&gt;"><path id="_Path_20" data-name="&lt;Path&gt;" class="cls-1" d="M365.08,140.42c-2,2.05,82,100.37,82,100.37,13.14-13.33,22.06-32.29,26.73-50.15,5.73-21.89,11.55-86.95-22.41-92.62a57.43,57.43,0,0,0-20.12.71C405.24,103.77,383,121.87,365.08,140.42Z"/><path id="_Path_21" data-name="&lt;Path&gt;" class="cls-2" d="M388.53,151l51.26,51.89c7.21-8.9,11.82-20.62,14.52-31.61,3.12-12.67,8.18-35.35.5-47.32-7.53-11.73-32.26-.81-40.68,4.5C411.93,129.82,385.48,147.88,388.53,151Z"/><path id="_Path_22" data-name="&lt;Path&gt;" class="cls-1" d="M63.18,226.3c-21.4-30.54-23-66.75-15.65-101.87,2-9.39,5-18.28,10.83-26,15.12-20,37.43-12.78,54.46-.16a119.4,119.4,0,0,1,18.69,17.54c2.08,2.38,20.32,24.74,18.8,26.21Z"/><path id="_Path_23" data-name="&lt;Path&gt;" class="cls-2" d="M82.05,196.68A85.23,85.23,0,0,1,70.2,142.8c.92-8.15,1.53-20.9,8.52-26.59,7.19-5.84,19.49-2.24,26.65,2,7.36,4.39,13.22,10.86,19,17.22,2.71,3,9,7.42,7.65,11.61-.83,2.59-6.95,5.83-8.91,7.66-6,5.57-11.46,11.73-17.17,17.56Q94,184.48,82.05,196.68Z"/><path id="_Path_24" data-name="&lt;Path&gt;" class="cls-1" d="M279.67,437c31.88-4.14,68.37-11,96.78-26.14,40.19-21.45,73.93-55.69,81.85-102,12.08-70.7-24.05-146.47-85.32-183.61C341.44,106.15,305.1,94.9,268.53,91c-44.06-4.74-98.77,1.13-137.89,22.91C74.86,145,43.46,208.73,40.48,271.06c-1.39,29.1,2.17,63.31,17.93,88.46,25.54,40.75,70.9,62.73,116.51,72.85a302.28,302.28,0,0,0,103.31,4.84Z"/><g id="_Group_4" data-name="&lt;Group&gt;"><path id="_Path_25" data-name="&lt;Path&gt;" class="cls-4" d="M309.5,333.42a34.12,34.12,0,0,0-19.15-16.61c-19.61-6.56-42.94-6.39-62.35.75a48.68,48.68,0,0,0-17.2,10.19c-9.28,8.9-14.08,21.13-10.58,33.58,3.1,11.07,10.67,18.25,21.76,20.61,10.62,2.25,23.9,3.45,29.54-7.48,7.35-14.24,5.25-32.78,2.26-47.91-.2,5.34,1.12,10.61,2.42,15.8,3.08,12.19,5.34,30.92,20.64,33.61,10.17,1.79,22.67,2,30.09-6.16C315.57,360.26,315.25,344.32,309.5,333.42Z"/><path id="_Path_26" data-name="&lt;Path&gt;" class="cls-5" d="M281.68,330.83a3.29,3.29,0,1,0,1.2.5Z"/><path id="_Path_27" data-name="&lt;Path&gt;" class="cls-5" d="M222.85,332a3.28,3.28,0,1,0,1.19.5Z"/><path id="_Path_28" data-name="&lt;Path&gt;" class="cls-5" d="M296.76,342.17a3.26,3.26,0,0,0-1.18-.07c-3.67.44-3.46,4.74,0,5.38A2.72,2.72,0,1,0,296.76,342.17Z"/><path id="_Path_29" data-name="&lt;Path&gt;" class="cls-5" d="M214.06,347.33a3.27,3.27,0,0,0-1.18-.07c-3.67.44-3.47,4.74,0,5.38A2.73,2.73,0,1,0,214.06,347.33Z"/><path id="_Path_30" data-name="&lt;Path&gt;" class="cls-5" d="M289.68,359a3.24,3.24,0,0,0-1.18-.07c-3.67.44-3.46,4.74,0,5.38A2.72,2.72,0,1,0,289.68,359Z"/><path id="_Path_31" data-name="&lt;Path&gt;" class="cls-5" d="M221.65,363.52a3.06,3.06,0,0,0-1.18-.06c-3.67.43-3.46,4.73,0,5.38A2.73,2.73,0,1,0,221.65,363.52Z"/></g><path id="_Path_32" data-name="&lt;Path&gt;" class="cls-6" d="M266.5,335c8.74-5,10.59-16.25,4.68-24.55-8-11.23-31.61-10.55-37.93,2.34-9.25,18.87,13.42,30.11,29.3,24.06A28,28,0,0,0,266.5,335Z"/><path class="cls-3" d="M280.16,332.36a2.38,2.38,0,0,0,1.06,4.23,78.29,78.29,0,0,0,66.33-21,2.38,2.38,0,0,0-3.33-3.39A73.38,73.38,0,0,1,282,331.91,2.4,2.4,0,0,0,280.16,332.36Z"/><path class="cls-3" d="M295.72,342.58a2.39,2.39,0,0,1,1.5.21,66.68,66.68,0,0,0,64.89-3.26,2.37,2.37,0,1,1,2.56,4,71.56,71.56,0,0,1-69.59,3.5,2.37,2.37,0,0,1,.64-4.45Z"/><path class="cls-3" d="M288.87,359.51a2.38,2.38,0,0,1,1.61.56,50.49,50.49,0,0,0,47.11,9.2,2.37,2.37,0,1,1,1.46,4.51,55.28,55.28,0,0,1-51.62-10.08,2.36,2.36,0,0,1-.29-3.34A2.39,2.39,0,0,1,288.87,359.51Z"/><path class="cls-3" d="M213.71,347.68a2.37,2.37,0,0,1,1.23,4.06c-14.74,14-35.57,16.59-58.64,7.3a2.37,2.37,0,1,1,1.77-4.4c15,6,36.53,9.85,53.6-6.35A2.4,2.4,0,0,1,213.71,347.68Z"/><path class="cls-3" d="M220.78,364.06a2.43,2.43,0,0,1,.81.24,2.37,2.37,0,0,1,1.06,3.18,50,50,0,0,1-16.35,18.83c-7.66,5.28-18.46,6.24-22.76,6.4a2.37,2.37,0,0,1-.18-4.74c3.88-.15,13.61-1,20.25-5.57a45.38,45.38,0,0,0,14.79-17A2.39,2.39,0,0,1,220.78,364.06Z"/><path class="cls-3" d="M171.88,311.7a2.38,2.38,0,0,1,1.35,1c.86,1.36,1.71,2.72,2.65,4,9.63,13.42,27.5,19.79,45.53,16.24a2.37,2.37,0,0,1,.92,4.66c-19.85,3.91-39.6-3.21-50.3-18.13-1-1.38-1.91-2.82-2.82-4.27a2.37,2.37,0,0,1,2.67-3.54Z"/><path id="_Path_33" data-name="&lt;Path&gt;" class="cls-7" d="M377.33,318.37c-9.44,5.38-7.22,15.57,3.55,17.81,4.76,1,9.68,1.76,14.45.88,9.8-1.81,15.22-10,7.38-17.12-6-5.46-17.8-5.61-24.93-1.81Z"/><path id="_Path_34" data-name="&lt;Path&gt;" class="cls-7" d="M97.35,329.5c-8.29,7-4.21,16.65,6.79,16.84,4.86.09,9.83-.07,14.36-1.82,9.3-3.6,13.1-12.63,4.07-18.19-6.9-4.25-18.53-2.21-24.83,2.85Z"/><path id="_Path_35" data-name="&lt;Path&gt;" class="cls-1" d="M101.35,341.86a.74.74,0,0,0,.58.24c.32,0,.51-.37.63-.66,1.3-2.91,1.49-6.23,2-9.35.13-.78.09-1.85-.68-2s-1.21.49-1.51,1.1C101.39,333.15,99.3,340,101.35,341.86Z"/><path id="_Path_36" data-name="&lt;Path&gt;" class="cls-1" d="M110.54,339.29a.88.88,0,0,0,.58.21.8.8,0,0,0,.62-.53c1.2-2.39,1.29-5.16,1.71-7.75.11-.65,0-1.54-.73-1.73a1.43,1.43,0,0,0-1.48.87C110.33,332,108.45,337.67,110.54,339.29Z"/><path id="_Path_37" data-name="&lt;Path&gt;" class="cls-1" d="M379.66,328.18c-.24,4.22,3.32.86,3.94-1.2.41-1.39,1.55-6,.67-7.06a1.15,1.15,0,0,0-1.4,0C380.72,321.17,379.79,325.89,379.66,328.18Z"/><path id="_Path_38" data-name="&lt;Path&gt;" class="cls-1" d="M390.66,326.77c-.15,3.85,3.49.86,4.09-1,.4-1.25,1.48-5.46.53-6.43a1.33,1.33,0,0,0-1.46-.05C391.6,320.39,390.74,324.68,390.66,326.77Z"/></g><path class="cls-8" d="M368.37,263.46c-3.54-2.8-9-1.81-12.47.9-2.06,1.3-3.39,3.46-4.58,5.6a55.56,55.56,0,0,0-3.08,7.47l1.35-3.56c-2.33,6.12-4.22,13.09-.43,19.23a13.86,13.86,0,0,0,8,6.4c3.78,1.05,6.82.08,10.24-1.57,6.6-3.17,7.91-12.25,8.41-19a22.09,22.09,0,0,0-1-6.77C373.83,267.91,371.41,265.87,368.37,263.46Z"/><path class="cls-8" d="M129.85,274.7c-4.27,4.73-5.06,10.55-5.65,16.8-.63,6.58,2,12.05,5.88,16.9,3.68,4.63,12.28,4.52,15.84-.22a26.54,26.54,0,0,0,4.44-7.68c1-3,.93-6.23,1-9.37.07-5.89-2.16-12.5-6.11-16.64A10.49,10.49,0,0,0,129.85,274.7Z"/></svg>