<svg id="Layer_1" data-name="Layer 1" xmlns="http://www.w3.org/2000/svg" viewBox="0 0 500 500"><defs><style>.cls-1{fill:#e3b39c;}.cls-2{fill:#cb8381;}.cls-3{fill:#633237;}.cls-4{fill:#df918d;}.cls-5{fill:#f8ecb9;}.cls-6{fill:#221e20;}.cls-7{fill:#1d1d1d;}.cls-8{fill:#bba381;}.cls-9{fill:#df8f8c;}.cls-10{fill:#1d1c1a;}</style></defs><title>Artboard 1 copy 4</title><path id="_Path_" data-name="&lt;Path&gt;" class="cls-1" d="M181.83,457.34a49.11,49.11,0,0,0-7.75-1,46.31,46.31,0,0,0-12,1.45,84.11,84.11,0,0,1-10.19,3.87c-24.6,7.4-50.6,5.4-74.6-3.56a17.44,17.44,0,0,1-8.62-5.66,14.84,14.84,0,0,1-3.38-9.38,16.56,16.56,0,0,1,1.35-7.83,18,18,0,0,1,6-5.83,15.91,15.91,0,0,1,7-2c14.71-2.31,30.71,17.69,41.71,1.69,4-6-5-11-9.69-15.45a51.62,51.62,0,0,0-7.86-5.19c-11.11-6-24.42-7.83-36.38-2.79a49.55,49.55,0,0,0-7.88,3.51,46.9,46.9,0,0,0-7.18,4.93,60.53,60.53,0,0,0-7.52,7.26C33.21,434.64,27,453.26,35.34,469.12a33.25,33.25,0,0,0,4.89,6.42,48,48,0,0,0,14.88,10,76.07,76.07,0,0,0,8.6,3.22c30.58,5.27,62.58,9.27,93.54,3.68q4.71-.56,9.39-1.26,9.38-1.41,18.64-3.45c12.46-2.75,14.26-18.74,4.95-26.72A19.17,19.17,0,0,0,181.83,457.34Z"/><path id="_Path_2" data-name="&lt;Path&gt;" class="cls-1" d="M294.71,436.27c2.56-3.94,2.93-8.56-1.08-13.54a14.16,14.16,0,0,0-12.78-5c0-10.5-2.79-19.67-3.49-29.95-1.86-27.46-6.55-57.19-5.12-85.08s-1.77-56.31,4.29-84.14c.1-.47-21-4.73-22.84-5.07l-46.92-8.69c4.95,6.39,2.47,17.37.15,24.11-9.43,27.41-34.27,47.14-55.75,64.75-23.13,19-43.21,42.39-55.16,70a141.65,141.65,0,0,0-11.19,43.7c-1.25,14-3.4,32.46,4.8,44.49a21.16,21.16,0,0,0,7.81,7.29c3.08,1.52,6.57,1.9,10,2.27,14.08,1.5,27,3.83,41.38,3.26,21-.85,42.63-1.49,63.52-4.25,3.67-.49,40.82-8.31,35.59-15.34,6.44,8.66,19,6.12,27.82,3.46C281.88,446.74,290.82,442.28,294.71,436.27Z"/><path id="_Path_3" data-name="&lt;Path&gt;" class="cls-2" d="M185.32,322.21c33.88,8.5,57.87,44.16,53.74,78.75-1.24,10.32-11.91,19.56-19.41,25.76s-13.48,10.94-23.08,13.72A220.53,220.53,0,0,1,224.62,439c12.81.18,17.09,2.7,19.32,12.08,3.56-1.92,5.45-4,4-5.95A13.44,13.44,0,0,0,249,446.4a15.9,15.9,0,0,0-7.89-9.84c-6-3.17-21.55-3.13-27.6.14,20.29-10.94,31.55-20,31.95-44C246.11,353.11,220.81,331.11,185.32,322.21Z"/><path id="_Path_4" data-name="&lt;Path&gt;" class="cls-1" d="M263,299.45q.69,16.31,1.37,32.61c.4,9.69,9.09,95.7,11.64,95.47a36.71,36.71,0,0,1,18.46,3.14c2.89,1.32,5.85,3.32,6.63,6.4.83,3.26-1.15,6.71-3.9,8.63s-6.14,2.66-9.43,3.35c-9.78,2.06-24,5.61-33.59,1-11-5.32-13.26-25-16-35.65-4-15.17-4.72-30.92-6.63-46.42-2.73-22.11-4.31-44.35-5.5-66.59Z"/><path id="_Path_5" data-name="&lt;Path&gt;" class="cls-2" d="M293.61,433.86c-2.07-1.49-5.12-2.09-7.17-2.45-4.32-.75-10.66,2-13.89-1.66-2.82-3.25-1.57-8.24-2.33-12.13-2.45-12.51-3.08-24.85-5.45-37.32-1.16-6.14-.8-12.35-1.72-18.43a231.28,231.28,0,0,1-3-38.13c.06-5.15-.21-10.29-.44-15.44-.1-2.42-2.2-12.2-.08-13.87a1.89,1.89,0,0,1,2.61.77c2.18,3.7,1.12,9.24,1.45,13.3.65,7.83.5,15.71.83,23.56.4,9.69,9.09,95.7,11.64,95.47a36.71,36.71,0,0,1,18.46,3.14c2.89,1.32,5.85,3.32,6.63,6.4.83,3.26-1.15,6.71-3.9,8.63s-6.14,2.66-9.43,3.35c-9.78,2.06-24,5.61-33.59,1-11-5.32-13.26-25-16-35.65-4-15.17-4.72-30.92-6.63-46.42-1.51-12.21-2.66-24.46-3.6-36.72-.55-7.19-1.85-14.28-2.64-21.44-.32-2.85-1.69-8-.73-10.75s2.65-3.43,3.61.51c1.84,7.45,1.28,15.09,2.05,22.65,3.11,30.56,6.51,60.9,12.45,91.08,1.56,7.95,3.16,17.76,7.76,24.57a18.07,18.07,0,0,0,9.85,7.5,29,29,0,0,0,9.31.51c6.95-.37,14-.74,20.67-2.65,2.67-.76,6.36-3.26,5.41-6.59A5.17,5.17,0,0,0,293.61,433.86Z"/><path id="_Path_6" data-name="&lt;Path&gt;" class="cls-3" d="M157.18,336.15c-.08-5.68-2.75-10.95-5.36-16-3.15-6.08-6.59-12.42-11.59-16.9C121.77,320.35,106,340.56,96,363.72a144.46,144.46,0,0,0-7.67,22.77,15.22,15.22,0,0,0,2.6.85,14.73,14.73,0,0,0,14.22-4.85c3.78-4.54,4.56-11.1,8.65-15.36,4.78-5,12.44-5.33,19.2-6.76C145.11,357.8,157.36,348.52,157.18,336.15Z"/><path id="_Path_7" data-name="&lt;Path&gt;" class="cls-3" d="M269,228a18.41,18.41,0,0,0,1.68-11.31l-63.87-11.83c4.95,6.39,2.47,17.37.15,24.11a84.92,84.92,0,0,1-10.8,20.82c3.81,9.53,9.07,19.23,21.35,17.71,7.65-1,13.64-7.72,15.65-15.17.83-3.1,1.19-6.51,3.28-8.95,3.55-4.11,9.94-3.36,15.33-4C258.85,238.54,265.68,234.36,269,228Z"/><g id="_Group_" data-name="&lt;Group&gt;"><g id="_Group_2" data-name="&lt;Group&gt;"><path id="_Path_8" data-name="&lt;Path&gt;" class="cls-4" d="M192.49,147.58c3.57-4.39,8.95-6.1,12.15-11.72a66.19,66.19,0,0,0,8.94-29c.18-3.7-2-8.52-1.51-11.67.54-3.64,5.21-6.24,4.34-10.19a7.26,7.26,0,0,0-2.71-3.65,135.82,135.82,0,0,0-39.29-23.82c-8.12-3.17-20.75-9.39-28.93-3.48-7.38,5.34-8.13,14.18-10.08,22.1-3.22,13-4.46,27.1-4.49,40.49,0,14.14.84,29,4.1,42.83,3,12.51,9.45,21.66,15.9,32.36,2-12.71,14.28-15.19,23.32-22C183.08,163.15,185.73,155.9,192.49,147.58Z"/><path id="_Path_9" data-name="&lt;Path&gt;" class="cls-4" d="M219.17,30c-.14-6-.91-13.61,2.43-18.91,4.68-7.41,14.85-3.95,21.85-2.77,17.71,3,34.17,10.31,49,20.33l1.21.82c20.23,13.74,39.19,31.41,49.91,53.73.61,1.28,1.2,2.58,1.75,3.88-14.77-7.07-34.69-6.72-51-8.13a136.61,136.61,0,0,0-32.14.87,113.35,113.35,0,0,0-15.67,3.51c-3.83,1.16-6.76,3.11-10.34.42-2.49-1.88-4.82-5.87-6.46-8.52-6.13-9.86-8.92-21.29-9.74-32.77C219.75,39.13,219.28,34.63,219.17,30Z"/><path id="_Path_10" data-name="&lt;Path&gt;" class="cls-1" d="M302.76,234.07A135,135,0,0,0,323,221c29.2-22.1,52.24-56.77,45.62-94.84C362.53,91,335,56.87,298.23,51.82c-47.82-6.56-103.31,13.85-137,48.42A93.7,93.7,0,0,0,142,128.65a73.71,73.71,0,0,0,3.5,65.09c12.88,23.23,32.26,44.16,57.35,54.07C236.35,261,272.58,251,302.76,234.07Z"/><path id="_Path_11" data-name="&lt;Path&gt;" class="cls-3" d="M239.09,91.87c1.43-9.75-6.28-22.49-15.67-30.87a180.63,180.63,0,0,0-22.55,10,51.71,51.71,0,0,0,9.19,19.17C217.17,99.64,236.25,111.15,239.09,91.87Z"/><path id="_Path_12" data-name="&lt;Path&gt;" class="cls-5" d="M265.15,154.37c14,29.06,19.28,10.82,29,8.51,10.13-2.4,11.25-16.23,3.39-22-9.81-7.2-22.68-6.59-33.6-4.1a32.54,32.54,0,0,0-5.13,1.53c-12.05,5-30.68,33.88-19.15,46.17,4.05,4.32,12.22,4.48,17.24,2.24,8.2-3.64,15.66-10.6,15.19-18.88-.3-5.16-6.32-11.68-9.07-15.67C263.7,152.94,264.7,153.45,265.15,154.37Z"/><path id="_Path_13" data-name="&lt;Path&gt;" class="cls-6" d="M284.58,168.68a.73.73,0,0,0-.94.07,6,6,0,0,1-4.48,1.44c-4.94-.4-6.82-4.55-8.74-7.8l-4.13-7L260.14,145c-.15-.26-.55-.28-.89-.12a.61.61,0,0,0-.33.81l4.86,8.23,4.37,7.42c1.06,1.79,1.91,3.87,3.1,5.56,1.3,3.29.11,8.75-3.16,11.14a.58.58,0,0,0-.2.83.71.71,0,0,0,.93,0c3.39-2.49,4.07-7.31,4.14-10.1a10.48,10.48,0,0,0,5.8,2.61,7.62,7.62,0,0,0,4.25-.88,8.33,8.33,0,0,0,1.44-1A.54.54,0,0,0,284.58,168.68Z"/><path id="_Path_14" data-name="&lt;Path&gt;" class="cls-7" d="M240.31,145.84a8.59,8.59,0,0,0,1.39,8.61c2.34,2.54,6.15,3,9.6,3a27.33,27.33,0,0,0,9.52-1.41,17.76,17.76,0,0,0,10.55-11.13C279.3,119.61,245.76,130.76,240.31,145.84Z"/><path id="_Path_15" data-name="&lt;Path&gt;" class="cls-8" d="M250.82,163.76c-.75-4.16-5.89,2-1.65,2A1.75,1.75,0,0,0,250.82,163.76Z"/><path id="_Path_16" data-name="&lt;Path&gt;" class="cls-8" d="M244.09,172.32c-.76-4.16-5.9,2-1.66,2A1.75,1.75,0,0,0,244.09,172.32Z"/><path id="_Path_17" data-name="&lt;Path&gt;" class="cls-8" d="M253.16,177.7c-.76-4.16-5.89,2-1.66,2A1.75,1.75,0,0,0,253.16,177.7Z"/><path id="_Path_18" data-name="&lt;Path&gt;" class="cls-8" d="M291.47,145.32c4-1.29-2.75-5.58-2.17-1.38A1.75,1.75,0,0,0,291.47,145.32Z"/><path id="_Path_19" data-name="&lt;Path&gt;" class="cls-8" d="M295,156a1.69,1.69,0,0,0,1.41-2.1c-.58-2-3.84-1.23-3.56.8A1.62,1.62,0,0,0,295,156Z"/><path id="_Path_20" data-name="&lt;Path&gt;" class="cls-8" d="M280.7,147.81c1.78-.57,2.06-2,.48-3C277.93,142.73,277.18,148.94,280.7,147.81Z"/><path id="_Path_21" data-name="&lt;Path&gt;" class="cls-9" d="M179.4,192.71c-3.05.84-6.23.94-8.75-.5-4.14-2.37-6.58-7.79-4.14-12.19,2.8-5,12.12-10.56,18.14-9.13,10.24,2.44,9.63,13.35,1.81,18.57A25.09,25.09,0,0,1,179.4,192.71Z"/><path id="_Path_22" data-name="&lt;Path&gt;" class="cls-9" d="M329.34,106.13c-3,.86-6.22,1-8.76-.42-4.16-2.32-6.65-7.72-4.26-12.14,2.74-5.07,12-10.68,18-9.31,10.27,2.33,9.77,13.25,2,18.54A25.08,25.08,0,0,1,329.34,106.13Z"/><path class="cls-10" d="M292.38,83.89c-2.32-.58-4.76,1.1-5.83,3.17a7.87,7.87,0,0,0-1,3.71,29.35,29.35,0,0,0,.15,4.29c0-.67-.09-1.35-.13-2,.22,3.47.83,7.25,4,9.39a7.37,7.37,0,0,0,5.3,1.34,7.29,7.29,0,0,0,4.6-3c2.5-3,1.14-7.66-.09-11a11.87,11.87,0,0,0-1.95-3.06C296,84.84,294.38,84.39,292.38,83.89Z"/><path class="cls-10" d="M179.51,141.63c-1,3.22-.13,6.21,1,9.36,1.14,3.32,3.63,5.38,6.55,6.88a5.67,5.67,0,0,0,7.61-3.58,14.08,14.08,0,0,0,.47-4.68,16.22,16.22,0,0,0-1.59-4.75,13.15,13.15,0,0,0-6.6-6.7A5.57,5.57,0,0,0,179.51,141.63Z"/></g><path class="cls-6" d="M280.75,146.31a1.22,1.22,0,0,1-.46-.09,1.17,1.17,0,0,1-.62-1.53,281.34,281.34,0,0,1,20.58-38.92,1.18,1.18,0,0,1,1.61-.37,1.17,1.17,0,0,1,.37,1.61,278.77,278.77,0,0,0-20.41,38.58A1.17,1.17,0,0,1,280.75,146.31Z"/><path class="cls-6" d="M291.71,144.2a1.16,1.16,0,0,1-.83-2l1.39-1.4c4.56-4.59,9.28-9.33,14.32-13.5l3.69-3.09a179,179,0,0,1,15.88-12.35,1.16,1.16,0,1,1,1.29,1.94A175.46,175.46,0,0,0,311.78,126l-3.7,3.09c-4.95,4.11-9.63,8.81-14.15,13.35l-1.4,1.4A1.16,1.16,0,0,1,291.71,144.2Z"/><path class="cls-6" d="M295.14,155.1a1.16,1.16,0,0,1-.66-2.12,130.13,130.13,0,0,1,29.84-15.37,1.17,1.17,0,0,1,1.49.7,1.15,1.15,0,0,1-.7,1.49,127.46,127.46,0,0,0-29.3,15.1A1.15,1.15,0,0,1,295.14,155.1Z"/><path class="cls-6" d="M205.82,195.83a1.13,1.13,0,0,1-.81-.33,1.15,1.15,0,0,1,0-1.64,99.67,99.67,0,0,1,16.6-14.1,60.69,60.69,0,0,1,10.16-5.29,77.82,77.82,0,0,1,9.82-3.2,1.17,1.17,0,1,1,.59,2.26,73.54,73.54,0,0,0-9.51,3.09,59.17,59.17,0,0,0-9.78,5.09,97.23,97.23,0,0,0-16.21,13.77A1.14,1.14,0,0,1,205.82,195.83Z"/><path class="cls-6" d="M205.47,168.13a1.17,1.17,0,0,1-.39-2.27c5.31-1.86,10.78-2.34,16.06-2.81,1.34-.12,2.68-.24,4-.38a98.7,98.7,0,0,1,12.15-.48,55.77,55.77,0,0,1,11.78,1.06,1.16,1.16,0,0,1,.87,1.4,1.14,1.14,0,0,1-1.4.87,54.53,54.53,0,0,0-11.29-1,97.93,97.93,0,0,0-11.86.47c-1.37.14-2.73.26-4.08.38-5.37.48-10.45.93-15.48,2.69A1.34,1.34,0,0,1,205.47,168.13Z"/><path class="cls-6" d="M243,206.86a1.33,1.33,0,0,1-.28,0,1.17,1.17,0,0,1-.86-1.41c.44-1.8.79-3.6,1.14-5.39a84.83,84.83,0,0,1,2-8.55,124.66,124.66,0,0,1,5.24-13.88,1.16,1.16,0,1,1,2.13.94,121.94,121.94,0,0,0-5.14,13.62,85.31,85.31,0,0,0-1.94,8.32c-.36,1.82-.72,3.65-1.16,5.49A1.17,1.17,0,0,1,243,206.86Z"/></g><path id="_Path_23" data-name="&lt;Path&gt;" class="cls-1" d="M328.94,98.79c0,.1,0,.2,0,.3a1.24,1.24,0,0,1-.19.89c-.41.52-1.24.31-1.82,0-1.25-.66-7.23-4.51-4.48-6.29.75-.48,1.77,0,2.4.65C326.19,95.67,328.55,96.8,328.94,98.79Z"/><path id="_Path_24" data-name="&lt;Path&gt;" class="cls-1" d="M333.29,96.94c-.69,1-2.54-1.19-3.63-2.11-2-1.73-3.47-2.87-3.54-5.6a1.59,1.59,0,0,1,1.74-.15,4.66,4.66,0,0,1,1.42,1.2c1.21,1.35,4.41,3.58,4.28,5.64A2,2,0,0,1,333.29,96.94Z"/><path id="_Path_25" data-name="&lt;Path&gt;" class="cls-1" d="M177.45,187.27c-.22-1.55-2.81-10-5.42-7.59-1.57,1.45,2.34,6.47,3.29,7.75a2.46,2.46,0,0,0,1,.88.9.9,0,0,0,1.13-.34A1.28,1.28,0,0,0,177.45,187.27Z"/><path id="_Path_26" data-name="&lt;Path&gt;" class="cls-1" d="M181.48,178.22c-.66-.84-1.86-2.27-3.1-1.92-3.12.88,2.07,5.88,3.1,6.47a1.12,1.12,0,0,0,.94.2c.37-.15.48-.63.49-1A6,6,0,0,0,181.48,178.22Z"/><path id="_Path_27" data-name="&lt;Path&gt;" class="cls-3" d="M40.23,475.54a48,48,0,0,0,14.88,10,76.07,76.07,0,0,0,8.6,3.22c30.58,5.27,62.58,9.27,93.54,3.68q4.71-.56,9.39-1.26,9.38-1.41,18.64-3.45c12.46-2.75,14.26-18.74,4.95-26.72a19.17,19.17,0,0,0-8.4-3.72,49.11,49.11,0,0,0-7.75-1,46.31,46.31,0,0,0-12,1.45,84.11,84.11,0,0,1-10.19,3.87c-24.6,7.4-50.6,5.4-74.6-3.56a17.44,17.44,0,0,1-8.62-5.66l-6,.2A3.9,3.9,0,0,0,59,457.18l.89,5.61a3.9,3.9,0,0,1-2.63,4.32A4,4,0,0,0,55,469.19h0a2.84,2.84,0,0,1-5.15-.08,29.12,29.12,0,0,0-2.15-4.33,4.18,4.18,0,0,0-7.42,2.65Z"/></svg>