<svg id="Layer_1" data-name="Layer 1" xmlns="http://www.w3.org/2000/svg" viewBox="0 0 500 500"><defs><style>.cls-1{fill:#df918d;}.cls-2{fill:#e3b39c;}.cls-3{fill:#633237;}.cls-4{fill:#f8ecb9;}.cls-5{fill:#221e20;}.cls-6{fill:#1d1d1d;}.cls-7{fill:#bba381;}.cls-8{fill:#df8f8c;}.cls-9{fill:#1d1c1a;}</style></defs><title>Artboard 1 copy 12</title><g id="_Group_" data-name="&lt;Group&gt;"><g id="_Group_2" data-name="&lt;Group&gt;"><path id="_Path_" data-name="&lt;Path&gt;" class="cls-1" d="M159,241c8.78-4.77,18.71-3.95,27.7-11,14-11,26.4-25.09,34-41.3,2.78-5.9,2.51-15.22,5.37-20.05,3.32-5.58,12.69-6.7,13.93-13.73.47-2.68-.75-5.34-2-7.77a239.93,239.93,0,0,0-48.15-65.25c-11.13-10.62-27.56-29.26-44.88-25.1-15.63,3.76-22.79,17.68-31.3,29.3-14,19.07-25.47,41.25-34.49,63.08-9.53,23.07-18.1,47.88-22.07,72.67-3.58,22.4.89,41.7,4.24,63.48,11.76-19.41,33.49-15.2,52.85-20.29C133.21,260.05,142.4,250,159,241Z"/><path id="_Path_2" data-name="&lt;Path&gt;" class="cls-1" d="M281.51,66.89c3.77-9.83,7.65-22.84,16.66-29.24,12.61-8.95,26.89,3.52,37.53,10.14,26.91,16.75,48.85,39.78,66.33,66.08l1.43,2.16c23.79,36,42.88,77.57,45.39,121.2q.21,3.75.26,7.51c-19.36-21.46-52.11-34.26-77.76-47.49A240.55,240.55,0,0,0,318.3,177.1a198.48,198.48,0,0,0-27.94-4.8c-7-.68-13.1.54-17.14-6.25-2.82-4.74-3.93-12.82-4.84-18.24-3.38-20.21-.26-40.74,6.1-60C276.31,82.23,278.56,74.56,281.51,66.89Z"/><path id="_Path_3" data-name="&lt;Path&gt;" class="cls-2" d="M281,456.14c14.09-1.09,28.22-4.16,41.85-7.75,62.5-16.47,123.38-57.58,138.13-124.17,13.62-61.54-8.47-135.7-65.05-168.59-73.65-42.82-177.92-46.74-256-12.91-18.61,8.06-36,19.16-50.51,33.44a130.12,130.12,0,0,0-38,108.61c5.43,46.56,23,93.72,57.32,126.75C154.44,455.59,220.32,463.54,281,456.14Z"/><path id="_Path_4" data-name="&lt;Path&gt;" class="cls-3" d="M272.47,181.29c8.89-14.94,4.85-40.92-4.85-60.9a317.82,317.82,0,0,0-43.55,1.27c-2,11.58-1.08,25.17,2.13,37.45C231.48,179.27,254.89,210.86,272.47,181.29Z"/><path id="_Path_5" data-name="&lt;Path&gt;" class="cls-4" d="M273.05,300.81c3.38,56.83,24.21,30.59,41.7,33.37C332.9,337.07,344,315.26,335,300.55c-11.17-18.33-32.58-26-52.08-29.24a57.17,57.17,0,0,0-9.4-.95c-23,0-72.83,34.71-62.26,62.51,3.71,9.77,16.95,15.51,26.65,15.23,15.83-.45,32.67-6.79,37.45-20.62,3-8.63-2.47-23.31-4.28-31.67C271.66,297.49,273,299,273.05,300.81Z"/><path id="_Path_6" data-name="&lt;Path&gt;" class="cls-5" d="M295.17,337.2a1.32,1.32,0,0,0-1.58-.52,10.66,10.66,0,0,1-8.28-.64c-7.79-4-8.08-12-9-18.6q-1-7.11-2-14.2-1.51-10.56-3.05-21.13c-.07-.52-.7-.82-1.36-.8s-1.17.59-1.1,1.11q1.21,8.35,2.41,16.7,1.08,7.51,2.17,15c.52,3.63.51,7.61,1.32,11.17-.09,6.23-5.69,14.34-12.64,16.06-.66.16-1.05.7-.88,1.21a1.25,1.25,0,0,0,1.52.62c7.21-1.77,11.54-9.19,13.53-13.71a18.41,18.41,0,0,0,7.73,8.16,13.44,13.44,0,0,0,7.52,1.42,14.82,14.82,0,0,0,3-.63A1,1,0,0,0,295.17,337.2Z"/><path id="_Path_7" data-name="&lt;Path&gt;" class="cls-6" d="M238.24,270.21c-3.63,4-5.39,9.93-3.51,15,2.12,5.71,8,9,13.68,11.29,5.27,2.15,10.8,3.9,16.49,4.08a31.33,31.33,0,0,0,24.69-11.09C319.5,253.56,257.26,249.25,238.24,270.21Z"/><path id="_Path_8" data-name="&lt;Path&gt;" class="cls-7" d="M243.37,306.52c1.56-7.29-11-.69-4,2.1A3.09,3.09,0,0,0,243.37,306.52Z"/><path id="_Path_9" data-name="&lt;Path&gt;" class="cls-7" d="M226.63,316c1.56-7.3-11-.69-4,2.1A3.1,3.1,0,0,0,226.63,316Z"/><path id="_Path_10" data-name="&lt;Path&gt;" class="cls-7" d="M237.83,330.83c1.56-7.3-11-.7-4,2.09A3.09,3.09,0,0,0,237.83,330.83Z"/><path id="_Path_11" data-name="&lt;Path&gt;" class="cls-7" d="M322.09,303.7c7.44.59-.75-10.95-2.6-3.71A3.09,3.09,0,0,0,322.09,303.7Z"/><path id="_Path_12" data-name="&lt;Path&gt;" class="cls-7" d="M320.67,323.53c1.66.26,3.51-.49,3.71-2.47.37-3.6-5.44-4.6-6.33-1.09C317.53,322,319,323.27,320.67,323.53Z"/><path id="_Path_13" data-name="&lt;Path&gt;" class="cls-7" d="M302.84,300.54c3.29.26,4.68-1.83,2.79-4.55C301.73,290.39,296.35,300,302.84,300.54Z"/><path id="_Path_14" data-name="&lt;Path&gt;" class="cls-8" d="M107.36,305.83c-5.54-.68-10.8-2.65-14-6.7-5.17-6.64-5.51-17.12,1.43-22.66,7.94-6.35,26.86-9.11,35.73-2.73,15.09,10.85,6.76,28.26-9.51,31.52A44.34,44.34,0,0,1,107.36,305.83Z"/><path id="_Path_15" data-name="&lt;Path&gt;" class="cls-8" d="M410.22,265.15c-5.55-.63-10.83-2.55-14-6.56-5.24-6.59-5.68-17.07,1.2-22.68,7.88-6.43,26.77-9.37,35.7-3.09,15.2,10.7,7,28.19-9.19,31.61A44.38,44.38,0,0,1,410.22,265.15Z"/><path class="cls-9" d="M364.82,204c-3.41-2.5-8.52-1.39-11.65,1.26-1.89,1.28-3.06,3.36-4.1,5.4a49.9,49.9,0,0,0-2.64,7.1l1.15-3.39c-2,5.81-3.52,12.4.23,18a13,13,0,0,0,7.75,5.73c3.58.85,6.4-.16,9.54-1.82,6.07-3.19,7-11.73,7.25-18a20.77,20.77,0,0,0-1.14-6.31C370.08,208,367.75,206.19,364.82,204Z"/><path class="cls-9" d="M141.83,222.52c-3.85,4.57-4.39,10.06-4.74,15.92-.36,6.19,2.31,11.22,6.07,15.63,3.61,4.22,11.66,3.82,14.83-.73A25,25,0,0,0,161.9,246c.85-2.82.66-5.87.59-8.81-.13-5.52-2.44-11.64-6.28-15.38A9.83,9.83,0,0,0,141.83,222.52Z"/></g><path class="cls-5" d="M303.93,298.11a2,2,0,0,1-.68-.45,2.06,2.06,0,0,1,0-2.91C319.47,278.61,340.12,261.43,363,245a2.06,2.06,0,1,1,2.4,3.35c-22.68,16.26-43.16,33.3-59.22,49.28A2,2,0,0,1,303.93,298.11Z"/><path class="cls-5" d="M323.23,302a2.05,2.05,0,0,1,0-3.8l3.21-1.35c10.52-4.42,21.4-9,32.43-12.43,2.7-.84,5.4-1.7,8.09-2.56,11-3.51,22.44-7.15,34.22-9.5a2.06,2.06,0,0,1,.81,4c-11.56,2.32-22.36,5.75-33.78,9.4-2.7.86-5.4,1.72-8.12,2.56-10.83,3.38-21.62,7.91-32.06,12.29L324.81,302A2.06,2.06,0,0,1,323.23,302Z"/><path class="cls-5" d="M321.53,322.14a2.06,2.06,0,0,1,.34-3.92,229.46,229.46,0,0,1,59-5.06,2.06,2.06,0,0,1-.18,4.12,225.3,225.3,0,0,0-58,5A2,2,0,0,1,321.53,322.14Z"/><path class="cls-5" d="M148.38,328.66a2.06,2.06,0,0,1,0-3.79c13.3-5.79,25.26-9.67,36.55-11.87A108.63,108.63,0,0,1,205,311.18a138.55,138.55,0,0,1,18.19,1.38,2.06,2.06,0,0,1-.57,4.08,129,129,0,0,0-17.58-1.34A104.81,104.81,0,0,0,185.68,317c-11,2.14-22.68,5.94-35.69,11.6A2.09,2.09,0,0,1,148.38,328.66Z"/><path class="cls-5" d="M166.41,283.2a2.06,2.06,0,0,1,.9-4c9.91.53,19.15,3.41,28.08,6.19,2.27.7,4.54,1.41,6.85,2.09a176,176,0,0,1,20.15,7.37c6.84,2.94,13,5.7,18.51,9.64a2.05,2.05,0,0,1,.49,2.87,2,2,0,0,1-2.87.48c-5.22-3.7-11.13-6.36-17.76-9.21a171.07,171.07,0,0,0-19.69-7.2c-2.32-.68-4.61-1.4-6.9-2.11-9.1-2.83-17.69-5.5-27.08-6A2.17,2.17,0,0,1,166.41,283.2Z"/><path class="cls-5" d="M201.65,371.6a1.72,1.72,0,0,1-.42-.23,2.06,2.06,0,0,1-.46-2.88c1.92-2.65,3.7-5.34,5.47-8a148.84,148.84,0,0,1,9-12.61,220.59,220.59,0,0,1,17.86-19.15,2.06,2.06,0,0,1,2.85,3,215.41,215.41,0,0,0-17.53,18.79,143.5,143.5,0,0,0-8.75,12.27c-1.81,2.74-3.63,5.48-5.58,8.18A2.06,2.06,0,0,1,201.65,371.6Z"/></g><path id="_Path_16" data-name="&lt;Path&gt;" class="cls-2" d="M414.49,252.91a4.07,4.07,0,0,1-.13.5,2.16,2.16,0,0,1-.92,1.33c-1,.57-2.22-.32-3-1.21-1.6-1.91-8.78-12.21-3.09-13.26,1.55-.29,2.88,1.2,3.48,2.67C412.09,246,415.19,249.39,414.49,252.91Z"/><path id="_Path_17" data-name="&lt;Path&gt;" class="cls-2" d="M422.84,252.8c-1.81,1.17-3.36-3.64-4.51-5.88-2.16-4.18-3.75-7-2-11.52a2.84,2.84,0,0,1,2.95.93,8.35,8.35,0,0,1,1.5,2.9c1.08,3,4.8,8.82,3.21,12.08A3.62,3.62,0,0,1,422.84,252.8Z"/><path id="_Path_18" data-name="&lt;Path&gt;" class="cls-2" d="M107.83,295.64c.68-2.68,2.12-18.19-3.76-16-3.54,1.3-.52,12.12.17,14.86a4.27,4.27,0,0,0,1,2.07,1.58,1.58,0,0,0,2.09.2A2.26,2.26,0,0,0,107.83,295.64Z"/><path id="_Path_19" data-name="&lt;Path&gt;" class="cls-2" d="M120.49,283.58c-.53-1.83-1.53-5-3.78-5.22-5.69-.66-.57,11,.71,12.64a2,2,0,0,0,1.4.95c.71,0,1.22-.7,1.5-1.35A10.69,10.69,0,0,0,120.49,283.58Z"/></svg>