<svg id="Layer_1" data-name="Layer 1" xmlns="http://www.w3.org/2000/svg" viewBox="0 0 500 500"><defs><style>.cls-1{fill:#ee7d4d;}.cls-2{fill:#f39b56;}.cls-3{fill:#73481d;}.cls-4{fill:#712b15;}.cls-5{fill:#e52a29;}.cls-6{fill:#eae334;}.cls-7{fill:#af7823;}.cls-8{fill:#221e20;}.cls-9{fill:#c65f3d;}.cls-10{fill:#ef804e;}</style></defs><title>Artboard 1 copy 5</title><g id="_Group_" data-name="&lt;Group&gt;"><path id="_Path_" data-name="&lt;Path&gt;" class="cls-1" d="M287.07,396c5.79-7.4,12.9-15,22.23-16,12.29-1.37,26.35,8.87,34.51,17.22,10.78,11,13,29.61,10.88,44.25-.69,4.68-2.31,9.86-5.13,13.73-1.28,1.74-6.15,7.36-8.46,7.07,7.21.91,19.87-1.37,24.09,6.64,6.08,11.57-7.59,15.43-15.73,14.63-16.72-1.65-33.68-3.94-49.21-10.73-18.16-7.93-23.5-40.1-14.91-56.47Z"/><path id="_Path_2" data-name="&lt;Path&gt;" class="cls-2" d="M158.09,465.29c-17.32-16.34-30-42.11-33.81-65.23C120.21,375.35,111.52,348,87.65,335,74.11,327.61,56.06,320.05,55,302.54c-1.22-20.74,20-22.1,35.43-18.78,36.07,7.76,60.81,37.42,66.12,73.64,1.79,12.27,2.16,24.73,3.94,37,3.29,22.64,10.15,52.22,35.26,59.63,5.32,1.57,12,2.92,13.55,8.25,1.16,4-1.67,8.3-5.39,10.18s-8.08,1.89-12.24,1.72C178.57,473.65,168.64,475.25,158.09,465.29Z"/><path id="_Path_3" data-name="&lt;Path&gt;" class="cls-1" d="M287.81,302c1,3,28.92,45.88,83.76,39.89,0,0,27.93,20.95,35.9,0,0,0,14-46.87-31.91-34.9,0,0-49.86-3-76.79-47.87Z"/><path id="_Path_4" data-name="&lt;Path&gt;" class="cls-2" d="M211,223.22c-11.67,18.51-19,40.32-24.72,61.25a408.84,408.84,0,0,0-13.06,75.78c-1.32,16.27-1.79,32.62-1.5,48.94s-1.57,38.39,4.82,53.53c5.79,13.74,14.87,18.35,28.43,20.83,13,2.37,26.12,4.22,39.3,5.35,27.94,2.41,59.51,3.06,85.4-9.39,0,0,1-186.48-34.9-242.33Z"/><path id="_Path_5" data-name="&lt;Path&gt;" class="cls-1" d="M225.92,278.51c-4.25,1,6.42,7.69,7.12,8.37a180.29,180.29,0,0,1,14.81,16.44,172.1,172.1,0,0,1,22.59,36.62c5.48,12.24,16.84,48.57-1.63,55.43-13.42,5-15.32-15.17-18-23.49-6.62-20.89-18.16-44.51-34.55-59.58-1.08-1-2.81-1.95-3.84-.9C215,319.86,223,328,227.56,335.71a278.85,278.85,0,0,1,13.23,25.08c5.14,11.09,9.12,39.86,22.64,41,7.6.65,17.08-3.92,18.39-12.06,3.62-22.39-2.13-45-13.19-64.5a147.29,147.29,0,0,0-19.79-26.9c-3.59-3.9-17.07-20.68-22.56-19.92Z"/><path id="_Path_6" data-name="&lt;Path&gt;" class="cls-3" d="M259.08,310.91A162.25,162.25,0,0,0,246,295.68c-2.8,11.9-10.63,19.69-20.28,26.73-1.2.87-2.79,1.95-4.44,3.18,3.69,5.67,7.13,11.49,10.41,17.41l1.42-.5C246.75,337.22,252.67,323.05,259.08,310.91Z"/><path id="_Path_7" data-name="&lt;Path&gt;" class="cls-3" d="M248.72,384.35c11.64-2,22.62-7.87,33.08-13.7l1-.56a93.62,93.62,0,0,0-4.89-24.51c-7.19,6.13-14.73,11.91-23.1,16.31-3.31,1.74-7.82,2.79-12,4.19C244.59,371.39,246.41,378.14,248.72,384.35Z"/><path id="_Path_8" data-name="&lt;Path&gt;" class="cls-4" d="M351.32,341.9A129.46,129.46,0,0,0,364,305.11a111.67,111.67,0,0,1-20.82-7c-4.12,13.64-5.22,24.35-15.54,36.13l-.91,1A84.24,84.24,0,0,0,351.32,341.9Z"/><path id="_Path_9" data-name="&lt;Path&gt;" class="cls-3" d="M188.87,275.67c-2.47,8.12-4.89,17.15-7.1,27.13a35.52,35.52,0,0,0,26.11.27c2-.78,4.06-1.91,4.87-3.89a7.24,7.24,0,0,0,.16-4.13C210.85,284.21,199.7,277.6,188.87,275.67Z"/><path id="_Path_10" data-name="&lt;Path&gt;" class="cls-3" d="M200.84,353.54a14.57,14.57,0,0,0,5.28-2.89c2.76-2.59,3.65-6.74,3-10.47a23.16,23.16,0,0,0-5.05-10c-5.43-6.84-15-13.56-24.75-15.37-2.12,11.22-3.92,23.49-5.25,36.73A35.27,35.27,0,0,0,200.84,353.54Z"/><path id="_Path_11" data-name="&lt;Path&gt;" class="cls-5" d="M294.79,237.18l-51.11-8.51-28.77.23a72,72,0,0,0-7.43.46,234.12,234.12,0,0,0-13,29.64c7.08,4.92,16.58,8.58,21.78,10.93,29.31,13.25,63.23,12.08,94.43,7.64C306.38,261.17,301.17,247.11,294.79,237.18Z"/><path id="_Path_12" data-name="&lt;Path&gt;" class="cls-6" d="M262.36,283.59c-1.43,26.33,41.79,37.25,41.93,7a37.44,37.44,0,0,0-4-17.06C290.21,253.7,263.49,262.85,262.36,283.59Z"/><path id="_Path_13" data-name="&lt;Path&gt;" class="cls-7" d="M279.52,277.68a4,4,0,0,0,3.57,4.47c.43,0,.92,0,1.21.29a1.39,1.39,0,0,1,.25,1l-.14,7.59c0,1.81,0,3.78,1,5.25,2.31,3.22,4.94.61,5.05-2.15.11-3.06-1.39-7.87-2.61-10.7a1.09,1.09,0,0,1-.1-.94c.23-.41.81-.33,1.28-.34,1.72,0,2.95-2,2.57-3.7C290.57,273.77,280.53,272.18,279.52,277.68Z"/><path id="_Path_14" data-name="&lt;Path&gt;" class="cls-2" d="M392.38,86.12c1.95-12.57,3.87-25.13,4.34-37.85.33-8.9.66-19-4-26.95C388,13,379.63,9.23,371,13.66a19.83,19.83,0,0,0-10.56,17.07c-16.13-.29-31.79,1.1-47.75.08-17.07-1.09-35.35,0-52.52.12-33.64.29-67.25,2.26-100.89,2.12a2.39,2.39,0,0,1-1.3-.25,2.52,2.52,0,0,1-.84-1.3,26.6,26.6,0,0,0-8.08-11c-12.19-9.76-23.36,2.83-25.95,14.33a270.24,270.24,0,0,0,1,125.19c4.84,19.8,12.23,41.93,27.19,56.7,17.53,17.31,35.47,25.82,59.35,30.76,24.91,5.16,47.78,4,72.3-1.07a134.26,134.26,0,0,0,48.93-20.72C379.21,193.07,384.17,139.07,392.38,86.12Z"/><path id="_Path_15" data-name="&lt;Path&gt;" class="cls-8" d="M249.9,142.83c4.13-.15,8.37-1.62,11-4.76,6.6-7.72,2.48-21.18-7.69-23.19-8.65-1.71-17.52,3.84-18,12.81A14.08,14.08,0,0,0,249.9,142.83Z"/><path id="_Path_16" data-name="&lt;Path&gt;" class="cls-3" d="M196.43,32.54c.26,7.19,2.32,14.52,5.53,19.4a21.9,21.9,0,0,0,3.9,4.57,16.93,16.93,0,0,0,9.8,4,11.12,11.12,0,0,0,7-1.61c4.37-3,4.72-9.22,4.63-14.52-.07-3.67.6-8.23,1-12.82C217.65,31.9,207,32.25,196.43,32.54Z"/><path id="_Path_17" data-name="&lt;Path&gt;" class="cls-3" d="M235.87,31.38a134,134,0,0,0,3.84,17.73c1,3.71,2.38,7.49,5.09,10.21s7.12,4.11,10.52,2.3c2.73-1.45,4.17-4.51,5.17-7.44a63.66,63.66,0,0,0,2.86-23.3l-3.18.05C252.07,31,244,31.17,235.87,31.38Z"/><path id="_Path_18" data-name="&lt;Path&gt;" class="cls-3" d="M279.89,30.54c.32,7.22,3.16,15.42,5.13,20.07,1.55,3.69,3.63,7.32,6.89,9.63s7.94,3,11.24.74c3.06-2.09,4.21-6,4.87-9.64a51.18,51.18,0,0,0-.64-20.79C298.37,30.19,289.1,30.33,279.89,30.54Z"/><path id="_Path_19" data-name="&lt;Path&gt;" class="cls-8" d="M277.25,203.67a1.82,1.82,0,0,0-2.11-.94,14.83,14.83,0,0,1-11.34-2c-10.2-6.55-9.5-17.68-9.91-26.92L253,153.92q-.66-14.79-1.31-29.58c0-.74-.85-1.24-1.78-1.29s-1.69.64-1.66,1.38q.53,11.69,1,23.38l.93,21.05c.23,5.08-.34,10.57.29,15.59-1,8.6-10.31,13.77-20.14,15.18-.93.13-1.55.83-1.37,1.55a1.74,1.74,0,0,0,2,1.07c10.2-1.46,17.68-5.84,21.05-11.81a25.45,25.45,0,0,0,9.55,12.32,18.62,18.62,0,0,0,10.18,3,20.66,20.66,0,0,0,4.24-.45C277,205.11,277.49,204.38,277.25,203.67Z"/><path id="_Path_20" data-name="&lt;Path&gt;" class="cls-9" d="M227.44,131.27c.21-3.14-3.22-4.38-5.61-2.43s-.68,5,1.83,5.37A3.4,3.4,0,0,0,227.44,131.27Z"/><path id="_Path_21" data-name="&lt;Path&gt;" class="cls-9" d="M214.53,153.94c.2-3.14-3.22-4.38-5.61-2.43s-.69,5,1.83,5.37A3.41,3.41,0,0,0,214.53,153.94Z"/><path id="_Path_22" data-name="&lt;Path&gt;" class="cls-9" d="M227.44,175.17c.21-3.14-3.22-4.38-5.61-2.43s-.68,5,1.83,5.37A3.4,3.4,0,0,0,227.44,175.17Z"/><path id="_Path_23" data-name="&lt;Path&gt;" class="cls-9" d="M273.79,130.7c-.2-3.15,3.23-4.38,5.61-2.43s.69,5-1.83,5.37A3.41,3.41,0,0,1,273.79,130.7Z"/><path id="_Path_24" data-name="&lt;Path&gt;" class="cls-9" d="M286.71,153.37c-.21-3.15,3.22-4.39,5.6-2.43s.69,5-1.83,5.37A3.41,3.41,0,0,1,286.71,153.37Z"/><path id="_Path_25" data-name="&lt;Path&gt;" class="cls-9" d="M273.79,174.6c-.2-3.15,3.23-4.38,5.61-2.43s.69,5-1.83,5.37A3.43,3.43,0,0,1,273.79,174.6Z"/><path id="_Path_26" data-name="&lt;Path&gt;" class="cls-10" d="M171.62,137.35c-2.28,8.79-21.19,8.5-28,6.58-10.79-3.05-12.68-14.65-2.06-19.5,9.18-4.2,27.24-4.27,30,8.73A9,9,0,0,1,171.62,137.35Z"/><path id="_Path_27" data-name="&lt;Path&gt;" class="cls-10" d="M331,136.77c2.29,8.8,21.19,8.5,28,6.59,10.79-3.05,12.68-14.65,2.07-19.51-9.18-4.2-27.25-4.27-30,8.74A8.93,8.93,0,0,0,331,136.77Z"/><path class="cls-8" d="M278.69,131.71a1.72,1.72,0,0,1-.48-3.37l3.86-1.12c3.46-1,7-2,10.48-3.18a150.28,150.28,0,0,1,20.32-4.8c1.59-.29,3.19-.59,4.78-.9a233.25,233.25,0,0,1,27.18-4,1.74,1.74,0,0,1,1.85,1.58,1.72,1.72,0,0,1-1.58,1.85,233.5,233.5,0,0,0-26.79,3.9l-4.81.91a145.43,145.43,0,0,0-19.85,4.68c-3.52,1.18-7.13,2.22-10.63,3.22l-3.84,1.11A1.71,1.71,0,0,1,278.69,131.71Z"/><path class="cls-8" d="M351.83,157.33l-.25,0a180.1,180.1,0,0,0-21.28-1.44c-3-.09-6-.18-9-.32-2.5-.12-5-.28-7.5-.43-7.82-.48-15.91-1-23.82-.46a1.72,1.72,0,0,1-.23-3.43c8.13-.55,16.34,0,24.26.45,2.49.15,5,.31,7.46.43,3,.14,6,.23,8.94.31a184.09,184.09,0,0,1,21.68,1.48,1.72,1.72,0,0,1-.25,3.43Z"/><path class="cls-8" d="M316.21,195.28a1.71,1.71,0,0,1-.75-.17c-13.21-6.38-26.53-12.93-39.56-19.49a1.72,1.72,0,0,1,1.55-3.08c13,6.55,26.31,13.1,39.51,19.47a1.72,1.72,0,0,1-.75,3.27Z"/><path class="cls-8" d="M223.51,132.45a1.76,1.76,0,0,1-.6-.1l-13.81-5.13c-7.27-2.7-15-4.31-22.46-5.87-6.12-1.27-12.46-2.58-18.58-4.5a1.72,1.72,0,1,1,1-3.29c6,1.87,12.21,3.17,18.25,4.43,7.6,1.57,15.45,3.21,23,6l13.81,5.13a1.72,1.72,0,0,1-.6,3.33Z"/><path class="cls-8" d="M151.7,159.12a1.72,1.72,0,0,1-.41-3.4c9.47-2.3,17.49-4.12,27.23-4.91a153.14,153.14,0,0,1,32,.71,1.73,1.73,0,0,1,1.49,1.93,1.7,1.7,0,0,1-1.93,1.49,149,149,0,0,0-31.25-.7c-9.49.78-17.37,2.57-26.7,4.83A1.83,1.83,0,0,1,151.7,159.12Z"/><path class="cls-8" d="M177.18,189.11a1.72,1.72,0,0,1-.62-3.33c9.74-3.75,20-6.14,29.87-8.44,5.35-1.24,10.87-2.53,16.21-4a1.72,1.72,0,1,1,.92,3.31c-5.41,1.5-11,2.8-16.35,4.05-9.78,2.28-19.9,4.64-29.41,8.3A1.67,1.67,0,0,1,177.18,189.11Z"/><path id="_Path_28" data-name="&lt;Path&gt;" class="cls-2" d="M151.16,140c-.26-1.65-3.84-13.39-6.17-11-1.92,2-.08,6.16.78,8.14s2.3,4.07,4.45,4.26a1,1,0,0,0,.6-.08C151.24,141.11,151.23,140.51,151.16,140Z"/><path id="_Path_29" data-name="&lt;Path&gt;" class="cls-2" d="M158.92,138c-.18-1.66-2.59-13.4-4.16-11-1.3,2-.06,6.16.52,8.14s1.55,4.07,3,4.27a.55.55,0,0,0,.41-.09C159,139.1,159,138.51,158.92,138Z"/><path id="_Path_30" data-name="&lt;Path&gt;" class="cls-2" d="M348.48,138.42c.42-3.21-2.68-11.53-6.52-11.22C340.3,127.33,347.63,144.85,348.48,138.42Z"/><path id="_Path_31" data-name="&lt;Path&gt;" class="cls-2" d="M357.38,139.08c.14-3.31-3.47-9.15-5-12.19-.3-.62-.8-1.35-1.48-1.22s-.9,1.11-.81,1.86a30.06,30.06,0,0,0,1.53,6c.9,2.54,2.1,5.33,4.61,6.31a1,1,0,0,0,.7.07A.94.94,0,0,0,357.38,139.08Z"/><path id="_Path_32" data-name="&lt;Path&gt;" class="cls-2" d="M203,392.35c15.48-2.09,30.16,12,33.29,26.07,3.49,15.77,2.77,32.78-5.24,47.21,1.37-2.48,16.29.76,18.48,1.65a32.33,32.33,0,0,1,13.37,11c3.28,4.94,4.53,12.32-2.18,14.7-21.5,7.64-51.08,2.84-70.7-8-12.51-6.95-16.86-11.51-19.74-25.78-4.07-20.15-3.06-44.28,4.78-63.46Z"/><path id="_Path_33" data-name="&lt;Path&gt;" class="cls-1" d="M262.87,478.29a32.33,32.33,0,0,0-13.37-11c-2.19-.89-17.11-4.13-18.48-1.65,8-14.43,8.73-31.44,5.24-47.21-.19-.83-.42-1.67-.68-2.5-.09-.27-.2-.54-.29-.82-.2-.55-.39-1.1-.62-1.65-.13-.33-.29-.65-.43-1-.22-.48-.44-1-.69-1.44s-.36-.7-.55-1-.5-.88-.76-1.32-.44-.7-.67-1.05-.54-.81-.82-1.21c-5-7-10.22-12.91-17.93-16.87a6.12,6.12,0,0,0-2.62-.87,2.09,2.09,0,0,0-2.13,1.42,2.49,2.49,0,0,0,1.26,2.38,41.15,41.15,0,0,1,6.86,6.41c8.29,9.39,12,20.48,13.6,32.91.79,7.24.78,14.81-1.34,21.83-1.18,3.9-7.7,11.59-4.19,14.77,2.73,2.47,8.3,1.38,11.66,1.95,5.1.86,10.19,1.2,14.81,3.88,3.74,2.17,10,9.16,7.33,13.94-1.11,2-3.64,2.61-5.9,2.9a81.24,81.24,0,0,1-25-.32c-8-1.53-15.7-2.75-23.31-5.85-14.73-6-28-17.18-30.25-33.74-1.39-10.17-2.48-21-1-31.43.76-5.31,2.55-10.11,4.26-15.16,1.64-4.87,5-7.07,8.36-10.9a3.33,3.33,0,0,0,1-1.61c-5.72.06-12.2,7.65-14,12.75a71.71,71.71,0,0,0-3.25,15.28,121.07,121.07,0,0,0,1.39,39.1C173.13,473.44,177.48,478,190,485c14.41,8,34.21,12.69,52.23,11.59.51,0,1-.05,1.53-.09.89-.08,1.76-.18,2.64-.28.59-.07,1.19-.12,1.78-.2.89-.12,1.76-.28,2.64-.44.54-.09,1.09-.17,1.63-.28,1.06-.21,2.09-.47,3.12-.73l1.06-.25c1.38-.38,2.75-.8,4.07-1.28C267.4,490.61,266.15,483.23,262.87,478.29Z"/><path class="cls-8" d="M341.65,90.68c.36-.93.71-1.86,1.07-2.78.93-2.43-2.71-4.47-4.37-2.55a10.63,10.63,0,0,0-.18,13.93,2.64,2.64,0,0,0,3.7,0,11.82,11.82,0,0,0,1.69-14.7,2.64,2.64,0,0,0-4.51,0c-1.48,2.56-3.55,7.68-.44,9.87s6.34-2,4-4.75c-2.16-2.59-5.84,1.12-3.7,3.7l.2.24c-.22-.85-.44-1.7-.67-2.54.09-.19.17-.37.26-.55l1.85-.77h-.38l1.85.77c.51.52.36-.56.54-1.19a10.33,10.33,0,0,1,1-2.14h-4.51a6.55,6.55,0,0,1-.88,8.37h3.7a5.26,5.26,0,0,1,.18-6.54l-4.37-2.54-1.08,2.78c-1.21,3.14,3.85,4.5,5,1.39Z"/><path class="cls-8" d="M170.83,86.82a12.24,12.24,0,0,0,1.68,8.89,2.65,2.65,0,0,0,4.1.53,10.32,10.32,0,0,0,0-14.39,2.63,2.63,0,0,0-3.69,0,11.68,11.68,0,0,0-1.28,12.93,2.64,2.64,0,0,0,4.1.53A7.22,7.22,0,0,0,176.2,85a2.54,2.54,0,0,0-2.55-.67c-4.57,1.69-6.46,8.35-2.27,11.61a2.71,2.71,0,0,0,3.17.41A6,6,0,0,0,175.5,87c-2.43-2.32-6.14,1.37-3.7,3.7.27.25.53.83.11,1.11l3.17.41c-.76-.59-1.32-2.4,0-2.87l-2.55-.67a2,2,0,0,1-.43,2.9l4.11.53a6.23,6.23,0,0,1,.46-6.59H173a5,5,0,0,1,0,7l4.1.53a6.82,6.82,0,0,1-1.15-4.86c.54-3.29-4.5-4.7-5-1.39Z"/></g></svg>