<svg id="Layer_1" data-name="Layer 1" xmlns="http://www.w3.org/2000/svg" viewBox="0 0 500 500"><defs><style>.cls-1{fill:#f0b7c5;}.cls-2{fill:#c799a7;}.cls-3{fill:#ebdcd8;}.cls-4{fill:#ec90b0;}.cls-5{fill:#19131c;}.cls-6{fill:#cc658d;}.cls-7{fill:#1d1c1a;}</style></defs><title>Artboard 1 copy 14</title><path id="_Path_" data-name="&lt;Path&gt;" class="cls-1" d="M353.34,107.55s84.19-54.81,101.05-27.42c0,0,38.72,44.2-35.52,121.85Z"/><path id="_Path_2" data-name="&lt;Path&gt;" class="cls-2" d="M422.8,97.71c32.56-7.38,6.21,56.61-1.28,67a18.74,18.74,0,0,1-5.8,5.79c-3.52,1.94-7.89,1.69-11.71.47-12.49-4-19.86-16.52-26.08-28.07C367.93,124.35,410.11,100.59,422.8,97.71Z"/><path id="_Path_3" data-name="&lt;Path&gt;" class="cls-1" d="M114.49,80c-14.71,2.41-18.29,14.74-15.6,36.28,3.45,27.64,15,54.9,25.88,80.25,10.68-9,87-80.47,94.21-72.52-21.8-24.1-52.57-36.12-83.65-42.64C126.74,79.57,119.87,79.12,114.49,80Z"/><path id="_Path_4" data-name="&lt;Path&gt;" class="cls-2" d="M120.09,111.55c4,22.37,12.15,42.22,23.88,61.82l43.58-36.74c1.53-1.36-21.35-18.09-23.51-19.25-11.15-6-23.09-12.11-35.76-14.21-2.64-.44-5.81-.7-7.53,1.35-1.37,1.63-1.17,4-.81,6.12Z"/><path id="_Path_5" data-name="&lt;Path&gt;" class="cls-1" d="M31.73,300.29S67,285.87,81.25,242.05c0,0,33.05-138.56,195.18-152.68,0,0,112.19-20.86,166.6,91.63,0,0,17,81.89,45.14,96.45-4.55,8.32-10.2,16.14-15.87,23.71C426,363,358.07,408.21,282.56,425.09c-52.29,11.69-107.17,13.41-154.92-13.58C84.43,387.1,51.52,345.27,31.73,300.29Z"/><g id="_Group_" data-name="&lt;Group&gt;"><path id="_Compound_Path_" data-name="&lt;Compound Path&gt;" class="cls-3" d="M230.65,285.44a32.58,32.58,0,0,0-3.51-7.69,20.81,20.81,0,0,0-4.22-4.82c-4.64-3.79-11-5.18-17.16-5.14a43.3,43.3,0,0,0-29.42,11.91,3.2,3.2,0,0,0-.27.25c0-.11-.06-.22-.1-.33-1.48-4.74-6.09-8.81-10.89-10.38-.42-.14-.85-.26-1.28-.38-9-2.37-21,.28-27.65,6.13-6.88,6-10.41,15-10.7,23.89-.39,11.85,7.35,23.77,20.63,24.68a29.17,29.17,0,0,0,7.7-.41c14.89-2.83,21.84-17.41,25.93-31,2.55,10.18,5.81,21.6,16.89,26.2a24.73,24.73,0,0,0,10.49,1.85c11.79-.42,23-8.78,25-20.27A30,30,0,0,0,230.65,285.44Z"/></g><path id="_Path_6" data-name="&lt;Path&gt;" class="cls-4" d="M125.66,256.34c5.78,6.8,2.09,16.45-4.32,21.41-7.12,5.52-18.2,3-25.79-.11-15.38-6.35-16.75-24.59-.23-31.24C105.17,242.43,119.21,248.77,125.66,256.34Z"/><g id="_Group_2" data-name="&lt;Group&gt;"><path id="_Path_7" data-name="&lt;Path&gt;" class="cls-4" d="M323.3,255.91c6.94,4.3,11.14,13.78,7.33,21-5.48,10.4-26.42,14.13-36.84,12-6.7-1.36-13-5.76-15.58-12.07C267.31,250.61,308.44,246.73,323.3,255.91Z"/><path id="_Path_8" data-name="&lt;Path&gt;" class="cls-1" d="M301,279.25c.65.71,1.61,1.45,2.47,1s.79-1.91.46-2.95a63.79,63.79,0,0,0-7.35-16.22,2,2,0,0,0-1.05-1,1.44,1.44,0,0,0-1,.12,3.28,3.28,0,0,0-1.66,3.18,19.88,19.88,0,0,0,2,6.85A41.85,41.85,0,0,0,301,279.25Z"/><path id="_Path_9" data-name="&lt;Path&gt;" class="cls-1" d="M311.6,275.71c.56.62,1.4,1.27,2.15.9s.69-1.67.39-2.58a55.68,55.68,0,0,0-6.4-14.15,1.77,1.77,0,0,0-.92-.83,1.32,1.32,0,0,0-.85.11,2.87,2.87,0,0,0-1.45,2.77,17.13,17.13,0,0,0,1.77,6A35.77,35.77,0,0,0,311.6,275.71Z"/></g><path id="_Path_10" data-name="&lt;Path&gt;" class="cls-1" d="M103.35,268.1c2.33-.21,1.19-5.39,1-6.68s-1.81-7.48-4-3.62c-.55,1-.12,3.5,0,4.58C100.42,264.08,100.77,268.33,103.35,268.1Z"/><path id="_Path_11" data-name="&lt;Path&gt;" class="cls-1" d="M114.24,266c2.33-.22,1.19-5.39,1-6.68s-1.81-7.49-4-3.62c-.55,1-.12,3.5,0,4.57C111.31,261.94,111.66,266.19,114.24,266Z"/><path class="cls-5" d="M313.83,226.43a18.86,18.86,0,0,0,3.85-7.67c.32-1.17.59-2.36.91-3.54.13-.44.26-.88.42-1.31-.5,1.47.87-.88-.41.6l-12.12-5V223.8c0,6,7.88,9.7,12.12,5a18.85,18.85,0,0,0,4.82-12.47c-.12-3.85-2.29-6.49-5.8-7.86-3.29-1.28-6.81,1-9.06,3.13-6.67,6.3,3.39,16.33,10,10l.48-.45a5.1,5.1,0,0,1-5,1l-3.14-1.83-1.47-2.51c-.13-1.35-.21-1.62-.22-.82.11-2.18-.08-.1-.25.5-.11.34-.22.68-.35,1,.38-.86.4-.94.07-.24s-1.56,2-.12.41l12.12,5V209.49c0-5.88-7.95-9.83-12.12-5a18.73,18.73,0,0,0-3.85,7.67c-.32,1.18-.59,2.36-.92,3.54-.12.44-.26.88-.41,1.31.49-1.47-.87.88.41-.6-2.54,2.92-2.88,7.16,0,10,2.59,2.59,7.5,2.93,10,0Z"/><path class="cls-5" d="M126.18,198.75a24.14,24.14,0,0,1-1.66,2.7c.47-.6.46-.6,0,0-.61.75-1.19,1.52-1.77,2.29-1.72,2.3-2.22,5.35-2.3,8.14-.17,5.51,6.12,8.69,10.68,6.13a13,13,0,0,0,6.34-8.2,31.69,31.69,0,0,0,.66-4.76c.23-2-.29,1.47.13-.62,0-.11.72-2.07.19-.89,1.6-3.52,1-7.61-2.55-9.71-3.08-1.81-8.11-1-9.71,2.54a26.89,26.89,0,0,0-2.26,8.68c0,.39-.08.79-.13,1.19.2-1.79-.07,0-.16.32.42-.85.44-.93.06-.23.25-.44,1.62-1.34.26-.58l10.69,6.13c.07-2.36-.38,1,.11-.81-.54,2,1-1.13-.2.42a37,37,0,0,0,3.89-5.56,7.21,7.21,0,0,0-2.55-9.72c-3.23-1.89-7.91-.87-9.71,2.55Z"/><path class="cls-6" d="M384.63,271.19c31.5-7.2,63.5-11.79,95.41-16.69,9-1.39,5.18-15.07-3.78-13.7-31.91,4.91-63.9,9.5-95.4,16.7-8.93,2-5.14,15.73,3.77,13.69Z"/><path class="cls-6" d="M380.36,302.45c33.55-2.15,67.43,6.1,98.29,18.83,8.47,3.49,12.12-10.25,3.77-13.69C450.51,294.43,415,286,380.36,288.25c-9.09.59-9.15,14.79,0,14.2Z"/><path class="cls-6" d="M90.07,279c-24.36-9.65-49.73-16.59-75.83-19.34-9.1-1-9,13.25,0,14.2,24.75,2.6,49,9.69,72.05,18.83C94.82,296,98.48,282.3,90.07,279Z"/><path class="cls-6" d="M82.72,306.58c-23.56,4.66-47.09,8.19-68.48,19.8-8,4.37-.89,16.63,7.16,12.26,20.2-11,42.86-14,65.09-18.36,9-1.78,5.17-15.46-3.77-13.7Z"/><path class="cls-7" d="M205,313.13c-6.76,2.08-12.61-1.41-16-7.58a27.23,27.23,0,0,1-3.12-11.47,19.65,19.65,0,0,1,.25-3.59,34.44,34.44,0,0,0,6.31-2,19.3,19.3,0,0,0,5.43-3.15c.69-.57,4.87-4.42,2.61-2.66a9.77,9.77,0,0,0,3.66-9.08,12.73,12.73,0,0,0-5.86-9.38A25.5,25.5,0,0,0,182.77,259c-9.57,0-18.31,2.9-21.11,13a21.89,21.89,0,0,0-.61,2.78c-.78,5.09,2.51,10.84,6.27,13.58a15.07,15.07,0,0,0,6.21,2.59c-.3,4.39-.64,8.76-2.18,13-3.5,9.74-9.42,12.29-18.52,12.75a3.09,3.09,0,0,0-1.19,5.91c11.77,5.83,21.54-3.4,27.24-15.44a36.56,36.56,0,0,0,2.68,5.34,24.59,24.59,0,0,0,11.41,10,14,14,0,0,0,7.19.76c3.47-.54,4.8-2.22,7.43-4.45C210,316.85,208,312.21,205,313.13Z"/></svg>