<svg id="Layer_1" data-name="Layer 1" xmlns="http://www.w3.org/2000/svg" viewBox="0 0 500 500"><defs><style>.cls-1{fill:#ec95b2;}.cls-2{fill:#f0b7c5;}.cls-3{fill:#c799a7;}.cls-4{fill:#dc6b97;}.cls-5{fill:#ebdcd8;}.cls-6{fill:#ec90b0;}.cls-7{fill:#19131c;}.cls-8{fill:#cc658d;}.cls-9{fill:#1d1c1a;}</style></defs><title>Artboard 1 copy 6</title><path class="cls-1" d="M421.05,407.06c-22.86,54.05-79.73,57.71-79.73,57.71-30.23,0-57-15-76.59-30.63h0c-1.11-.88-2.19-1.77-3.26-2.64l-2.08-1.76c-.71-.6-1.39-1.19-2.07-1.78A197.57,197.57,0,0,1,231,400.23a103,103,0,0,1-9.48-12.6C194,344.54,203.58,289,213.58,252.36c.86-3.13,1.71-6.12,2.54-9,11.62-39.37-14.2-53.57-14.2-53.57l119.39,7.1c-8,6.39-12.92,14.89-12,24.46a25.39,25.39,0,0,0,1.5,6.53,42.78,42.78,0,0,0,13.05,18c7.07,6,15.75,10.37,24.22,13.78,2.3.93,4.62,1.84,6.94,2.76,3.73,1.47,7.45,2.95,11.13,4.54q4.71,2,9.13,4.4a108.52,108.52,0,0,1,26.89,20,98.52,98.52,0,0,1,19.22,28.14,108.21,108.21,0,0,1,7.44,23.14,75.41,75.41,0,0,1,1.44,9.37c0,.56.08,1.12.09,1.68C430.65,375.5,427,393,421.05,407.06Z"/><path id="_Path_" data-name="&lt;Path&gt;" class="cls-2" d="M291.79,39.3s55.2-35.95,66.26-18c0,0,25.39,29-23.29,79.9Z"/><path id="_Path_2" data-name="&lt;Path&gt;" class="cls-3" d="M337.34,32.85C358.69,28,341.4,70,336.49,76.79a12.27,12.27,0,0,1-3.8,3.79c-2.3,1.28-5.17,1.11-7.68.31-8.19-2.61-13-10.83-17.1-18.4C301.35,50.31,329,34.73,337.34,32.85Z"/><path id="_Path_3" data-name="&lt;Path&gt;" class="cls-2" d="M135.16,21.23c-9.64,1.58-12,9.67-10.23,23.79,2.27,18.13,9.84,36,17,52.63,7-5.92,57.06-52.77,61.78-47.56-14.29-15.8-34.47-23.68-54.85-28C143.19,21,138.69,20.66,135.16,21.23Z"/><path id="_Path_4" data-name="&lt;Path&gt;" class="cls-3" d="M138.84,41.92c2.59,14.67,8,27.69,15.65,40.54l28.58-24.09c1-.89-14-11.87-15.42-12.63-7.3-3.92-15.14-7.94-23.44-9.32-1.74-.29-3.82-.45-4.94.89-.9,1.07-.77,2.64-.53,4C138.77,41.52,138.8,41.72,138.84,41.92Z"/><path id="_Path_5" data-name="&lt;Path&gt;" class="cls-2" d="M80.89,165.68s23.16-9.45,32.48-38.18c0,0,21.67-90.86,128-100.12,0,0,73.57-13.68,109.25,60.08,0,0,11.17,53.7,29.6,63.25a131.68,131.68,0,0,1-10.41,15.55c-30.35,40.54-74.9,70.19-124.42,81.26-34.28,7.66-70.27,8.79-101.58-8.9C115.45,222.61,93.87,195.18,80.89,165.68Z"/><path id="_Path_6" data-name="&lt;Path&gt;" class="cls-4" d="M256.36,427.12c2.62,2.32,5.42,4.68,8.38,7-3-24-3.6-84.19,63.67-96.52C328.41,337.63,250.92,338.24,256.36,427.12Z"/><g id="_Group_" data-name="&lt;Group&gt;"><path id="_Compound_Path_" data-name="&lt;Compound Path&gt;" class="cls-5" d="M211.33,156a21.51,21.51,0,0,0-2.3-5,13.63,13.63,0,0,0-2.77-3.16c-3-2.48-7.23-3.4-11.25-3.37a28.21,28.21,0,0,0-7.26,1,27.78,27.78,0,0,0-12,6.79c-.06.06-.12.11-.17.17s0-.15-.07-.22a11.35,11.35,0,0,0-7.14-6.81q-.42-.13-.84-.24c-5.93-1.56-13.76.18-18.14,4a21.75,21.75,0,0,0-7,15.66c-.26,7.77,4.82,15.59,13.53,16.19a19.25,19.25,0,0,0,5.05-.28c9.76-1.85,14.32-11.41,17-20.36,1.67,6.68,3.81,14.17,11.07,17.19a16.36,16.36,0,0,0,6.89,1.21c7.72-.28,15.07-5.76,16.41-13.3A19.71,19.71,0,0,0,211.33,156Z"/></g><path id="_Path_7" data-name="&lt;Path&gt;" class="cls-6" d="M142.49,136.87c3.79,4.46,1.37,10.78-2.84,14-4.66,3.61-11.93,2-16.91-.08-10.08-4.16-11-16.12-.15-20.49C129.05,127.74,138.26,131.9,142.49,136.87Z"/><g id="_Group_2" data-name="&lt;Group&gt;"><path id="_Path_8" data-name="&lt;Path&gt;" class="cls-6" d="M272.09,136.59c4.55,2.81,7.3,9,4.81,13.76-3.6,6.82-17.33,9.26-24.16,7.88a14,14,0,0,1-10.22-7.92C235.38,133.11,262.35,130.56,272.09,136.59Z"/><path id="_Path_9" data-name="&lt;Path&gt;" class="cls-2" d="M257.49,151.89c.43.46,1.06,1,1.62.67s.52-1.26.3-1.94A41.74,41.74,0,0,0,254.6,140a1.34,1.34,0,0,0-.7-.63,1,1,0,0,0-.64.08,2.16,2.16,0,0,0-1.09,2.09A13.12,13.12,0,0,0,253.5,146,27.15,27.15,0,0,0,257.49,151.89Z"/><path id="_Path_10" data-name="&lt;Path&gt;" class="cls-2" d="M264.41,149.57c.37.4.92.83,1.41.58s.46-1.09.26-1.69a36.17,36.17,0,0,0-4.19-9.27,1.25,1.25,0,0,0-.61-.55.85.85,0,0,0-.56.08,1.88,1.88,0,0,0-1,1.81,11.43,11.43,0,0,0,1.16,3.92A23.72,23.72,0,0,0,264.41,149.57Z"/></g><path id="_Path_11" data-name="&lt;Path&gt;" class="cls-2" d="M127.86,144.58c1.53-.14.78-3.54.62-4.38s-1.18-4.91-2.62-2.37c-.36.63-.08,2.29,0,3C125.93,141.94,126.17,144.73,127.86,144.58Z"/><path id="_Path_12" data-name="&lt;Path&gt;" class="cls-2" d="M135,143.17c1.53-.14.78-3.53.62-4.38s-1.18-4.91-2.62-2.37c-.36.63-.08,2.29,0,3C133.08,140.54,133.31,143.32,135,143.17Z"/><path class="cls-7" d="M265.88,117.25a12.26,12.26,0,0,0,2.52-5c.21-.77.39-1.55.6-2.32.08-.29.17-.57.27-.86-.32,1,.57-.57-.27.39l-7.94-3.29v9.39c0,3.91,5.16,6.36,7.94,3.29a12.37,12.37,0,0,0,3.17-8.18,5.48,5.48,0,0,0-3.81-5.15c-2.15-.84-4.46.65-5.94,2.05-4.37,4.13,2.22,10.71,6.58,6.59l.32-.3a3.35,3.35,0,0,1-3.31.69l-2.05-1.2c-.32-.55-.64-1.1-1-1.65-.08-.88-.13-1.06-.14-.53.07-1.44-.05-.07-.16.32-.07.22-.15.45-.24.67.25-.57.27-.62.05-.16s-1,1.3-.08.26l7.95,3.3v-9.39c0-3.85-5.21-6.44-7.95-3.29a12.32,12.32,0,0,0-2.52,5c-.21.77-.39,1.55-.6,2.32-.08.29-.18.58-.28.86.33-1-.57.58.27-.39a4.73,4.73,0,0,0,0,6.58c1.7,1.7,4.92,1.92,6.59,0Z"/><path class="cls-7" d="M142.83,99.1a15.29,15.29,0,0,1-1.09,1.77c.31-.39.3-.39,0,0s-.78,1-1.16,1.5a9.38,9.38,0,0,0-1.51,5.34c-.11,3.61,4,5.69,7,4a8.57,8.57,0,0,0,4.16-5.38,21.82,21.82,0,0,0,.43-3.13c.15-1.33-.19,1,.09-.4,0-.07.47-1.36.12-.58,1-2.31.68-5-1.67-6.37-2-1.19-5.32-.64-6.37,1.67a17.4,17.4,0,0,0-1.48,5.68l-.09.78c.14-1.17,0,0-.1.22.27-.56.28-.61,0-.15.16-.29,1.06-.88.17-.38l7,4c0-1.55-.25.64.08-.54-.36,1.3.68-.74-.13.28a24.87,24.87,0,0,0,2.55-3.65,4.74,4.74,0,0,0-1.67-6.37,4.69,4.69,0,0,0-6.37,1.67Z"/><path class="cls-4" d="M248.08,279.58c-2.35,43.26-11.79,86.21-9.64,129.66.13,2.51,3.69,7.91,3.56,5.39-2.16-43.46,7.64-91.79,10-135,.14-2.52-3.77-2.5-3.91,0Z"/><path id="_Path_13" data-name="&lt;Path&gt;" class="cls-2" d="M310.19,492.41c35.48,3,72.47-5,94.52-35.14a85.64,85.64,0,0,0,16-58.28c.58,6-7,19.56-10.54,24.75-5.22,7.67-14.86,13.56-23.06,17.49-9,4.35-19.5,7.6-29.6,8-60.67,0-123.91-57.44-123.91-57.44-27-12.07-54.8-6.39-76,13.68a99.73,99.73,0,0,0-24,34c-2.25,5.28-11.05,31.57,1.73,31.3S158,455.36,170.5,452.35c15.53-3.73,32.69-2.87,47.45,3.42,18.17,7.76,34.29,19.54,52.47,27.28C282,488,295.73,491.19,310.19,492.41Z"/><path class="cls-8" d="M355,262.5c-10.18,10-20.85,17-29.89,14.2-9.48-2.93-9.53-12.73-7.48-20.07A23.36,23.36,0,0,1,323.88,246c7.07,6,15.75,10.37,24.22,13.78C350.4,260.67,352.72,261.58,355,262.5Z"/><path class="cls-8" d="M402.19,291.44c-13,15.52-28.38,29.87-40.7,26.06-21.05-6.53-4-28.74,13.81-46.06A108.52,108.52,0,0,1,402.19,291.44Z"/><path class="cls-8" d="M430.29,352.09c-16.71,7.85-34,13-42.93,5.36-17.44-15,10-29.15,34.05-37.87a108.21,108.21,0,0,1,7.44,23.14A75.41,75.41,0,0,1,430.29,352.09Z"/><path class="cls-8" d="M312.31,146.6c20.65-4.72,41.63-7.73,62.56-10.94,5.92-.91,3.39-9.88-2.48-9-20.92,3.21-41.9,6.22-62.56,10.95-5.85,1.33-3.37,10.31,2.48,9Z"/><path class="cls-8" d="M309.51,167.1c22-1.41,44.21,4,64.45,12.35,5.55,2.29,7.94-6.72,2.47-9-20.92-8.63-44.18-14.14-66.92-12.68-6,.38-6,9.7,0,9.31Z"/><path class="cls-8" d="M119.15,151.7A188.75,188.75,0,0,0,69.43,139c-6-.63-5.91,8.69,0,9.31,16.22,1.71,32.11,6.36,47.24,12.35,5.59,2.21,8-6.79,2.48-9Z"/><path class="cls-8" d="M114.33,169.81c-15.45,3.06-30.88,5.37-44.91,13-5.28,2.87-.58,10.91,4.7,8,13.24-7.18,28.1-9.16,42.68-12,5.89-1.16,3.39-10.14-2.47-9Z"/><path class="cls-9" d="M194.5,174.11c-4.43,1.36-8.27-.93-10.47-5a17.74,17.74,0,0,1-2.05-7.52,12.4,12.4,0,0,1,.17-2.35,22.47,22.47,0,0,0,4.13-1.33,12.48,12.48,0,0,0,3.56-2.07c.46-.37,3.2-2.9,1.72-1.74a6.43,6.43,0,0,0,2.4-6,8.39,8.39,0,0,0-3.84-6.15,16.75,16.75,0,0,0-10.18-3.39c-6.28,0-12,1.9-13.85,8.52a15.28,15.28,0,0,0-.4,1.82c-.51,3.34,1.65,7.11,4.12,8.91a9.87,9.87,0,0,0,4.07,1.7,30.93,30.93,0,0,1-1.43,8.54c-2.3,6.39-6.18,8.06-12.15,8.36a2,2,0,0,0-.78,3.88c7.72,3.82,14.13-2.23,17.87-10.13a23.6,23.6,0,0,0,1.75,3.5,16.16,16.16,0,0,0,7.49,6.55,9.11,9.11,0,0,0,4.71.5c2.27-.35,3.15-1.45,4.87-2.91C197.77,176.54,196.48,173.5,194.5,174.11Z"/></svg>