<svg id="Layer_1" data-name="Layer 1" xmlns="http://www.w3.org/2000/svg" viewBox="0 0 500 500"><defs><style>.cls-1{fill:#ec95b2;}.cls-2{fill:#dc6b97;}.cls-3{fill:#f0b7c5;}.cls-4{fill:#c799a7;}.cls-5{fill:#cc658d;}.cls-6{fill:#ebdcd8;}.cls-7{fill:#ec90b0;}.cls-8{fill:#1d1c1a;}.cls-9{fill:#221e20;}</style></defs><title>Artboard 1 copy 9</title><g id="_Group_" data-name="&lt;Group&gt;"><path class="cls-1" d="M226.29,308.65c-.87,10.85-5.2,22-2.6,32.53,3.35,13.61-1.88,104.91-14.13,94.94-4.19-3.41-10.87,0-15.88,2.44-2.53,1.21-5.13,3.1-5.94,6.15a9.2,9.2,0,0,0,2.95,8.77c2.26,2,5.12,2.89,7.89,3.7,8.25,2.42,20.23,6.5,28.61,2.24,9.64-4.9,12.41-24.52,15.24-35,4-15,5.39-30.72,7.7-46.13,3.3-22,5.62-44.14,7.62-66.32Z"/><path class="cls-2" d="M204,460.34c-1.43-.39-2.81-.8-4.11-1.19l-1.77-.53c-2.78-.81-5.92-1.74-8.47-4s-4.46-6.23-3.4-10.27c.78-2.95,3.05-5.35,6.74-7.12l.65-.31c5.09-2.45,12.08-5.81,16.82-1.94.79.63,1.15.41,1.42.24,3-1.89,7.07-14.5,9.67-44.24,1.85-21.17,2.14-43.34.64-49.42-1.81-7.35-.41-14.93.94-22.25a105.52,105.52,0,0,0,1.62-10.76l.12-1.53,34.47,3.62-.14,1.47c-2.41,26.87-4.77,47.35-7.63,66.42-.61,4.07-1.16,8.24-1.7,12.27-1.49,11.26-3,22.9-6,34-.49,1.81-1,3.93-1.5,6.18-2.64,11.32-5.93,25.42-14.5,29.78C220.85,464.33,211.7,462.49,204,460.34Zm2.86-23.93c-3.33-.94-8,1.32-11.92,3.2l-.65.31c-2.91,1.39-4.58,3.08-5.14,5.18-.73,2.79.78,5.72,2.5,7.26,2.05,1.84,4.72,2.62,7.31,3.38l1.79.53c7.79,2.32,18.46,5.51,25.72,1.81s10.57-17.63,12.94-27.78c.53-2.27,1-4.42,1.53-6.28,3-10.93,4.48-22.47,6-33.64.54-4,1.09-8.22,1.71-12.32,2.79-18.65,5.11-38.68,7.47-64.76l-28.48-3c-.34,3.2-.94,6.41-1.52,9.53-1.35,7.34-2.63,14.27-1,21,3,12.16-.39,89.8-11.63,96.91a4,4,0,0,1-4.91-.45A4.7,4.7,0,0,0,206.9,436.41Z"/></g><g id="_Group_2" data-name="&lt;Group&gt;"><path class="cls-1" d="M217.93,311.33c2.09,10.68.92,22.56,6.27,32,6.9,12.2,26.47,101.54,12,95.24-4.94-2.15-10.45,3-14.63,6.63-2.1,1.85-4.11,4.37-4.06,7.52a9.18,9.18,0,0,0,5.2,7.65c2.73,1.35,5.71,1.4,8.6,1.44,8.6.11,21.23.81,28.15-5.55,8-7.33,5.34-27,5.24-37.83-.15-15.54-3.09-31-5-46.49-2.75-22.07-6.48-44-10.54-65.93Z"/><path class="cls-2" d="M237.4,463.41c-1.48,0-2.92,0-4.28-.05l-1.85,0c-2.89,0-6.17-.08-9.24-1.59s-6-4.8-6-9c0-3.06,1.49-6,4.57-8.67l.54-.48c4.25-3.73,10.07-8.86,15.68-6.41.93.41,1.22.09,1.43-.15,2.35-2.61,2.91-15.86-2.61-45.2-3.93-20.89-9.62-42.32-12.7-47.77-3.73-6.59-4.43-14.26-5.1-21.68a106.34,106.34,0,0,0-1.34-10.79l-.29-1.51,34.16-5.8.27,1.45c4.91,26.53,8.17,46.88,10.55,66,.51,4.09,1.1,8.25,1.67,12.28,1.6,11.24,3.25,22.87,3.36,34.39,0,1.88.11,4.05.21,6.35.51,11.62,1.15,26.08-5.93,32.59C254.66,462.71,245.35,463.41,237.4,463.41Zm-3.69-23.83c-3.47,0-7.38,3.44-10.63,6.3l-.54.47c-2.42,2.12-3.58,4.21-3.55,6.37,0,2.89,2.3,5.31,4.37,6.33,2.46,1.21,5.25,1.25,7.95,1.28l1.86,0c8.13.13,19.26.32,25.25-5.19s5.43-19.83,5-30.25c-.11-2.33-.2-4.52-.22-6.46-.11-11.32-1.74-22.84-3.33-34-.57-4-1.16-8.22-1.68-12.33-2.33-18.71-5.5-38.62-10.25-64.38l-28.24,4.8c.53,3.16.83,6.42,1.11,9.58.67,7.43,1.31,14.45,4.72,20.48,6.16,10.89,23.83,86.57,14.93,96.45a4,4,0,0,1-4.86.89A4.67,4.67,0,0,0,233.71,439.58Z"/></g><path class="cls-1" d="M421.05,407.06c-22.86,54.05-79.73,57.71-79.73,57.71-30.23,0-57-15-76.59-30.63h0c-1.11-.88-2.19-1.77-3.26-2.64l-2.08-1.76c-.71-.6-1.39-1.19-2.07-1.78A197.57,197.57,0,0,1,231,400.23a103,103,0,0,1-9.48-12.6C194,344.54,203.58,289,213.58,252.36c.86-3.13,1.71-6.12,2.54-9,11.62-39.37-14.2-53.57-14.2-53.57l119.39,7.1c-8,6.39-12.92,14.89-12,24.46a25.39,25.39,0,0,0,1.5,6.53,42.78,42.78,0,0,0,13.05,18c7.07,6,15.75,10.37,24.22,13.78,2.3.93,4.62,1.84,6.94,2.76,3.73,1.47,7.45,2.95,11.13,4.54q4.71,2,9.13,4.4a108.52,108.52,0,0,1,26.89,20,98.52,98.52,0,0,1,19.22,28.14,108.21,108.21,0,0,1,7.44,23.14,75.41,75.41,0,0,1,1.44,9.37c0,.56.08,1.12.09,1.68C430.65,375.5,427,393,421.05,407.06Z"/><path id="_Path_" data-name="&lt;Path&gt;" class="cls-3" d="M291.79,39.3s55.2-35.95,66.26-18c0,0,25.39,29-23.29,79.9Z"/><path id="_Path_2" data-name="&lt;Path&gt;" class="cls-4" d="M337.34,32.85C358.69,28,341.4,70,336.49,76.79a12.27,12.27,0,0,1-3.8,3.79c-2.3,1.28-5.17,1.11-7.68.31-8.19-2.61-13-10.83-17.1-18.4C301.35,50.31,329,34.73,337.34,32.85Z"/><path id="_Path_3" data-name="&lt;Path&gt;" class="cls-3" d="M135.16,21.23c-9.64,1.58-12,9.67-10.23,23.79,2.27,18.13,9.84,36,17,52.63,7-5.92,57.06-52.77,61.78-47.56-14.29-15.8-34.47-23.68-54.85-28C143.19,21,138.69,20.66,135.16,21.23Z"/><path id="_Path_4" data-name="&lt;Path&gt;" class="cls-4" d="M138.84,41.92c2.59,14.67,8,27.69,15.65,40.54l28.58-24.09c1-.89-14-11.87-15.42-12.63-7.3-3.92-15.14-7.94-23.44-9.32-1.74-.29-3.82-.45-4.94.89-.9,1.07-.77,2.64-.53,4C138.77,41.52,138.8,41.72,138.84,41.92Z"/><path id="_Path_5" data-name="&lt;Path&gt;" class="cls-3" d="M80.89,165.68s23.16-9.45,32.48-38.18c0,0,21.67-90.86,128-100.12,0,0,73.57-13.68,109.25,60.08,0,0,11.17,53.7,29.6,63.25a131.68,131.68,0,0,1-10.41,15.55c-30.35,40.54-74.9,70.19-124.42,81.26-34.28,7.66-70.27,8.79-101.58-8.9C115.45,222.61,93.87,195.18,80.89,165.68Z"/><path id="_Path_6" data-name="&lt;Path&gt;" class="cls-5" d="M163.11,178.2a26.72,26.72,0,0,0-.48,2.69c-.77,7,6.46,12.46,15,11.25,7.17-1,15.21-6.16,17.59-12.3a16.65,16.65,0,0,0,0-11.36c-1.28-4.07-3.78-9.06-9.22-9.92-4.7-.74-10.78-.69-15.35,3.23a18.3,18.3,0,0,0-3.58,4.32,21.59,21.59,0,0,0-3,7.78C163.82,175.31,163.43,176.77,163.11,178.2Z"/><path id="_Path_7" data-name="&lt;Path&gt;" class="cls-2" d="M264.44,436.6c.53,1.13,1.66-1.13,2.23,0-.46-24.08,1.44-84.19,30.85-95.48,0,0-32.37-.56-34.15,84.27C263.31,428.08,263.29,434.16,264.44,436.6Z"/><g id="_Group_3" data-name="&lt;Group&gt;"><path id="_Compound_Path_" data-name="&lt;Compound Path&gt;" class="cls-6" d="M211.33,156.6a23.15,23.15,0,0,0-2.3-5.33,14.09,14.09,0,0,0-2.77-3.34c-3-2.62-7.23-3.59-11.25-3.56a26.64,26.64,0,0,0-7.26,1.08,27.43,27.43,0,0,0-12,7.17,1.45,1.45,0,0,0-.17.18c0-.08,0-.16-.07-.23a11.63,11.63,0,0,0-7.14-7.19c-.28-.1-.56-.18-.84-.26-5.93-1.64-13.76.19-18.14,4.24s-6.82,10.4-7,16.55c-.26,8.2,4.82,16.46,13.53,17.1a18.42,18.42,0,0,0,5.05-.29c9.76-2,14.32-12.06,17-21.51,1.67,7.06,3.81,15,11.07,18.15a15.41,15.41,0,0,0,6.89,1.28c7.72-.29,15.07-6.08,16.41-14A22,22,0,0,0,211.33,156.6Z"/></g><path id="_Path_8" data-name="&lt;Path&gt;" class="cls-7" d="M142.49,136.87c3.79,4.46,1.37,10.78-2.84,14-4.66,3.61-11.93,2-16.91-.08-10.08-4.16-11-16.12-.15-20.49C129.05,127.74,138.26,131.9,142.49,136.87Z"/><g id="_Group_4" data-name="&lt;Group&gt;"><path id="_Path_9" data-name="&lt;Path&gt;" class="cls-7" d="M272.09,136.59c4.55,2.81,7.3,9,4.81,13.76-3.6,6.82-17.33,9.26-24.16,7.88a14,14,0,0,1-10.22-7.92C235.38,133.11,262.35,130.56,272.09,136.59Z"/><path id="_Path_10" data-name="&lt;Path&gt;" class="cls-3" d="M257.49,151.89c.43.46,1.06,1,1.62.67s.52-1.26.3-1.94A41.74,41.74,0,0,0,254.6,140a1.34,1.34,0,0,0-.7-.63,1,1,0,0,0-.64.08,2.16,2.16,0,0,0-1.09,2.09A13.12,13.12,0,0,0,253.5,146,27.15,27.15,0,0,0,257.49,151.89Z"/><path id="_Path_11" data-name="&lt;Path&gt;" class="cls-3" d="M264.41,149.57c.37.4.92.83,1.41.58s.46-1.09.26-1.69a36.17,36.17,0,0,0-4.19-9.27,1.25,1.25,0,0,0-.61-.55.85.85,0,0,0-.56.08,1.88,1.88,0,0,0-1,1.81,11.43,11.43,0,0,0,1.16,3.92A23.72,23.72,0,0,0,264.41,149.57Z"/></g><path id="_Path_12" data-name="&lt;Path&gt;" class="cls-3" d="M127.86,144.58c1.53-.14.78-3.54.62-4.38s-1.18-4.91-2.62-2.37c-.36.63-.08,2.29,0,3C125.93,141.94,126.17,144.73,127.86,144.58Z"/><path id="_Path_13" data-name="&lt;Path&gt;" class="cls-3" d="M135,143.17c1.53-.14.78-3.53.62-4.38s-1.18-4.91-2.62-2.37c-.36.63-.08,2.29,0,3C133.08,140.54,133.31,143.32,135,143.17Z"/><path class="cls-8" d="M194.5,174.11c-4.43,1.36-8.27-.93-10.47-5a17.74,17.74,0,0,1-2.05-7.52,12.4,12.4,0,0,1,.17-2.35,22.47,22.47,0,0,0,4.13-1.33,12.48,12.48,0,0,0,3.56-2.07c.46-.37,3.2-2.9,1.72-1.74a6.43,6.43,0,0,0,2.4-6,8.39,8.39,0,0,0-3.84-6.15,16.75,16.75,0,0,0-10.18-3.39c-6.28,0-12,1.9-13.85,8.52a15.28,15.28,0,0,0-.4,1.82c-.51,3.34,1.65,7.11,4.12,8.91a9.87,9.87,0,0,0,4.07,1.7,30.93,30.93,0,0,1-1.43,8.54c-2.3,6.39-6.18,8.06-12.15,8.36a2,2,0,0,0-.78,3.88c7.72,3.82,14.13-2.23,17.87-10.13a23.6,23.6,0,0,0,1.75,3.5,16.16,16.16,0,0,0,7.49,6.55,9.11,9.11,0,0,0,4.71.5c2.27-.35,3.15-1.45,4.87-2.91C197.77,176.54,196.48,173.5,194.5,174.11Z"/><path class="cls-2" d="M248.08,279.58c-2.35,43.26-11.1,86.21-8.94,129.66.12,2.51,3,7.91,2.86,5.39-2.16-43.46,7.64-91.79,10-135,.14-2.52-3.77-2.5-3.91,0Z"/><path class="cls-5" d="M355,262.5c-10.18,10-20.85,17-29.89,14.2-9.48-2.93-9.53-12.73-7.48-20.07A23.36,23.36,0,0,1,323.88,246c7.07,6,15.75,10.37,24.22,13.78C350.4,260.67,352.72,261.58,355,262.5Z"/><path class="cls-5" d="M402.19,291.44c-13,15.52-28.38,29.87-40.7,26.06-21.05-6.53-4-28.74,13.81-46.06A108.52,108.52,0,0,1,402.19,291.44Z"/><path class="cls-5" d="M430.29,352.09c-16.71,7.85-34,13-42.93,5.36-17.44-15,10-29.15,34.05-37.87a108.21,108.21,0,0,1,7.44,23.14A75.41,75.41,0,0,1,430.29,352.09Z"/><path class="cls-5" d="M312.31,146.6c20.65-4.72,41.63-7.73,62.56-10.94,5.92-.91,3.39-9.88-2.48-9-20.92,3.21-41.9,6.22-62.56,10.95-5.85,1.33-3.37,10.31,2.48,9Z"/><path class="cls-5" d="M309.51,167.1c22-1.41,44.21,4,64.45,12.35,5.55,2.29,7.94-6.72,2.47-9-20.92-8.63-44.18-14.14-66.92-12.68-6,.38-6,9.7,0,9.31Z"/><path class="cls-5" d="M118.75,154.81A189.09,189.09,0,0,0,71,136.15c-5.85-1.35-6.93,7.9-1.14,9.24,15.9,3.68,31.1,10.23,45.39,18,5.27,2.88,8.76-5.77,3.55-8.61Z"/><path class="cls-5" d="M114.33,169.81c-15.45,3.06-30.88,5.37-44.91,13-5.28,2.87-.58,10.91,4.7,8,13.24-7.18,28.1-9.16,42.68-12,5.89-1.16,3.39-10.14-2.47-9Z"/><path id="_Path_14" data-name="&lt;Path&gt;" class="cls-3" d="M451.15,349.88c1.38,35.49-7,72.15-34.3,93.2-15.07,11.62-33.92,16.74-51.91,14.1,5.23.77,17.48-6.38,22.17-9.74,7-5,12.48-14.4,16.24-22.46,4.14-8.89,7.37-19.22,8.13-29.29,2.14-60.52-46.23-125.42-46.23-125.42-9.68-27.27-3.7-54.87,14.74-75.4,9.11-10.15,18.93-17.61,30.8-22.84,4.73-2.09,28.21-10,27.51,2.7s-14.42,22.11-17.52,34.53c-3.83,15.38-3.68,32.52,1.35,47.44,6.19,18.37,16,34.83,22.18,53.21C448.23,321.56,450.59,335.41,451.15,349.88Z"/><path class="cls-9" d="M142.14,104.63c-.29-3.44.54-7.53,2.47-12.34a1.22,1.22,0,0,1,1.58-.67,1.2,1.2,0,0,1,.67,1.57c-2.94,7.32-3.12,12.65-.55,16.28,2.11,3,6.35,4.61,10.55,4.06,3.66-.48,7.32-2.39,10.88-5.66a1.21,1.21,0,0,1,1.64,1.79c-3.93,3.61-8,5.72-12.2,6.27-5.15.68-10.19-1.31-12.85-5.06A12.34,12.34,0,0,1,142.14,104.63Z"/><path class="cls-9" d="M251.26,120.24a24.12,24.12,0,0,1-12.47-7.77,1.21,1.21,0,0,1,.14-1.7,1.2,1.2,0,0,1,1.7.14c4.68,5.51,11.89,8.39,18.37,7.33,6.86-1.11,12.65-7,13.18-13.49a1.2,1.2,0,0,1,1.3-1.1,1.21,1.21,0,0,1,1.1,1.3c-.62,7.63-7.15,14.37-15.19,15.68A20.33,20.33,0,0,1,251.26,120.24Z"/></svg>