<svg id="Layer_1" data-name="Layer 1" xmlns="http://www.w3.org/2000/svg" viewBox="0 0 500 500"><defs><style>.cls-1{fill:#7c7c7c;}.cls-2{fill:#1d1d1b;}</style></defs><title>Artboard 1 copy 17</title><path class="cls-1" d="M277,48.87l-2.33.1A9.73,9.73,0,0,1,277,48.87Z"/><path class="cls-2" d="M220.61,135.67q0-8.55,0-17.1c0-12.73.09-25.89,0-38.84l-.82.22c-7.9,2.09-15.7,4.42-23.35,7.06C182.65,78.34,163.14,76.78,148,75.56l-4.32-.35a149.55,149.55,0,0,1-16.42-2.72c-13.4-2.72-27.26-5.52-40.76-1L81.85,73.1,81.42,78c-4.41,50.2-.58,89.73,11.7,120-.68,4.12-1.31,8.31-2,12.56-3.76,24.79,2.58,46,3.71,70.22.86,18-5.62,36-10.73,52.9s-31.26,37.85-30.33,54.45c11.49.55,23-9.57,35.58-8-8.89,6.6-27.32,16.66-24.93,30.71,11-5,29.92-10.16,42.16-4.94-10.09,10.14-23.65,19.21-29,33.35,14.9.14,33.21-7.65,49-9.24,16.47-1.63,32.27-.7,47.94.77,5.05.47,10.08,1,15.11,1.51-22.8-8.43-39.68-23.12-47.79-41.74-7.88-18.08-6.79-38.87,3.15-60.12,10.78-23,34.23-37,54.91-49.4,3.53-2.11,6.87-4.1,10.17-6.15,9.55-5.91,10.24-14.81,11.1-26.07.19-2.38.38-4.84.66-7.42,2.4-22.14,1.21-44.9.05-66.9C221.29,161.76,220.59,148.58,220.61,135.67ZM167.52,250c-2,5.06-10.41,5-12.46,0a19.9,19.9,0,0,1-1.67-8.83,29.72,29.72,0,0,0,.14-3c0-.17,0-.29,0-.39s0-.15-.05-.25c-.82-3.8,1.05-7.74,4.7-8.81,3.12-.91,5.81.65,7.6,3.29a21.09,21.09,0,0,1,2.86,6.94A18,18,0,0,1,167.52,250ZM110.75,147.49a89.81,89.81,0,0,0-10.86,21.82c-5.24-23.26-6.54-51.32-4-84.71,8.59-1.41,18.24.54,28.36,2.59a162.1,162.1,0,0,0,18.1,3c1.41.13,2.89.24,4.42.37,8.77.7,20,1.61,29.76,4.3C150.75,106.33,127.76,122.67,110.75,147.49Z"/><path class="cls-2" d="M439.25,355.74c10.69-.45,21.34-6.22,31.61-.54-6.48-14.15-24-21.71-30.37-36.34-7.6-17.49-6.5-40.71-8-60.11-1.36-17.68-3.14-35.94-6.41-53.84l2.78-8.37c12-36,8.8-81.73-9.64-139.89l-1.53-4.81-5-.4c-14.14-1.12-27,5-39.45,10.91A153.94,153.94,0,0,1,357.82,69c-1.32.46-2.7.92-4.14,1.41-10.23,3.46-22.55,7.63-33,14-2.39-.6-4.78-1.2-7.2-1.83a228.88,228.88,0,0,0-39.55-7,801.25,801.25,0,0,0,4.39,108.92c1,9.19.59,18.61.15,27.71-.53,11.21-1.07,22.79,1.14,34,4,20.52,23.92,29.28,43.14,37.76,8,3.53,15.61,6.87,21.83,11,32.37,21.39,45.29,44,43.2,75.65-1.14,17.47-8.51,32.09-21.89,43.6,3-.28,6.06-.49,9.09-.59,3.21-.12,6.42-.1,9.61.05,21.52,1,48.3.36,67.58,8,.08-16.05-17.38-23.67-23.57-36.19,11.85.85,26,0,36.94,3.59C461.65,374.78,451.4,363.23,439.25,355.74Zm-71.43-111a8,8,0,0,1-8.48,0c-3.87-2.33-5.29-6.11-5.77-10.55a10.11,10.11,0,0,1,.34-3.37c0-.09,0-.15,0-.21,0-.22,0-.44.05-.66.38-4.65,3.36-8.56,8-8.56s7.46,3.69,8,8.16a19.22,19.22,0,0,1,.77,2,17,17,0,0,1,.8,2A20.46,20.46,0,0,1,372,237C372.26,240.07,370.18,243.27,367.82,244.74Zm51-69.79c-7.22-23.19-18.29-44.73-35.89-62.29-11.93-11.9-25.46-17.94-40.06-22.38,5.45-2.2,10.91-4,15.61-5.63l4.22-1.44a167.31,167.31,0,0,0,17-7.31c9.35-4.45,18.27-8.7,26.88-9.47C419.87,110.11,423.93,145.85,418.83,175Z"/><path class="cls-2" d="M275.73,333.82c-3.38.44-5.79-1.68-7.56-4.5a37.08,37.08,0,0,1-4.25-10.22c-.58-2.17-.85-4.36-1.21-6.5a8.36,8.36,0,0,0,3.08-3.53,17.84,17.84,0,0,0,1.33-5.21c.54-4.61-3.38-8.7-7.13-10-5.77-1.95-13.15-.87-16.36,4.9a7.68,7.68,0,0,0,.13,8.87,12.33,12.33,0,0,0,4.68,4.42c.25,2.83,1,5.72,1,8.54a24.57,24.57,0,0,1-2.47,10.63c-4.08,8.39-11.54,4.37-18.22,7.23a1.52,1.52,0,0,0-1,1.83c4.31,11.79,19.67,6.85,25.53-.67a26.3,26.3,0,0,0,3-5,27.94,27.94,0,0,0,5.95,6.37,18.26,18.26,0,0,0,14.85,3.49c2.83-.49,11.43-5.44,7.3-9.66C281.63,332,279.09,333.38,275.73,333.82Z"/></svg>