<svg id="Layer_1" data-name="Layer 1" xmlns="http://www.w3.org/2000/svg" viewBox="0 0 500 500"><defs><style>.cls-1{fill:#7c7c7c;}.cls-2{fill:#1d1d1b;}.cls-3{fill:#3f3f3f;}</style></defs><title>Artboard 1 copy 15</title><path class="cls-1" d="M267.8,18.1l-1.49.07A5.8,5.8,0,0,1,267.8,18.1Z"/><path d="M261.36,34.79c1.39.06,2.78.15,4.17.26h0C264.14,34.94,262.75,34.85,261.36,34.79Z"/><path class="cls-2" d="M148.58,228.55c-5.65,4.19-17.35,10.58-15.83,19.51,7-3.15,19-6.46,26.78-3.14-6.41,6.45-15,12.2-18.39,21.18,9.46.1,21.09-4.85,31.12-5.86,10.47-1,20.5-.45,30.46.48,3.65.35,7.3.73,10.95,1.1-27.07-9.47-43.83-33.92-29.42-64.71,7.91-16.92,26.28-25.9,41.22-35.15,7.47-4.63,6.57-11.91,7.61-21.51,2.42-22.25-.85-44.85-.82-67.21,0-11.87.11-23.75,0-35.62l-.83.22c-5.56,1.47-11,3.14-16.39,5-8.47-4.89-20.18-5.83-29.33-6.56L183,36.09a96.85,96.85,0,0,1-10.57-1.75c-8.35-1.69-17-3.44-25.24-.65l-2.17.74-.2,2.27c-2.69,30.64-.53,54.94,6.59,73.75-.6,3.39-1.12,6.84-1.66,10.38-2.39,15.75,1.64,29.19,2.36,44.61.54,11.43-3.57,22.88-6.82,33.6S125.39,223.09,126,233.63C133.28,234,140.57,227.55,148.58,228.55Zm49.64-82.71c-1.29,3.22-6.62,3.18-7.92,0a12.77,12.77,0,0,1-1.06-5.6,17.26,17.26,0,0,0,.09-1.9v-.25a1.55,1.55,0,0,1,0-.15,4.66,4.66,0,0,1,3-5.6c2-.58,3.69.41,4.83,2.09a13.49,13.49,0,0,1,1.82,4.41A11.57,11.57,0,0,1,198.22,145.84ZM151.55,39.74c6-1.26,12.82.12,19.45,1.46a103.81,103.81,0,0,0,11.36,1.87l2.8.23c6.07.48,14,1.12,20.6,3.21-17.13,7.35-32.41,17.9-43.61,34.24a58.79,58.79,0,0,0-7.65,16.19C150.69,81.42,149.73,62.48,151.55,39.74Z"/><path class="cls-3" d="M269.14,143.54c3.68,18.68,28,22.33,41.41,31.17,17.16,11.34,28.81,25,27.3,47.77a38.45,38.45,0,0,1-14.13,27.78c2.1-.21,4.21-.36,6.32-.43s4.07-.07,6.1,0c13.67.65,30.68.23,42.94,5.12.05-10.2-11.05-15-15-23,7.53.54,16.52,0,23.46,2.28-2.49-9.11-9-16.45-16.72-21.21,6.79-.28,13.56-3.95,20.08-.34-4.12-9-15.27-13.79-19.29-23.08-4.83-11.12-4.13-25.87-5.08-38.19A318.16,318.16,0,0,0,362,114.7l1.06-3.19c7.51-22.59,5.5-51.4-6.13-88.09l-.71-2.24L353.85,21c-8.65-.69-16.66,3.13-24.41,6.82a98.21,98.21,0,0,1-9.92,4.29l-2.63.9c-6.08,2-13.34,4.51-19.61,8.1L291,39.5a145,145,0,0,0-25.44-4.45,505.46,505.46,0,0,0,2.78,69.26C269.77,117.3,266.58,130.58,269.14,143.54Zm56.32-1a5.11,5.11,0,0,1-5.39,0c-2.45-1.48-3.36-3.88-3.66-6.7a6.53,6.53,0,0,1,.21-2.15l0-.13,0-.42c.25-2.95,2.14-5.43,5.11-5.43s4.74,2.34,5.07,5.18a10.81,10.81,0,0,1,.5,1.27,11,11,0,0,1,.5,1.28,12.76,12.76,0,0,1,.24,2.2A5.65,5.65,0,0,1,325.46,142.53Zm-6.33-102.9c.93-.31,1.82-.61,2.67-.91a105.49,105.49,0,0,0,10.65-4.59c6.13-2.92,12.46-5.93,18.53-6.2,9.13,29.58,11.66,53.56,7.68,72.88-4.56-15.73-11.75-30.37-23.6-42.19-8.09-8.08-17.35-11.9-27.37-14.79C311.66,42.16,315.7,40.79,319.13,39.63Z"/><path class="cls-2" d="M445.4,227.21c-26.34-7.69-53,15.94-61.19,38.69-9.6,26.68-5.91,52.76-6.13,80.87-.1,12.54-3.36,28.64-10.91,40.63A151.9,151.9,0,0,0,362,365.65c-3.13-9.82-8-17.11-13.35-21.33-5.68-21.44-13.46-42-20.14-59.47,5.12-10.37,7.27-22.85-2.59-29.55a15.27,15.27,0,0,0-5.6-2.45A67.82,67.82,0,0,1,304.2,261c-3.8,4.33-7.14,9.38-10.19,12.67-11.25,12.1-28,18.88-40.83,29.1-22.5,17.87-7.14,31.15,17.75,25.92,16.43-3.45,36.8-18.25,48.42-30.44a48,48,0,0,0,4.61-5.74c5.34,14.06,11.4,30.55,16.27,47.76-9.28-1.6-18.06,6.27-20.31,26.18-3.34,29.64,5.45,48.78-15.19,73.56-5.72,6.86-20.61,16.93-16.39,26.89a172.39,172.39,0,0,1-46.33-.29c3.81-9.86-10.85-19.81-16.51-26.6-20.65-24.78-11.85-43.92-15.2-73.56-1.89-16.83-8.47-25.06-16.06-26.23,4.59-12.68,9.27-23.31,12.15-29.85,2.67-6.06,5.12-13.42,7.72-21.22,1.06-3.16,2.13-6.38,3.25-9.61l6.09-15c-.23.21-.46.4-.7.6l.33-.76c-2.48-.55-4.76-1.16-6.85-1.8-1.24,3-2.41,6-3.54,9.13-14,6.78-31,6.83-46.74,6-10.85-.59-38.7-9.42-37.42,6.2,1.82,22.2,48.95,28.87,70.25,26.36-4.16,9.56-8.48,20.08-12.34,31-7.16,3.06-14.15,11.54-18.22,24.28-4.82,15.17-8.57,35.84-5.6,51.77,3.89,20.79,25.93,40.38,44.45,48.88,6.79,3.12,20.26,10.1,28.92,6.54a189.39,189.39,0,0,0,31.22,2.64,152.88,152.88,0,0,0,27.67-2.4c8.67,3,21.65-3.74,28.28-6.78,14.36-6.59,30.84-19.86,39.32-35.18,5.72-2.47,10.63-5.5,13.56-8.3,14.84-14.19,24-37.84,26.28-58,3.1-27.86-.58-75.16,21.68-95.34,9.94-9,23.31-5.94,31.67-14.34C465.9,244.89,457.71,230.8,445.4,227.21Z"/><path class="cls-2" d="M252.69,202.82a16.85,16.85,0,0,0,1.92-3.19,17.6,17.6,0,0,0,3.78,4.05,11.57,11.57,0,0,0,9.43,2.22c1.8-.31,7.27-3.46,4.64-6.14-1.75-1.79-3.36-.92-5.5-.64s-3.68-1.07-4.8-2.86a23.89,23.89,0,0,1-2.7-6.49c-.37-1.39-.54-2.78-.77-4.15a5.28,5.28,0,0,0,2-2.22,11.41,11.41,0,0,0,.84-3.32c.34-2.92-2.15-5.52-4.53-6.32-3.69-1.25-8.43-.54-10.44,3.2a4.85,4.85,0,0,0,0,5.4,7.75,7.75,0,0,0,3.06,2.95c.15,1.8.61,3.64.61,5.43a15.66,15.66,0,0,1-1.57,6.75c-2.59,5.33-7.33,2.78-11.58,4.59a1,1,0,0,0-.62,1.17C239.21,210.74,249,207.6,252.69,202.82Z"/></svg>